G75*
%MOIN*%
%OFA0B0*%
%FSLAX24Y24*%
%IPPOS*%
%LPD*%
%AMOC8*
5,1,8,0,0,1.08239X$1,22.5*
%
%ADD10R,0.0354X0.0315*%
%ADD11R,0.0248X0.0327*%
%ADD12R,0.0217X0.0472*%
%ADD13R,0.0276X0.0315*%
%ADD14R,0.0197X0.0197*%
%ADD15R,0.0480X0.0358*%
%ADD16R,0.0315X0.0276*%
%ADD17R,0.0551X0.0394*%
D10*
X007569Y009233D03*
X007569Y009981D03*
X008396Y009607D03*
X018593Y009233D03*
X019420Y009607D03*
X018593Y009981D03*
X029617Y009981D03*
X029617Y009233D03*
X030443Y009607D03*
X040640Y009233D03*
X041467Y009607D03*
X040640Y009981D03*
X051664Y009981D03*
X052491Y009607D03*
X051664Y009233D03*
X051664Y030099D03*
X052491Y030473D03*
X051664Y030847D03*
X041467Y030473D03*
X040640Y030099D03*
X040640Y030847D03*
X030443Y030473D03*
X029617Y030099D03*
X029617Y030847D03*
X019420Y030473D03*
X018593Y030099D03*
X018593Y030847D03*
X008396Y030473D03*
X007569Y030099D03*
X007569Y030847D03*
D11*
X007498Y031945D03*
X008404Y031945D03*
X018522Y031945D03*
X019428Y031945D03*
X029546Y031945D03*
X030451Y031945D03*
X040569Y031945D03*
X041475Y031945D03*
X051593Y031945D03*
X052498Y031945D03*
X052498Y011079D03*
X051593Y011079D03*
X041475Y011079D03*
X040569Y011079D03*
X030451Y011079D03*
X029546Y011079D03*
X019428Y011079D03*
X018522Y011079D03*
X008404Y011079D03*
X007498Y011079D03*
D12*
X003439Y012174D03*
X003065Y012174D03*
X002691Y012174D03*
X002691Y013197D03*
X003439Y013197D03*
X004001Y007602D03*
X004375Y007602D03*
X004749Y007602D03*
X004749Y006579D03*
X004001Y006579D03*
X013714Y012174D03*
X014088Y012174D03*
X014462Y012174D03*
X014462Y013197D03*
X013714Y013197D03*
X015025Y007602D03*
X015399Y007602D03*
X015773Y007602D03*
X015773Y006579D03*
X015025Y006579D03*
X024738Y012174D03*
X025112Y012174D03*
X025486Y012174D03*
X025486Y013197D03*
X024738Y013197D03*
X026048Y007602D03*
X026422Y007602D03*
X026796Y007602D03*
X026796Y006579D03*
X026048Y006579D03*
X035762Y012174D03*
X036136Y012174D03*
X036510Y012174D03*
X036510Y013197D03*
X035762Y013197D03*
X037072Y007602D03*
X037446Y007602D03*
X037820Y007602D03*
X037820Y006579D03*
X037072Y006579D03*
X046785Y012174D03*
X047159Y012174D03*
X047533Y012174D03*
X047533Y013197D03*
X046785Y013197D03*
X048096Y007602D03*
X048470Y007602D03*
X048844Y007602D03*
X048844Y006579D03*
X048096Y006579D03*
X048096Y027445D03*
X048844Y027445D03*
X048844Y028468D03*
X048470Y028468D03*
X048096Y028468D03*
X047533Y033040D03*
X047159Y033040D03*
X046785Y033040D03*
X046785Y034064D03*
X047533Y034064D03*
X037820Y028468D03*
X037446Y028468D03*
X037072Y028468D03*
X037072Y027445D03*
X037820Y027445D03*
X036510Y033040D03*
X036136Y033040D03*
X035762Y033040D03*
X035762Y034064D03*
X036510Y034064D03*
X026796Y028468D03*
X026422Y028468D03*
X026048Y028468D03*
X026048Y027445D03*
X026796Y027445D03*
X025486Y033040D03*
X025112Y033040D03*
X024738Y033040D03*
X024738Y034064D03*
X025486Y034064D03*
X015773Y028468D03*
X015399Y028468D03*
X015025Y028468D03*
X015025Y027445D03*
X015773Y027445D03*
X014462Y033040D03*
X014088Y033040D03*
X013714Y033040D03*
X013714Y034064D03*
X014462Y034064D03*
X004749Y028468D03*
X004375Y028468D03*
X004001Y028468D03*
X004001Y027445D03*
X004749Y027445D03*
X003439Y033040D03*
X003065Y033040D03*
X002691Y033040D03*
X002691Y034064D03*
X003439Y034064D03*
D13*
X003477Y032406D03*
X002807Y032406D03*
X004035Y029072D03*
X004705Y029072D03*
X013831Y032406D03*
X014500Y032406D03*
X015059Y029072D03*
X015728Y029072D03*
X024855Y032406D03*
X025524Y032406D03*
X026083Y029072D03*
X026752Y029072D03*
X035878Y032406D03*
X036548Y032406D03*
X037106Y029072D03*
X037776Y029072D03*
X046902Y032406D03*
X047571Y032406D03*
X048130Y029072D03*
X048799Y029072D03*
X047571Y011540D03*
X046902Y011540D03*
X048130Y008206D03*
X048799Y008206D03*
X037776Y008206D03*
X037106Y008206D03*
X036548Y011540D03*
X035878Y011540D03*
X026752Y008206D03*
X026083Y008206D03*
X025524Y011540D03*
X024855Y011540D03*
X015728Y008206D03*
X015059Y008206D03*
X014500Y011540D03*
X013831Y011540D03*
X004705Y008206D03*
X004035Y008206D03*
X003477Y011540D03*
X002807Y011540D03*
D14*
X002786Y011106D03*
X002786Y010751D03*
X002779Y010369D03*
X003212Y010369D03*
X003219Y010751D03*
X003219Y011106D03*
X003676Y011073D03*
X003676Y010640D03*
X003942Y008980D03*
X003942Y008631D03*
X004375Y008631D03*
X004375Y008980D03*
X007388Y007946D03*
X007388Y007513D03*
X007617Y008644D03*
X008050Y008644D03*
X007985Y010510D03*
X007552Y010510D03*
X005814Y006364D03*
X005381Y006364D03*
X013803Y010369D03*
X013809Y010751D03*
X013809Y011106D03*
X014243Y011106D03*
X014243Y010751D03*
X014236Y010369D03*
X014700Y010640D03*
X014700Y011073D03*
X014965Y008980D03*
X014965Y008631D03*
X015398Y008631D03*
X015398Y008980D03*
X016405Y006364D03*
X016838Y006364D03*
X018412Y007513D03*
X018412Y007946D03*
X018641Y008644D03*
X019074Y008644D03*
X019009Y010510D03*
X018576Y010510D03*
X024826Y010369D03*
X024833Y010751D03*
X024833Y011106D03*
X025266Y011106D03*
X025266Y010751D03*
X025259Y010369D03*
X025723Y010640D03*
X025723Y011073D03*
X025989Y008980D03*
X025989Y008631D03*
X026422Y008631D03*
X026422Y008980D03*
X029435Y007946D03*
X029435Y007513D03*
X027862Y006364D03*
X027429Y006364D03*
X029664Y008644D03*
X030098Y008644D03*
X030032Y010510D03*
X029599Y010510D03*
X035850Y010369D03*
X035857Y010751D03*
X035857Y011106D03*
X036290Y011106D03*
X036290Y010751D03*
X036283Y010369D03*
X036747Y010640D03*
X036747Y011073D03*
X037013Y008980D03*
X037013Y008631D03*
X037446Y008631D03*
X037446Y008980D03*
X040459Y007946D03*
X040459Y007513D03*
X040688Y008644D03*
X041121Y008644D03*
X041056Y010510D03*
X040623Y010510D03*
X038885Y006364D03*
X038452Y006364D03*
X046874Y010369D03*
X046880Y010751D03*
X046880Y011106D03*
X047313Y011106D03*
X047313Y010751D03*
X047307Y010369D03*
X047770Y010640D03*
X047770Y011073D03*
X048036Y008980D03*
X048036Y008631D03*
X048469Y008631D03*
X048469Y008980D03*
X051483Y007946D03*
X051483Y007513D03*
X049909Y006364D03*
X049476Y006364D03*
X051712Y008644D03*
X052145Y008644D03*
X052080Y010510D03*
X051646Y010510D03*
X049909Y027230D03*
X049476Y027230D03*
X051483Y028379D03*
X051483Y028812D03*
X051712Y029510D03*
X052145Y029510D03*
X052080Y031376D03*
X051646Y031376D03*
X048469Y029846D03*
X048469Y029497D03*
X048036Y029497D03*
X048036Y029846D03*
X047307Y031235D03*
X047313Y031617D03*
X047313Y031972D03*
X046880Y031972D03*
X046880Y031617D03*
X046874Y031235D03*
X047770Y031506D03*
X047770Y031939D03*
X041056Y031376D03*
X040623Y031376D03*
X040688Y029510D03*
X041121Y029510D03*
X040459Y028812D03*
X040459Y028379D03*
X038885Y027230D03*
X038452Y027230D03*
X037446Y029497D03*
X037446Y029846D03*
X037013Y029846D03*
X037013Y029497D03*
X036283Y031235D03*
X036290Y031617D03*
X036290Y031972D03*
X035857Y031972D03*
X035857Y031617D03*
X035850Y031235D03*
X036747Y031506D03*
X036747Y031939D03*
X030032Y031376D03*
X029599Y031376D03*
X029664Y029510D03*
X030098Y029510D03*
X029435Y028812D03*
X029435Y028379D03*
X027862Y027230D03*
X027429Y027230D03*
X026422Y029497D03*
X026422Y029846D03*
X025989Y029846D03*
X025989Y029497D03*
X025259Y031235D03*
X025266Y031617D03*
X025266Y031972D03*
X024833Y031972D03*
X024833Y031617D03*
X024826Y031235D03*
X025723Y031506D03*
X025723Y031939D03*
X019009Y031376D03*
X018576Y031376D03*
X018641Y029510D03*
X019074Y029510D03*
X018412Y028812D03*
X018412Y028379D03*
X016838Y027230D03*
X016405Y027230D03*
X015398Y029497D03*
X015398Y029846D03*
X014965Y029846D03*
X014965Y029497D03*
X014236Y031235D03*
X014243Y031617D03*
X014243Y031972D03*
X013809Y031972D03*
X013809Y031617D03*
X013803Y031235D03*
X014700Y031506D03*
X014700Y031939D03*
X007985Y031376D03*
X007552Y031376D03*
X007617Y029510D03*
X008050Y029510D03*
X007388Y028812D03*
X007388Y028379D03*
X005814Y027230D03*
X005381Y027230D03*
X004375Y029497D03*
X004375Y029846D03*
X003942Y029846D03*
X003942Y029497D03*
X003212Y031235D03*
X003219Y031617D03*
X003219Y031972D03*
X002786Y031972D03*
X002786Y031617D03*
X002779Y031235D03*
X003676Y031506D03*
X003676Y031939D03*
D15*
X004617Y032166D03*
X004617Y033456D03*
X015640Y033456D03*
X015640Y032166D03*
X026664Y032166D03*
X026664Y033456D03*
X037687Y033456D03*
X037687Y032166D03*
X048711Y032166D03*
X048711Y033456D03*
X048711Y012590D03*
X048711Y011300D03*
X037687Y011300D03*
X037687Y012590D03*
X026664Y012590D03*
X026664Y011300D03*
X015640Y011300D03*
X015640Y012590D03*
X004617Y012590D03*
X004617Y011300D03*
D16*
X003248Y008297D03*
X003248Y007628D03*
X003242Y007181D03*
X003242Y006511D03*
X014265Y006511D03*
X014265Y007181D03*
X014271Y007628D03*
X014271Y008297D03*
X025295Y008297D03*
X025295Y007628D03*
X025289Y007181D03*
X025289Y006511D03*
X036313Y006511D03*
X036313Y007181D03*
X036318Y007628D03*
X036318Y008297D03*
X047342Y008297D03*
X047342Y007628D03*
X047336Y007181D03*
X047336Y006511D03*
X047336Y027377D03*
X047336Y028047D03*
X047342Y028494D03*
X047342Y029163D03*
X036318Y029163D03*
X036318Y028494D03*
X036313Y028047D03*
X036313Y027377D03*
X025289Y027377D03*
X025289Y028047D03*
X025295Y028494D03*
X025295Y029163D03*
X014271Y029163D03*
X014271Y028494D03*
X014265Y028047D03*
X014265Y027377D03*
X003242Y027377D03*
X003242Y028047D03*
X003248Y028494D03*
X003248Y029163D03*
D17*
X003235Y004543D03*
X003235Y005362D03*
X004235Y005362D03*
X005235Y005362D03*
X005235Y004543D03*
X004235Y004543D03*
X006235Y004543D03*
X006235Y005362D03*
X007235Y005362D03*
X008235Y005369D03*
X008235Y004543D03*
X007235Y004543D03*
X014258Y004543D03*
X015258Y004543D03*
X015258Y005362D03*
X014258Y005362D03*
X016258Y005362D03*
X016258Y004543D03*
X017258Y004543D03*
X018258Y004543D03*
X018258Y005362D03*
X017258Y005362D03*
X019258Y005369D03*
X019258Y004543D03*
X025282Y004543D03*
X025282Y005362D03*
X026282Y005362D03*
X026282Y004543D03*
X027282Y004543D03*
X028282Y004543D03*
X028282Y005362D03*
X027282Y005362D03*
X029282Y005362D03*
X029282Y004543D03*
X030282Y004543D03*
X030282Y005369D03*
X036305Y005362D03*
X037305Y005362D03*
X037305Y004543D03*
X036305Y004543D03*
X038305Y004543D03*
X038305Y005362D03*
X039305Y005362D03*
X039305Y004543D03*
X040305Y004543D03*
X041305Y004543D03*
X041305Y005369D03*
X040305Y005362D03*
X047329Y005362D03*
X047329Y004543D03*
X048329Y004543D03*
X048329Y005362D03*
X049329Y005362D03*
X050329Y005362D03*
X050329Y004543D03*
X049329Y004543D03*
X051329Y004543D03*
X051329Y005362D03*
X052329Y005369D03*
X052329Y004543D03*
X052329Y025409D03*
X052329Y026236D03*
X051329Y026228D03*
X051329Y025409D03*
X050329Y025409D03*
X049329Y025409D03*
X049329Y026228D03*
X050329Y026228D03*
X048329Y026228D03*
X048329Y025409D03*
X047329Y025409D03*
X047329Y026228D03*
X041305Y026236D03*
X040305Y026228D03*
X040305Y025409D03*
X041305Y025409D03*
X039305Y025409D03*
X039305Y026228D03*
X038305Y026228D03*
X038305Y025409D03*
X037305Y025409D03*
X036305Y025409D03*
X036305Y026228D03*
X037305Y026228D03*
X030282Y026236D03*
X030282Y025409D03*
X029282Y025409D03*
X029282Y026228D03*
X028282Y026228D03*
X027282Y026228D03*
X027282Y025409D03*
X028282Y025409D03*
X026282Y025409D03*
X026282Y026228D03*
X025282Y026228D03*
X025282Y025409D03*
X019258Y025409D03*
X019258Y026236D03*
X018258Y026228D03*
X017258Y026228D03*
X017258Y025409D03*
X018258Y025409D03*
X016258Y025409D03*
X016258Y026228D03*
X015258Y026228D03*
X014258Y026228D03*
X014258Y025409D03*
X015258Y025409D03*
X008235Y025409D03*
X007235Y025409D03*
X007235Y026228D03*
X008235Y026236D03*
X006235Y026228D03*
X006235Y025409D03*
X005235Y025409D03*
X004235Y025409D03*
X004235Y026228D03*
X005235Y026228D03*
X003235Y026228D03*
X003235Y025409D03*
M02*
