G75*
%MOIN*%
%OFA0B0*%
%FSLAX24Y24*%
%IPPOS*%
%LPD*%
%AMOC8*
5,1,8,0,0,1.08239X$1,22.5*
%
%ADD10C,0.0749*%
%ADD11C,0.0150*%
%ADD12C,0.1181*%
%ADD13C,0.0848*%
%ADD14C,0.0556*%
%ADD15C,0.0516*%
%ADD16R,0.0631X0.1261*%
%ADD17OC8,0.0740*%
%ADD18C,0.0103*%
%ADD19C,0.0634*%
%ADD20OC8,0.1005*%
%ADD21C,0.0397*%
%ADD22C,0.0437*%
D10*
X001084Y002510D03*
X001084Y040305D03*
X058171Y040305D03*
X058171Y002510D03*
D11*
X056390Y005580D02*
X055916Y005580D01*
X055798Y005699D01*
X055798Y005936D01*
X055916Y006054D01*
X056390Y006054D01*
X056508Y005936D01*
X056508Y005699D01*
X056390Y005580D01*
X056508Y006372D02*
X056508Y006727D01*
X056390Y006846D01*
X056153Y006846D01*
X056035Y006727D01*
X056035Y006372D01*
X056745Y006372D01*
X056390Y007164D02*
X056153Y007164D01*
X056035Y007282D01*
X056035Y007519D01*
X056153Y007638D01*
X056272Y007638D01*
X056272Y007164D01*
X056390Y007164D02*
X056508Y007282D01*
X056508Y007519D01*
X056508Y007956D02*
X056035Y007956D01*
X056035Y008311D01*
X056153Y008430D01*
X056508Y008430D01*
X056390Y008748D02*
X055916Y008748D01*
X055798Y008866D01*
X055798Y009103D01*
X055916Y009221D01*
X056390Y009221D01*
X056508Y009103D01*
X056508Y008866D01*
X056390Y008748D01*
X056508Y009540D02*
X056035Y009540D01*
X056035Y009895D01*
X056153Y010013D01*
X056508Y010013D01*
X056390Y010331D02*
X055916Y010331D01*
X055798Y010450D01*
X055798Y010687D01*
X055916Y010805D01*
X056390Y010805D01*
X056508Y010687D01*
X056508Y010450D01*
X056390Y010331D01*
X056153Y011123D02*
X056153Y011360D01*
X055916Y011242D02*
X055798Y011360D01*
X055916Y011242D02*
X056508Y011242D01*
X056508Y011770D02*
X055916Y011770D01*
X055798Y011888D01*
X056153Y011888D02*
X056153Y011651D01*
X045722Y006372D02*
X045011Y006372D01*
X045011Y006727D01*
X045130Y006846D01*
X045366Y006846D01*
X045485Y006727D01*
X045485Y006372D01*
X045366Y006054D02*
X044893Y006054D01*
X044774Y005936D01*
X044774Y005699D01*
X044893Y005580D01*
X045366Y005580D01*
X045485Y005699D01*
X045485Y005936D01*
X045366Y006054D01*
X045366Y007164D02*
X045130Y007164D01*
X045011Y007282D01*
X045011Y007519D01*
X045130Y007638D01*
X045248Y007638D01*
X045248Y007164D01*
X045366Y007164D02*
X045485Y007282D01*
X045485Y007519D01*
X045485Y007956D02*
X045011Y007956D01*
X045011Y008311D01*
X045130Y008430D01*
X045485Y008430D01*
X045366Y008748D02*
X044893Y008748D01*
X044774Y008866D01*
X044774Y009103D01*
X044893Y009221D01*
X045366Y009221D01*
X045485Y009103D01*
X045485Y008866D01*
X045366Y008748D01*
X045485Y009540D02*
X045011Y009540D01*
X045011Y009895D01*
X045130Y010013D01*
X045485Y010013D01*
X045366Y010331D02*
X044893Y010331D01*
X044774Y010450D01*
X044774Y010687D01*
X044893Y010805D01*
X045366Y010805D01*
X045485Y010687D01*
X045485Y010450D01*
X045366Y010331D01*
X045130Y011123D02*
X045130Y011360D01*
X044893Y011242D02*
X045485Y011242D01*
X045485Y011770D02*
X044893Y011770D01*
X044774Y011888D01*
X045130Y011888D02*
X045130Y011651D01*
X044774Y011360D02*
X044893Y011242D01*
X034461Y011242D02*
X033869Y011242D01*
X033751Y011360D01*
X034106Y011360D02*
X034106Y011123D01*
X034343Y010805D02*
X033869Y010805D01*
X033751Y010687D01*
X033751Y010450D01*
X033869Y010331D01*
X034343Y010331D01*
X034461Y010450D01*
X034461Y010687D01*
X034343Y010805D01*
X034461Y010013D02*
X034106Y010013D01*
X033987Y009895D01*
X033987Y009540D01*
X034461Y009540D01*
X034343Y009221D02*
X033869Y009221D01*
X033751Y009103D01*
X033751Y008866D01*
X033869Y008748D01*
X034343Y008748D01*
X034461Y008866D01*
X034461Y009103D01*
X034343Y009221D01*
X034461Y008430D02*
X034106Y008430D01*
X033987Y008311D01*
X033987Y007956D01*
X034461Y007956D01*
X034224Y007638D02*
X034224Y007164D01*
X034106Y007164D02*
X033987Y007282D01*
X033987Y007519D01*
X034106Y007638D01*
X034224Y007638D01*
X034461Y007519D02*
X034461Y007282D01*
X034343Y007164D01*
X034106Y007164D01*
X034106Y006846D02*
X034343Y006846D01*
X034461Y006727D01*
X034461Y006372D01*
X034698Y006372D02*
X033987Y006372D01*
X033987Y006727D01*
X034106Y006846D01*
X034343Y006054D02*
X033869Y006054D01*
X033751Y005936D01*
X033751Y005699D01*
X033869Y005580D01*
X034343Y005580D01*
X034461Y005699D01*
X034461Y005936D01*
X034343Y006054D01*
X034106Y011651D02*
X034106Y011888D01*
X033869Y011770D02*
X033751Y011888D01*
X033869Y011770D02*
X034461Y011770D01*
X023438Y011770D02*
X022845Y011770D01*
X022727Y011888D01*
X023082Y011888D02*
X023082Y011651D01*
X023082Y011360D02*
X023082Y011123D01*
X022845Y011242D02*
X022727Y011360D01*
X022845Y011242D02*
X023438Y011242D01*
X023319Y010805D02*
X022845Y010805D01*
X022727Y010687D01*
X022727Y010450D01*
X022845Y010331D01*
X023319Y010331D01*
X023438Y010450D01*
X023438Y010687D01*
X023319Y010805D01*
X023438Y010013D02*
X023082Y010013D01*
X022964Y009895D01*
X022964Y009540D01*
X023438Y009540D01*
X023319Y009221D02*
X022845Y009221D01*
X022727Y009103D01*
X022727Y008866D01*
X022845Y008748D01*
X023319Y008748D01*
X023438Y008866D01*
X023438Y009103D01*
X023319Y009221D01*
X023438Y008430D02*
X023082Y008430D01*
X022964Y008311D01*
X022964Y007956D01*
X023438Y007956D01*
X023201Y007638D02*
X023201Y007164D01*
X023319Y007164D02*
X023082Y007164D01*
X022964Y007282D01*
X022964Y007519D01*
X023082Y007638D01*
X023201Y007638D01*
X023438Y007519D02*
X023438Y007282D01*
X023319Y007164D01*
X023319Y006846D02*
X023438Y006727D01*
X023438Y006372D01*
X023674Y006372D02*
X022964Y006372D01*
X022964Y006727D01*
X023082Y006846D01*
X023319Y006846D01*
X023319Y006054D02*
X022845Y006054D01*
X022727Y005936D01*
X022727Y005699D01*
X022845Y005580D01*
X023319Y005580D01*
X023438Y005699D01*
X023438Y005936D01*
X023319Y006054D01*
X012651Y006372D02*
X011940Y006372D01*
X011940Y006727D01*
X012059Y006846D01*
X012296Y006846D01*
X012414Y006727D01*
X012414Y006372D01*
X012296Y006054D02*
X011822Y006054D01*
X011703Y005936D01*
X011703Y005699D01*
X011822Y005580D01*
X012296Y005580D01*
X012414Y005699D01*
X012414Y005936D01*
X012296Y006054D01*
X012296Y007164D02*
X012059Y007164D01*
X011940Y007282D01*
X011940Y007519D01*
X012059Y007638D01*
X012177Y007638D01*
X012177Y007164D01*
X012296Y007164D02*
X012414Y007282D01*
X012414Y007519D01*
X012414Y007956D02*
X011940Y007956D01*
X011940Y008311D01*
X012059Y008430D01*
X012414Y008430D01*
X012296Y008748D02*
X011822Y008748D01*
X011703Y008866D01*
X011703Y009103D01*
X011822Y009221D01*
X012296Y009221D01*
X012414Y009103D01*
X012414Y008866D01*
X012296Y008748D01*
X012414Y009540D02*
X011940Y009540D01*
X011940Y009895D01*
X012059Y010013D01*
X012414Y010013D01*
X012296Y010331D02*
X011822Y010331D01*
X011703Y010450D01*
X011703Y010687D01*
X011822Y010805D01*
X012296Y010805D01*
X012414Y010687D01*
X012414Y010450D01*
X012296Y010331D01*
X012059Y011123D02*
X012059Y011360D01*
X011822Y011242D02*
X012414Y011242D01*
X012414Y011770D02*
X011822Y011770D01*
X011703Y011888D01*
X012059Y011888D02*
X012059Y011651D01*
X011703Y011360D02*
X011822Y011242D01*
X011822Y026446D02*
X012296Y026446D01*
X012414Y026565D01*
X012414Y026802D01*
X012296Y026920D01*
X011822Y026920D01*
X011703Y026802D01*
X011703Y026565D01*
X011822Y026446D01*
X011940Y027238D02*
X011940Y027594D01*
X012059Y027712D01*
X012296Y027712D01*
X012414Y027594D01*
X012414Y027238D01*
X012651Y027238D02*
X011940Y027238D01*
X012059Y028030D02*
X011940Y028149D01*
X011940Y028385D01*
X012059Y028504D01*
X012177Y028504D01*
X012177Y028030D01*
X012059Y028030D02*
X012296Y028030D01*
X012414Y028149D01*
X012414Y028385D01*
X012414Y028822D02*
X011940Y028822D01*
X011940Y029177D01*
X012059Y029296D01*
X012414Y029296D01*
X012296Y029614D02*
X012414Y029732D01*
X012414Y029969D01*
X012296Y030088D01*
X011822Y030088D01*
X011703Y029969D01*
X011703Y029732D01*
X011822Y029614D01*
X012296Y029614D01*
X012414Y030406D02*
X011940Y030406D01*
X011940Y030761D01*
X012059Y030879D01*
X012414Y030879D01*
X012296Y031198D02*
X011822Y031198D01*
X011703Y031316D01*
X011703Y031553D01*
X011822Y031671D01*
X012296Y031671D01*
X012414Y031553D01*
X012414Y031316D01*
X012296Y031198D01*
X012059Y031989D02*
X012059Y032226D01*
X011822Y032108D02*
X012414Y032108D01*
X012414Y032636D02*
X011822Y032636D01*
X011703Y032754D01*
X012059Y032754D02*
X012059Y032517D01*
X011703Y032226D02*
X011822Y032108D01*
X022727Y032226D02*
X022845Y032108D01*
X023438Y032108D01*
X023082Y031989D02*
X023082Y032226D01*
X023082Y032517D02*
X023082Y032754D01*
X022845Y032636D02*
X022727Y032754D01*
X022845Y032636D02*
X023438Y032636D01*
X023319Y031671D02*
X022845Y031671D01*
X022727Y031553D01*
X022727Y031316D01*
X022845Y031198D01*
X023319Y031198D01*
X023438Y031316D01*
X023438Y031553D01*
X023319Y031671D01*
X023438Y030879D02*
X023082Y030879D01*
X022964Y030761D01*
X022964Y030406D01*
X023438Y030406D01*
X023319Y030088D02*
X022845Y030088D01*
X022727Y029969D01*
X022727Y029732D01*
X022845Y029614D01*
X023319Y029614D01*
X023438Y029732D01*
X023438Y029969D01*
X023319Y030088D01*
X023438Y029296D02*
X023082Y029296D01*
X022964Y029177D01*
X022964Y028822D01*
X023438Y028822D01*
X023201Y028504D02*
X023201Y028030D01*
X023319Y028030D02*
X023082Y028030D01*
X022964Y028149D01*
X022964Y028385D01*
X023082Y028504D01*
X023201Y028504D01*
X023438Y028385D02*
X023438Y028149D01*
X023319Y028030D01*
X023319Y027712D02*
X023082Y027712D01*
X022964Y027594D01*
X022964Y027238D01*
X023674Y027238D01*
X023438Y027238D02*
X023438Y027594D01*
X023319Y027712D01*
X023319Y026920D02*
X022845Y026920D01*
X022727Y026802D01*
X022727Y026565D01*
X022845Y026446D01*
X023319Y026446D01*
X023438Y026565D01*
X023438Y026802D01*
X023319Y026920D01*
X033751Y026802D02*
X033751Y026565D01*
X033869Y026446D01*
X034343Y026446D01*
X034461Y026565D01*
X034461Y026802D01*
X034343Y026920D01*
X033869Y026920D01*
X033751Y026802D01*
X033987Y027238D02*
X033987Y027594D01*
X034106Y027712D01*
X034343Y027712D01*
X034461Y027594D01*
X034461Y027238D01*
X034698Y027238D02*
X033987Y027238D01*
X034106Y028030D02*
X033987Y028149D01*
X033987Y028385D01*
X034106Y028504D01*
X034224Y028504D01*
X034224Y028030D01*
X034106Y028030D02*
X034343Y028030D01*
X034461Y028149D01*
X034461Y028385D01*
X034461Y028822D02*
X033987Y028822D01*
X033987Y029177D01*
X034106Y029296D01*
X034461Y029296D01*
X034343Y029614D02*
X034461Y029732D01*
X034461Y029969D01*
X034343Y030088D01*
X033869Y030088D01*
X033751Y029969D01*
X033751Y029732D01*
X033869Y029614D01*
X034343Y029614D01*
X034461Y030406D02*
X033987Y030406D01*
X033987Y030761D01*
X034106Y030879D01*
X034461Y030879D01*
X034343Y031198D02*
X034461Y031316D01*
X034461Y031553D01*
X034343Y031671D01*
X033869Y031671D01*
X033751Y031553D01*
X033751Y031316D01*
X033869Y031198D01*
X034343Y031198D01*
X034106Y031989D02*
X034106Y032226D01*
X033869Y032108D02*
X033751Y032226D01*
X033869Y032108D02*
X034461Y032108D01*
X034461Y032636D02*
X033869Y032636D01*
X033751Y032754D01*
X034106Y032754D02*
X034106Y032517D01*
X044774Y032754D02*
X044893Y032636D01*
X045485Y032636D01*
X045130Y032517D02*
X045130Y032754D01*
X045130Y032226D02*
X045130Y031989D01*
X044893Y032108D02*
X045485Y032108D01*
X045366Y031671D02*
X044893Y031671D01*
X044774Y031553D01*
X044774Y031316D01*
X044893Y031198D01*
X045366Y031198D01*
X045485Y031316D01*
X045485Y031553D01*
X045366Y031671D01*
X044893Y032108D02*
X044774Y032226D01*
X045130Y030879D02*
X045011Y030761D01*
X045011Y030406D01*
X045485Y030406D01*
X045366Y030088D02*
X044893Y030088D01*
X044774Y029969D01*
X044774Y029732D01*
X044893Y029614D01*
X045366Y029614D01*
X045485Y029732D01*
X045485Y029969D01*
X045366Y030088D01*
X045485Y029296D02*
X045130Y029296D01*
X045011Y029177D01*
X045011Y028822D01*
X045485Y028822D01*
X045248Y028504D02*
X045248Y028030D01*
X045366Y028030D02*
X045130Y028030D01*
X045011Y028149D01*
X045011Y028385D01*
X045130Y028504D01*
X045248Y028504D01*
X045485Y028385D02*
X045485Y028149D01*
X045366Y028030D01*
X045366Y027712D02*
X045485Y027594D01*
X045485Y027238D01*
X045722Y027238D02*
X045011Y027238D01*
X045011Y027594D01*
X045130Y027712D01*
X045366Y027712D01*
X045366Y026920D02*
X044893Y026920D01*
X044774Y026802D01*
X044774Y026565D01*
X044893Y026446D01*
X045366Y026446D01*
X045485Y026565D01*
X045485Y026802D01*
X045366Y026920D01*
X045485Y030879D02*
X045130Y030879D01*
X055798Y031316D02*
X055916Y031198D01*
X056390Y031198D01*
X056508Y031316D01*
X056508Y031553D01*
X056390Y031671D01*
X055916Y031671D01*
X055798Y031553D01*
X055798Y031316D01*
X056153Y030879D02*
X056508Y030879D01*
X056153Y030879D02*
X056035Y030761D01*
X056035Y030406D01*
X056508Y030406D01*
X056390Y030088D02*
X055916Y030088D01*
X055798Y029969D01*
X055798Y029732D01*
X055916Y029614D01*
X056390Y029614D01*
X056508Y029732D01*
X056508Y029969D01*
X056390Y030088D01*
X056508Y029296D02*
X056153Y029296D01*
X056035Y029177D01*
X056035Y028822D01*
X056508Y028822D01*
X056272Y028504D02*
X056272Y028030D01*
X056390Y028030D02*
X056153Y028030D01*
X056035Y028149D01*
X056035Y028385D01*
X056153Y028504D01*
X056272Y028504D01*
X056508Y028385D02*
X056508Y028149D01*
X056390Y028030D01*
X056390Y027712D02*
X056153Y027712D01*
X056035Y027594D01*
X056035Y027238D01*
X056745Y027238D01*
X056508Y027238D02*
X056508Y027594D01*
X056390Y027712D01*
X056390Y026920D02*
X055916Y026920D01*
X055798Y026802D01*
X055798Y026565D01*
X055916Y026446D01*
X056390Y026446D01*
X056508Y026565D01*
X056508Y026802D01*
X056390Y026920D01*
X056153Y031989D02*
X056153Y032226D01*
X055916Y032108D02*
X055798Y032226D01*
X055916Y032108D02*
X056508Y032108D01*
X056508Y032636D02*
X055916Y032636D01*
X055798Y032754D01*
X056153Y032754D02*
X056153Y032517D01*
D12*
X058171Y037353D03*
X058171Y005463D03*
X001084Y005463D03*
X001084Y037353D03*
D13*
X006368Y036675D03*
X009360Y035675D03*
X009360Y030675D03*
X006368Y030675D03*
X017391Y030675D03*
X020383Y030675D03*
X020383Y035675D03*
X017391Y036675D03*
X028415Y036675D03*
X031407Y035675D03*
X031407Y030675D03*
X028415Y030675D03*
X039439Y030675D03*
X042431Y030675D03*
X042431Y035675D03*
X039439Y036675D03*
X050462Y036675D03*
X053454Y035675D03*
X053454Y030675D03*
X050462Y030675D03*
X050462Y015809D03*
X053454Y014809D03*
X053454Y009809D03*
X050462Y009809D03*
X042431Y009809D03*
X039439Y009809D03*
X042431Y014809D03*
X039439Y015809D03*
X031407Y014809D03*
X028415Y015809D03*
X020383Y014809D03*
X017391Y015809D03*
X017391Y009809D03*
X020383Y009809D03*
X028415Y009809D03*
X031407Y009809D03*
X009360Y009809D03*
X006368Y009809D03*
X009360Y014809D03*
X006368Y015809D03*
D14*
X009329Y018565D03*
X011495Y018565D03*
X020353Y018565D03*
X022518Y018565D03*
X031377Y018565D03*
X033542Y018565D03*
X042400Y018565D03*
X044566Y018565D03*
X053424Y018565D03*
X055589Y018565D03*
X048765Y010455D03*
X047499Y008947D03*
X037741Y010455D03*
X036476Y008947D03*
X026717Y010455D03*
X025452Y008947D03*
X015694Y010455D03*
X014428Y008947D03*
X004670Y010455D03*
X003405Y008947D03*
X003405Y029813D03*
X004670Y031321D03*
X014428Y029813D03*
X015694Y031321D03*
X025452Y029813D03*
X026717Y031321D03*
X036476Y029813D03*
X037741Y031321D03*
X047499Y029813D03*
X048765Y031321D03*
X044566Y039431D03*
X042400Y039431D03*
X033542Y039431D03*
X031377Y039431D03*
X022518Y039431D03*
X020353Y039431D03*
X011495Y039431D03*
X009329Y039431D03*
X053424Y039431D03*
X055589Y039431D03*
D15*
X055386Y037769D03*
X054386Y037769D03*
X052334Y038951D03*
X051834Y039817D03*
X050762Y039649D03*
X049762Y039649D03*
X048617Y038318D03*
X047864Y036559D03*
X046864Y036559D03*
X044362Y037769D03*
X043362Y037769D03*
X041311Y038951D03*
X040811Y039817D03*
X039739Y039649D03*
X038739Y039649D03*
X037593Y038318D03*
X036841Y036559D03*
X035841Y036559D03*
X033339Y037769D03*
X032339Y037769D03*
X030287Y038951D03*
X029787Y039817D03*
X028715Y039649D03*
X027715Y039649D03*
X026570Y038318D03*
X025817Y036559D03*
X024817Y036559D03*
X022315Y037769D03*
X021315Y037769D03*
X019263Y038951D03*
X018763Y039817D03*
X017691Y039649D03*
X016691Y039649D03*
X015546Y038318D03*
X014794Y036559D03*
X013794Y036559D03*
X011291Y037769D03*
X010291Y037769D03*
X008240Y038951D03*
X007740Y039817D03*
X006668Y039649D03*
X005668Y039649D03*
X004522Y038318D03*
X003770Y036559D03*
X002770Y036559D03*
X004616Y034265D03*
X002747Y028715D03*
X002747Y027715D03*
X013770Y027715D03*
X013770Y028715D03*
X015639Y034265D03*
X024794Y028715D03*
X024794Y027715D03*
X026663Y034265D03*
X035818Y028715D03*
X035818Y027715D03*
X037687Y034265D03*
X046841Y028715D03*
X046841Y027715D03*
X048710Y034265D03*
X049762Y018783D03*
X050762Y018783D03*
X051834Y018950D03*
X052334Y018084D03*
X054386Y016903D03*
X055386Y016903D03*
X048617Y017452D03*
X047864Y015693D03*
X046864Y015693D03*
X044362Y016903D03*
X043362Y016903D03*
X041311Y018084D03*
X040811Y018950D03*
X039739Y018783D03*
X038739Y018783D03*
X037593Y017452D03*
X036841Y015693D03*
X035841Y015693D03*
X033339Y016903D03*
X032339Y016903D03*
X030287Y018084D03*
X029787Y018950D03*
X028715Y018783D03*
X027715Y018783D03*
X026570Y017452D03*
X025817Y015693D03*
X024817Y015693D03*
X022315Y016903D03*
X021315Y016903D03*
X019263Y018084D03*
X018763Y018950D03*
X017691Y018783D03*
X016691Y018783D03*
X015546Y017452D03*
X014794Y015693D03*
X013794Y015693D03*
X011291Y016903D03*
X010291Y016903D03*
X008240Y018084D03*
X007740Y018950D03*
X006668Y018783D03*
X005668Y018783D03*
X004522Y017452D03*
X003770Y015693D03*
X002770Y015693D03*
X004616Y013399D03*
X002747Y007848D03*
X002747Y006848D03*
X013770Y006848D03*
X013770Y007848D03*
X015639Y013399D03*
X024794Y007848D03*
X024794Y006848D03*
X026663Y013399D03*
X035818Y007848D03*
X035818Y006848D03*
X037687Y013399D03*
X046841Y007848D03*
X046841Y006848D03*
X048710Y013399D03*
D16*
X048949Y007198D03*
X047807Y007198D03*
X037925Y007198D03*
X036783Y007198D03*
X026901Y007198D03*
X025760Y007198D03*
X015878Y007198D03*
X014736Y007198D03*
X004854Y007198D03*
X003712Y007198D03*
X003712Y028065D03*
X004854Y028065D03*
X014736Y028065D03*
X015878Y028065D03*
X025760Y028065D03*
X026901Y028065D03*
X036783Y028065D03*
X037925Y028065D03*
X047807Y028065D03*
X048949Y028065D03*
D17*
X049960Y028045D03*
X049960Y029045D03*
X038936Y029045D03*
X038936Y028045D03*
X027913Y028045D03*
X027913Y029045D03*
X016889Y029045D03*
X016889Y028045D03*
X005865Y028045D03*
X005865Y029045D03*
X005865Y008179D03*
X005865Y007179D03*
X016889Y007179D03*
X016889Y008179D03*
X027913Y008179D03*
X027913Y007179D03*
X038936Y007179D03*
X038936Y008179D03*
X049960Y008179D03*
X049960Y007179D03*
D18*
X047651Y013935D02*
X047703Y013883D01*
X047539Y013839D01*
X047392Y013924D01*
X047348Y014088D01*
X047433Y014235D01*
X047597Y014279D01*
X047744Y014194D01*
X047788Y014030D01*
X047703Y013883D01*
X047653Y013949D01*
X047550Y013921D01*
X047458Y013974D01*
X047430Y014077D01*
X047483Y014169D01*
X047586Y014197D01*
X047678Y014144D01*
X047706Y014041D01*
X047653Y013949D01*
X047601Y014016D01*
X047561Y014005D01*
X047525Y014026D01*
X047514Y014066D01*
X047535Y014102D01*
X047575Y014113D01*
X047611Y014092D01*
X047622Y014052D01*
X047601Y014016D01*
X047489Y017805D02*
X047541Y017753D01*
X047386Y017681D01*
X047227Y017739D01*
X047155Y017894D01*
X047213Y018053D01*
X047368Y018125D01*
X047527Y018067D01*
X047599Y017912D01*
X047541Y017753D01*
X047480Y017810D01*
X047382Y017764D01*
X047284Y017800D01*
X047238Y017898D01*
X047274Y017996D01*
X047372Y018042D01*
X047470Y018006D01*
X047516Y017908D01*
X047480Y017810D01*
X047417Y017866D01*
X047379Y017848D01*
X047340Y017863D01*
X047322Y017901D01*
X047337Y017940D01*
X047375Y017958D01*
X047414Y017943D01*
X047432Y017905D01*
X047417Y017866D01*
X036466Y017805D02*
X036518Y017753D01*
X036363Y017681D01*
X036204Y017739D01*
X036132Y017894D01*
X036190Y018053D01*
X036345Y018125D01*
X036504Y018067D01*
X036576Y017912D01*
X036518Y017753D01*
X036457Y017810D01*
X036359Y017764D01*
X036261Y017800D01*
X036215Y017898D01*
X036251Y017996D01*
X036349Y018042D01*
X036447Y018006D01*
X036493Y017908D01*
X036457Y017810D01*
X036394Y017866D01*
X036356Y017848D01*
X036317Y017863D01*
X036299Y017901D01*
X036314Y017940D01*
X036352Y017958D01*
X036391Y017943D01*
X036409Y017905D01*
X036394Y017866D01*
X036627Y013935D02*
X036679Y013883D01*
X036515Y013839D01*
X036368Y013924D01*
X036324Y014088D01*
X036409Y014235D01*
X036573Y014279D01*
X036720Y014194D01*
X036764Y014030D01*
X036679Y013883D01*
X036629Y013949D01*
X036526Y013921D01*
X036434Y013974D01*
X036406Y014077D01*
X036459Y014169D01*
X036562Y014197D01*
X036654Y014144D01*
X036682Y014041D01*
X036629Y013949D01*
X036577Y014016D01*
X036537Y014005D01*
X036501Y014026D01*
X036490Y014066D01*
X036511Y014102D01*
X036551Y014113D01*
X036587Y014092D01*
X036598Y014052D01*
X036577Y014016D01*
X025604Y013935D02*
X025656Y013883D01*
X025492Y013839D01*
X025345Y013924D01*
X025301Y014088D01*
X025386Y014235D01*
X025550Y014279D01*
X025697Y014194D01*
X025741Y014030D01*
X025656Y013883D01*
X025606Y013949D01*
X025503Y013921D01*
X025411Y013974D01*
X025383Y014077D01*
X025436Y014169D01*
X025539Y014197D01*
X025631Y014144D01*
X025659Y014041D01*
X025606Y013949D01*
X025554Y014016D01*
X025514Y014005D01*
X025478Y014026D01*
X025467Y014066D01*
X025488Y014102D01*
X025528Y014113D01*
X025564Y014092D01*
X025575Y014052D01*
X025554Y014016D01*
X025442Y017805D02*
X025494Y017753D01*
X025339Y017681D01*
X025180Y017739D01*
X025108Y017894D01*
X025166Y018053D01*
X025321Y018125D01*
X025480Y018067D01*
X025552Y017912D01*
X025494Y017753D01*
X025433Y017810D01*
X025335Y017764D01*
X025237Y017800D01*
X025191Y017898D01*
X025227Y017996D01*
X025325Y018042D01*
X025423Y018006D01*
X025469Y017908D01*
X025433Y017810D01*
X025370Y017866D01*
X025332Y017848D01*
X025293Y017863D01*
X025275Y017901D01*
X025290Y017940D01*
X025328Y017958D01*
X025367Y017943D01*
X025385Y017905D01*
X025370Y017866D01*
X014419Y017805D02*
X014471Y017753D01*
X014316Y017681D01*
X014157Y017739D01*
X014085Y017894D01*
X014143Y018053D01*
X014298Y018125D01*
X014457Y018067D01*
X014529Y017912D01*
X014471Y017753D01*
X014410Y017810D01*
X014312Y017764D01*
X014214Y017800D01*
X014168Y017898D01*
X014204Y017996D01*
X014302Y018042D01*
X014400Y018006D01*
X014446Y017908D01*
X014410Y017810D01*
X014347Y017866D01*
X014309Y017848D01*
X014270Y017863D01*
X014252Y017901D01*
X014267Y017940D01*
X014305Y017958D01*
X014344Y017943D01*
X014362Y017905D01*
X014347Y017866D01*
X014580Y013935D02*
X014632Y013883D01*
X014468Y013839D01*
X014321Y013924D01*
X014277Y014088D01*
X014362Y014235D01*
X014526Y014279D01*
X014673Y014194D01*
X014717Y014030D01*
X014632Y013883D01*
X014582Y013949D01*
X014479Y013921D01*
X014387Y013974D01*
X014359Y014077D01*
X014412Y014169D01*
X014515Y014197D01*
X014607Y014144D01*
X014635Y014041D01*
X014582Y013949D01*
X014530Y014016D01*
X014490Y014005D01*
X014454Y014026D01*
X014443Y014066D01*
X014464Y014102D01*
X014504Y014113D01*
X014540Y014092D01*
X014551Y014052D01*
X014530Y014016D01*
X003556Y013935D02*
X003608Y013883D01*
X003444Y013839D01*
X003297Y013924D01*
X003253Y014088D01*
X003338Y014235D01*
X003502Y014279D01*
X003649Y014194D01*
X003693Y014030D01*
X003608Y013883D01*
X003558Y013949D01*
X003455Y013921D01*
X003363Y013974D01*
X003335Y014077D01*
X003388Y014169D01*
X003491Y014197D01*
X003583Y014144D01*
X003611Y014041D01*
X003558Y013949D01*
X003506Y014016D01*
X003466Y014005D01*
X003430Y014026D01*
X003419Y014066D01*
X003440Y014102D01*
X003480Y014113D01*
X003516Y014092D01*
X003527Y014052D01*
X003506Y014016D01*
X003395Y017805D02*
X003447Y017753D01*
X003292Y017681D01*
X003133Y017739D01*
X003061Y017894D01*
X003119Y018053D01*
X003274Y018125D01*
X003433Y018067D01*
X003505Y017912D01*
X003447Y017753D01*
X003386Y017810D01*
X003288Y017764D01*
X003190Y017800D01*
X003144Y017898D01*
X003180Y017996D01*
X003278Y018042D01*
X003376Y018006D01*
X003422Y017908D01*
X003386Y017810D01*
X003323Y017866D01*
X003285Y017848D01*
X003246Y017863D01*
X003228Y017901D01*
X003243Y017940D01*
X003281Y017958D01*
X003320Y017943D01*
X003338Y017905D01*
X003323Y017866D01*
X003556Y034801D02*
X003608Y034749D01*
X003444Y034705D01*
X003297Y034790D01*
X003253Y034954D01*
X003338Y035101D01*
X003502Y035145D01*
X003649Y035060D01*
X003693Y034896D01*
X003608Y034749D01*
X003558Y034815D01*
X003455Y034787D01*
X003363Y034840D01*
X003335Y034943D01*
X003388Y035035D01*
X003491Y035063D01*
X003583Y035010D01*
X003611Y034907D01*
X003558Y034815D01*
X003506Y034882D01*
X003466Y034871D01*
X003430Y034892D01*
X003419Y034932D01*
X003440Y034968D01*
X003480Y034979D01*
X003516Y034958D01*
X003527Y034918D01*
X003506Y034882D01*
X003395Y038671D02*
X003447Y038619D01*
X003292Y038547D01*
X003133Y038605D01*
X003061Y038760D01*
X003119Y038919D01*
X003274Y038991D01*
X003433Y038933D01*
X003505Y038778D01*
X003447Y038619D01*
X003386Y038676D01*
X003288Y038630D01*
X003190Y038666D01*
X003144Y038764D01*
X003180Y038862D01*
X003278Y038908D01*
X003376Y038872D01*
X003422Y038774D01*
X003386Y038676D01*
X003323Y038732D01*
X003285Y038714D01*
X003246Y038729D01*
X003228Y038767D01*
X003243Y038806D01*
X003281Y038824D01*
X003320Y038809D01*
X003338Y038771D01*
X003323Y038732D01*
X014419Y038671D02*
X014471Y038619D01*
X014316Y038547D01*
X014157Y038605D01*
X014085Y038760D01*
X014143Y038919D01*
X014298Y038991D01*
X014457Y038933D01*
X014529Y038778D01*
X014471Y038619D01*
X014410Y038676D01*
X014312Y038630D01*
X014214Y038666D01*
X014168Y038764D01*
X014204Y038862D01*
X014302Y038908D01*
X014400Y038872D01*
X014446Y038774D01*
X014410Y038676D01*
X014347Y038732D01*
X014309Y038714D01*
X014270Y038729D01*
X014252Y038767D01*
X014267Y038806D01*
X014305Y038824D01*
X014344Y038809D01*
X014362Y038771D01*
X014347Y038732D01*
X014580Y034801D02*
X014632Y034749D01*
X014468Y034705D01*
X014321Y034790D01*
X014277Y034954D01*
X014362Y035101D01*
X014526Y035145D01*
X014673Y035060D01*
X014717Y034896D01*
X014632Y034749D01*
X014582Y034815D01*
X014479Y034787D01*
X014387Y034840D01*
X014359Y034943D01*
X014412Y035035D01*
X014515Y035063D01*
X014607Y035010D01*
X014635Y034907D01*
X014582Y034815D01*
X014530Y034882D01*
X014490Y034871D01*
X014454Y034892D01*
X014443Y034932D01*
X014464Y034968D01*
X014504Y034979D01*
X014540Y034958D01*
X014551Y034918D01*
X014530Y034882D01*
X025442Y038671D02*
X025494Y038619D01*
X025339Y038547D01*
X025180Y038605D01*
X025108Y038760D01*
X025166Y038919D01*
X025321Y038991D01*
X025480Y038933D01*
X025552Y038778D01*
X025494Y038619D01*
X025433Y038676D01*
X025335Y038630D01*
X025237Y038666D01*
X025191Y038764D01*
X025227Y038862D01*
X025325Y038908D01*
X025423Y038872D01*
X025469Y038774D01*
X025433Y038676D01*
X025370Y038732D01*
X025332Y038714D01*
X025293Y038729D01*
X025275Y038767D01*
X025290Y038806D01*
X025328Y038824D01*
X025367Y038809D01*
X025385Y038771D01*
X025370Y038732D01*
X025604Y034801D02*
X025656Y034749D01*
X025492Y034705D01*
X025345Y034790D01*
X025301Y034954D01*
X025386Y035101D01*
X025550Y035145D01*
X025697Y035060D01*
X025741Y034896D01*
X025656Y034749D01*
X025606Y034815D01*
X025503Y034787D01*
X025411Y034840D01*
X025383Y034943D01*
X025436Y035035D01*
X025539Y035063D01*
X025631Y035010D01*
X025659Y034907D01*
X025606Y034815D01*
X025554Y034882D01*
X025514Y034871D01*
X025478Y034892D01*
X025467Y034932D01*
X025488Y034968D01*
X025528Y034979D01*
X025564Y034958D01*
X025575Y034918D01*
X025554Y034882D01*
X036627Y034801D02*
X036679Y034749D01*
X036515Y034705D01*
X036368Y034790D01*
X036324Y034954D01*
X036409Y035101D01*
X036573Y035145D01*
X036720Y035060D01*
X036764Y034896D01*
X036679Y034749D01*
X036629Y034815D01*
X036526Y034787D01*
X036434Y034840D01*
X036406Y034943D01*
X036459Y035035D01*
X036562Y035063D01*
X036654Y035010D01*
X036682Y034907D01*
X036629Y034815D01*
X036577Y034882D01*
X036537Y034871D01*
X036501Y034892D01*
X036490Y034932D01*
X036511Y034968D01*
X036551Y034979D01*
X036587Y034958D01*
X036598Y034918D01*
X036577Y034882D01*
X036466Y038671D02*
X036518Y038619D01*
X036363Y038547D01*
X036204Y038605D01*
X036132Y038760D01*
X036190Y038919D01*
X036345Y038991D01*
X036504Y038933D01*
X036576Y038778D01*
X036518Y038619D01*
X036457Y038676D01*
X036359Y038630D01*
X036261Y038666D01*
X036215Y038764D01*
X036251Y038862D01*
X036349Y038908D01*
X036447Y038872D01*
X036493Y038774D01*
X036457Y038676D01*
X036394Y038732D01*
X036356Y038714D01*
X036317Y038729D01*
X036299Y038767D01*
X036314Y038806D01*
X036352Y038824D01*
X036391Y038809D01*
X036409Y038771D01*
X036394Y038732D01*
X047489Y038671D02*
X047541Y038619D01*
X047386Y038547D01*
X047227Y038605D01*
X047155Y038760D01*
X047213Y038919D01*
X047368Y038991D01*
X047527Y038933D01*
X047599Y038778D01*
X047541Y038619D01*
X047480Y038676D01*
X047382Y038630D01*
X047284Y038666D01*
X047238Y038764D01*
X047274Y038862D01*
X047372Y038908D01*
X047470Y038872D01*
X047516Y038774D01*
X047480Y038676D01*
X047417Y038732D01*
X047379Y038714D01*
X047340Y038729D01*
X047322Y038767D01*
X047337Y038806D01*
X047375Y038824D01*
X047414Y038809D01*
X047432Y038771D01*
X047417Y038732D01*
X047651Y034801D02*
X047703Y034749D01*
X047539Y034705D01*
X047392Y034790D01*
X047348Y034954D01*
X047433Y035101D01*
X047597Y035145D01*
X047744Y035060D01*
X047788Y034896D01*
X047703Y034749D01*
X047653Y034815D01*
X047550Y034787D01*
X047458Y034840D01*
X047430Y034943D01*
X047483Y035035D01*
X047586Y035063D01*
X047678Y035010D01*
X047706Y034907D01*
X047653Y034815D01*
X047601Y034882D01*
X047561Y034871D01*
X047525Y034892D01*
X047514Y034932D01*
X047535Y034968D01*
X047575Y034979D01*
X047611Y034958D01*
X047622Y034918D01*
X047601Y034882D01*
D19*
X050810Y029431D03*
X050810Y027659D03*
X053369Y027659D03*
X053369Y029431D03*
X042346Y029431D03*
X042346Y027659D03*
X039787Y027659D03*
X039787Y029431D03*
X031322Y029431D03*
X031322Y027659D03*
X028763Y027659D03*
X028763Y029431D03*
X020298Y029431D03*
X020298Y027659D03*
X017739Y027659D03*
X017739Y029431D03*
X009275Y029431D03*
X009275Y027659D03*
X006716Y027659D03*
X006716Y029431D03*
X006716Y008564D03*
X006716Y006793D03*
X009275Y006793D03*
X009275Y008564D03*
X017739Y008564D03*
X017739Y006793D03*
X020298Y006793D03*
X020298Y008564D03*
X028763Y008564D03*
X028763Y006793D03*
X031322Y006793D03*
X031322Y008564D03*
X039787Y008564D03*
X039787Y006793D03*
X042346Y006793D03*
X042346Y008564D03*
X050810Y008564D03*
X050810Y006793D03*
X053369Y006793D03*
X053369Y008564D03*
D20*
X049178Y002094D03*
X052074Y001401D03*
X041050Y001401D03*
X038154Y002094D03*
X030027Y001401D03*
X027131Y002094D03*
X019003Y001401D03*
X016107Y002094D03*
X007980Y001401D03*
X005083Y002094D03*
X009288Y020229D03*
X007980Y022267D03*
X005083Y022961D03*
X012082Y020229D03*
X016107Y022961D03*
X019003Y022267D03*
X020312Y020229D03*
X023106Y020229D03*
X027131Y022961D03*
X030027Y022267D03*
X031335Y020229D03*
X034129Y020229D03*
X038154Y022961D03*
X041050Y022267D03*
X042359Y020229D03*
X045153Y020229D03*
X049178Y022961D03*
X052074Y022267D03*
X053383Y020229D03*
X056176Y020229D03*
X056176Y041095D03*
X053383Y041095D03*
X045153Y041095D03*
X042359Y041095D03*
X034129Y041095D03*
X031335Y041095D03*
X023106Y041095D03*
X020312Y041095D03*
X012082Y041095D03*
X009288Y041095D03*
D21*
X008348Y029124D03*
X013584Y026880D03*
X019372Y029124D03*
X024608Y026880D03*
X030395Y029124D03*
X035631Y026880D03*
X041419Y029124D03*
X046655Y026880D03*
X052443Y029124D03*
X052443Y008258D03*
X046655Y006014D03*
X041419Y008258D03*
X035631Y006014D03*
X030395Y008258D03*
X024608Y006014D03*
X019372Y008258D03*
X013584Y006014D03*
X008348Y008258D03*
X002561Y006014D03*
X002561Y026880D03*
D22*
X004008Y031383D03*
X015031Y031383D03*
X026055Y031383D03*
X037079Y031383D03*
X048102Y031383D03*
X048102Y010517D03*
X037079Y010517D03*
X026055Y010517D03*
X015031Y010517D03*
X004008Y010517D03*
M02*
