%
M48
M72
T01C0.0157
T02C0.0197
T03C0.0236
T04C0.0276
T05C0.0320
T06C0.0354
T07C0.0512
T08C0.0591
T09C0.0669
%
T01
X2561Y6014
X8348Y8258
X13584Y6014
X19372Y8258
X24608Y6014
X30395Y8258
X35631Y6014
X41419Y8258
X46655Y6014
X52443Y8258
X46655Y26880
X41419Y29124
X35631Y26880
X30395Y29124
X24608Y26880
X19372Y29124
X13584Y26880
X8348Y29124
X2561Y26880
X52443Y29124
T02
X48102Y31383
X37079Y31383
X26055Y31383
X15031Y31383
X4008Y31383
X4008Y10517
X15031Y10517
X26055Y10517
X37079Y10517
X48102Y10517
T03
X46841Y7848
X46841Y6848
X48710Y13399
X47568Y14059
X47864Y15693
X46864Y15693
X48617Y17452
X47377Y17903
X49762Y18783
X50762Y18783
X51834Y18950
X52334Y18084
X54386Y16903
X55386Y16903
X44362Y16903
X43362Y16903
X41311Y18084
X40811Y18950
X39739Y18783
X38739Y18783
X37593Y17452
X36354Y17903
X36841Y15693
X35841Y15693
X36544Y14059
X37687Y13399
X33339Y16903
X32339Y16903
X30287Y18084
X29787Y18950
X28715Y18783
X27715Y18783
X26570Y17452
X25330Y17903
X25817Y15693
X24817Y15693
X25521Y14059
X26663Y13399
X22315Y16903
X21315Y16903
X19263Y18084
X18763Y18950
X17691Y18783
X16691Y18783
X15546Y17452
X14307Y17903
X14794Y15693
X13794Y15693
X14497Y14059
X15639Y13399
X11291Y16903
X10291Y16903
X8240Y18084
X7740Y18950
X6668Y18783
X5668Y18783
X4522Y17452
X3283Y17903
X3770Y15693
X2770Y15693
X3473Y14059
X4616Y13399
X2747Y7848
X2747Y6848
X13770Y6848
X13770Y7848
X24794Y7848
X24794Y6848
X35818Y6848
X35818Y7848
X35818Y27715
X35818Y28715
X37687Y34265
X36544Y34925
X36841Y36559
X35841Y36559
X37593Y38318
X36354Y38769
X38739Y39649
X39739Y39649
X40811Y39817
X41311Y38951
X43362Y37769
X44362Y37769
X46864Y36559
X47864Y36559
X47568Y34925
X48710Y34265
X54386Y37769
X55386Y37769
X52334Y38951
X51834Y39817
X50762Y39649
X49762Y39649
X48617Y38318
X47377Y38769
X33339Y37769
X32339Y37769
X30287Y38951
X29787Y39817
X28715Y39649
X27715Y39649
X26570Y38318
X25330Y38769
X25817Y36559
X24817Y36559
X25521Y34925
X26663Y34265
X22315Y37769
X21315Y37769
X19263Y38951
X18763Y39817
X17691Y39649
X16691Y39649
X15546Y38318
X14307Y38769
X14794Y36559
X13794Y36559
X14497Y34925
X15639Y34265
X11291Y37769
X10291Y37769
X8240Y38951
X7740Y39817
X6668Y39649
X5668Y39649
X4522Y38318
X3283Y38769
X3770Y36559
X2770Y36559
X3473Y34925
X4616Y34265
X2747Y28715
X2747Y27715
X13770Y27715
X13770Y28715
X24794Y28715
X24794Y27715
X46841Y27715
X46841Y28715
T04
X47499Y29813
X48765Y31321
X44566Y39431
X42400Y39431
X33542Y39431
X31377Y39431
X22518Y39431
X20353Y39431
X11495Y39431
X9329Y39431
X4670Y31321
X3405Y29813
X14428Y29813
X15694Y31321
X25452Y29813
X26717Y31321
X36476Y29813
X37741Y31321
X53424Y39431
X55589Y39431
X55589Y18565
X53424Y18565
X44566Y18565
X42400Y18565
X33542Y18565
X31377Y18565
X22518Y18565
X20353Y18565
X11495Y18565
X9329Y18565
X4670Y10455
X3405Y8947
X14428Y8947
X15694Y10455
X25452Y8947
X26717Y10455
X36476Y8947
X37741Y10455
X47499Y8947
X48765Y10455
T05
X49960Y8179
X49960Y7179
X38936Y7179
X38936Y8179
X27913Y8179
X27913Y7179
X16889Y7179
X16889Y8179
X5865Y8179
X5865Y7179
X5865Y28045
X5865Y29045
X16889Y29045
X16889Y28045
X27913Y28045
X27913Y29045
X38936Y29045
X38936Y28045
X49960Y28045
X49960Y29045
T06
X50810Y29431
X50810Y27659
X53369Y27659
X53369Y29431
X42346Y29431
X42346Y27659
X39787Y27659
X39787Y29431
X31322Y29431
X31322Y27659
X28763Y27659
X28763Y29431
X20298Y29431
X20298Y27659
X17739Y27659
X17739Y29431
X9275Y29431
X9275Y27659
X6716Y27659
X6716Y29431
X6716Y8564
X6716Y6793
X9275Y6793
X9275Y8564
X17739Y8564
X17739Y6793
X20298Y6793
X20298Y8564
X28763Y8564
X28763Y6793
X31322Y6793
X31322Y8564
X39787Y8564
X39787Y6793
X42346Y6793
X42346Y8564
X50810Y8564
X50810Y6793
X53369Y6793
X53369Y8564
T07
X53454Y9809
X50462Y9809
X53454Y14809
X50462Y15809
X42431Y14809
X39439Y15809
X31407Y14809
X28415Y15809
X20383Y14809
X17391Y15809
X17391Y9809
X20383Y9809
X28415Y9809
X31407Y9809
X39439Y9809
X42431Y9809
X42431Y30675
X39439Y30675
X42431Y35675
X39439Y36675
X31407Y35675
X28415Y36675
X20383Y35675
X17391Y36675
X17391Y30675
X20383Y30675
X28415Y30675
X31407Y30675
X50462Y30675
X53454Y30675
X53454Y35675
X50462Y36675
X9360Y35675
X6368Y36675
X6368Y30675
X9360Y30675
X6368Y15809
X9360Y14809
X9360Y9809
X6368Y9809
T08
X5083Y2094
X7980Y1401
X16107Y2094
X19003Y1401
X27131Y2094
X30027Y1401
X38154Y2094
X41050Y1401
X49178Y2094
X52074Y1401
X53383Y20229
X56176Y20229
X52074Y22267
X49178Y22961
X45153Y20229
X42359Y20229
X41050Y22267
X38154Y22961
X34129Y20229
X31335Y20229
X30027Y22267
X27131Y22961
X23106Y20229
X20312Y20229
X19003Y22267
X16107Y22961
X12082Y20229
X9288Y20229
X7980Y22267
X5083Y22961
X9288Y41095
X12082Y41095
X20312Y41095
X23106Y41095
X31335Y41095
X34129Y41095
X42359Y41095
X45153Y41095
X53383Y41095
X56176Y41095
T09
X1084Y2510
X1084Y40305
X58171Y40305
X58171Y2510
M30
