G75*
%MOIN*%
%OFA0B0*%
%FSLAX24Y24*%
%IPPOS*%
%LPD*%
%AMOC8*
5,1,8,0,0,1.08239X$1,22.5*
%
%ADD10C,0.0050*%
%ADD11C,0.0070*%
%ADD12C,0.0080*%
%ADD13C,0.0240*%
%ADD14R,0.0160X0.0120*%
%ADD15R,0.0120X0.0160*%
%ADD16C,0.0100*%
%ADD17C,0.0060*%
%ADD18R,0.0551X0.0079*%
%ADD19R,0.0180X0.0300*%
D10*
X002849Y003972D02*
X003029Y003972D01*
X002849Y004153D01*
X002849Y004198D01*
X002894Y004243D01*
X002984Y004243D01*
X003029Y004198D01*
X003234Y004243D02*
X003234Y003972D01*
X003324Y003972D02*
X003144Y003972D01*
X003324Y004153D02*
X003234Y004243D01*
X003438Y004198D02*
X003484Y004243D01*
X003574Y004243D01*
X003619Y004198D01*
X003619Y004017D01*
X003574Y003972D01*
X003484Y003972D01*
X003438Y004017D01*
X003438Y004108D01*
X003529Y004108D01*
X003882Y004143D02*
X003927Y004098D01*
X003882Y004053D01*
X003882Y004008D01*
X003927Y003963D01*
X004017Y003963D01*
X004062Y004008D01*
X004177Y003963D02*
X004357Y003963D01*
X004267Y003963D02*
X004267Y004233D01*
X004357Y004143D01*
X004472Y004098D02*
X004562Y004098D01*
X004472Y004098D02*
X004472Y004008D01*
X004517Y003963D01*
X004607Y003963D01*
X004652Y004008D01*
X004652Y004188D01*
X004607Y004233D01*
X004517Y004233D01*
X004472Y004188D01*
X004859Y004088D02*
X005039Y004088D01*
X004904Y004223D01*
X004904Y003953D01*
X005154Y003953D02*
X005334Y003953D01*
X005244Y003953D02*
X005244Y004223D01*
X005334Y004133D01*
X005448Y004088D02*
X005538Y004088D01*
X005448Y004088D02*
X005448Y003998D01*
X005493Y003953D01*
X005583Y003953D01*
X005628Y003998D01*
X005628Y004178D01*
X005583Y004223D01*
X005493Y004223D01*
X005448Y004178D01*
X006007Y004095D02*
X006187Y004095D01*
X006052Y004231D01*
X006052Y003960D01*
X006301Y004005D02*
X006301Y004095D01*
X006391Y004095D01*
X006301Y004005D02*
X006346Y003960D01*
X006436Y003960D01*
X006481Y004005D01*
X006481Y004185D01*
X006436Y004231D01*
X006346Y004231D01*
X006301Y004185D01*
X007009Y004231D02*
X007189Y004231D01*
X007189Y004096D01*
X007099Y004141D01*
X007054Y004141D01*
X007009Y004096D01*
X007009Y004006D01*
X007054Y003961D01*
X007144Y003961D01*
X007189Y004006D01*
X007304Y004006D02*
X007304Y004096D01*
X007394Y004096D01*
X007484Y004186D02*
X007484Y004006D01*
X007439Y003961D01*
X007349Y003961D01*
X007304Y004006D01*
X007304Y004186D02*
X007349Y004231D01*
X007439Y004231D01*
X007484Y004186D01*
X007891Y004244D02*
X008071Y004244D01*
X008071Y004109D01*
X007981Y004154D01*
X007936Y004154D01*
X007891Y004109D01*
X007891Y004019D01*
X007936Y003974D01*
X008026Y003974D01*
X008071Y004019D01*
X008186Y003974D02*
X008366Y003974D01*
X008276Y003974D02*
X008276Y004244D01*
X008366Y004154D01*
X008481Y004109D02*
X008571Y004109D01*
X008481Y004109D02*
X008481Y004019D01*
X008526Y003974D01*
X008616Y003974D01*
X008661Y004019D01*
X008661Y004199D01*
X008616Y004244D01*
X008526Y004244D01*
X008481Y004199D01*
X008448Y005689D02*
X008403Y005734D01*
X008403Y005824D01*
X008493Y005824D01*
X008583Y005914D02*
X008583Y005734D01*
X008538Y005689D01*
X008448Y005689D01*
X008288Y005689D02*
X008108Y005689D01*
X008198Y005689D02*
X008198Y005959D01*
X008288Y005869D01*
X008403Y005914D02*
X008448Y005959D01*
X008538Y005959D01*
X008583Y005914D01*
X007994Y005824D02*
X007858Y005824D01*
X007813Y005779D01*
X007813Y005734D01*
X007858Y005689D01*
X007948Y005689D01*
X007994Y005734D01*
X007994Y005824D01*
X007903Y005914D01*
X007813Y005959D01*
X007547Y005909D02*
X007547Y005728D01*
X007502Y005683D01*
X007412Y005683D01*
X007367Y005728D01*
X007367Y005818D01*
X007457Y005818D01*
X007367Y005909D02*
X007412Y005954D01*
X007502Y005954D01*
X007547Y005909D01*
X007253Y005909D02*
X007208Y005954D01*
X007118Y005954D01*
X007073Y005909D01*
X007253Y005728D01*
X007208Y005683D01*
X007118Y005683D01*
X007073Y005728D01*
X007073Y005909D01*
X007253Y005909D02*
X007253Y005728D01*
X006599Y005722D02*
X006554Y005677D01*
X006464Y005677D01*
X006418Y005722D01*
X006418Y005812D01*
X006509Y005812D01*
X006599Y005903D02*
X006599Y005722D01*
X006599Y005903D02*
X006554Y005948D01*
X006464Y005948D01*
X006418Y005903D01*
X006304Y005948D02*
X006124Y005677D01*
X006124Y005948D01*
X006009Y005948D02*
X005874Y005948D01*
X005829Y005903D01*
X005829Y005722D01*
X005874Y005677D01*
X006009Y005677D01*
X006009Y005948D01*
X006048Y006202D02*
X006003Y006247D01*
X006003Y006427D01*
X006048Y006472D01*
X006138Y006472D01*
X006183Y006427D01*
X006183Y006382D01*
X006138Y006337D01*
X006003Y006337D01*
X006048Y006202D02*
X006138Y006202D01*
X006183Y006247D01*
X006297Y006202D02*
X006387Y006292D01*
X006342Y006292D02*
X006477Y006292D01*
X006477Y006202D02*
X006477Y006472D01*
X006342Y006472D01*
X006297Y006427D01*
X006297Y006337D01*
X006342Y006292D01*
X006304Y005948D02*
X006304Y005677D01*
X005524Y005938D02*
X005344Y005938D01*
X005434Y005938D02*
X005434Y005668D01*
X005230Y005668D02*
X005049Y005938D01*
X005230Y005938D02*
X005049Y005668D01*
X004462Y005688D02*
X004462Y005959D01*
X004327Y005959D01*
X004282Y005914D01*
X004282Y005823D01*
X004327Y005778D01*
X004462Y005778D01*
X004372Y005778D02*
X004282Y005688D01*
X004167Y005688D02*
X003987Y005959D01*
X004167Y005959D02*
X003987Y005688D01*
X003670Y005751D02*
X003625Y005706D01*
X003535Y005706D01*
X003490Y005751D01*
X003490Y005796D01*
X003535Y005841D01*
X003580Y005841D01*
X003535Y005841D02*
X003490Y005886D01*
X003490Y005931D01*
X003535Y005977D01*
X003625Y005977D01*
X003670Y005931D01*
X003375Y005977D02*
X003375Y005796D01*
X003285Y005706D01*
X003195Y005796D01*
X003195Y005977D01*
X003081Y005931D02*
X003036Y005977D01*
X002946Y005977D01*
X002901Y005931D01*
X002901Y005886D01*
X002946Y005841D01*
X002901Y005796D01*
X002901Y005751D01*
X002946Y005706D01*
X003036Y005706D01*
X003081Y005751D01*
X002991Y005841D02*
X002946Y005841D01*
X003927Y004233D02*
X003882Y004188D01*
X003882Y004143D01*
X003927Y004098D02*
X003972Y004098D01*
X004062Y004188D02*
X004017Y004233D01*
X003927Y004233D01*
X007288Y006594D02*
X007288Y006684D01*
X007333Y006729D01*
X007288Y006844D02*
X007288Y007024D01*
X007288Y006934D02*
X007558Y006934D01*
X007468Y006844D01*
X007513Y006729D02*
X007558Y006684D01*
X007558Y006594D01*
X007513Y006549D01*
X007333Y006549D01*
X007288Y006594D01*
X007333Y007138D02*
X007513Y007319D01*
X007333Y007319D01*
X007288Y007273D01*
X007288Y007183D01*
X007333Y007138D01*
X007513Y007138D01*
X007558Y007183D01*
X007558Y007273D01*
X007513Y007319D01*
X007601Y007285D02*
X007995Y008466D01*
X007995Y009003D01*
X008381Y008787D02*
X008381Y008517D01*
X008471Y008517D02*
X008291Y008517D01*
X008471Y008697D02*
X008381Y008787D01*
X008586Y008742D02*
X008586Y008652D01*
X008631Y008607D01*
X008766Y008607D01*
X008676Y008607D02*
X008586Y008517D01*
X008766Y008517D02*
X008766Y008787D01*
X008631Y008787D01*
X008586Y008742D01*
X007208Y009426D02*
X007208Y009516D01*
X007163Y009561D01*
X006983Y009561D01*
X006938Y009516D01*
X006938Y009426D01*
X006983Y009381D01*
X007163Y009381D01*
X007208Y009426D01*
X007028Y009471D02*
X006938Y009561D01*
X006938Y009676D02*
X006938Y009856D01*
X006938Y009766D02*
X007208Y009766D01*
X007118Y009676D01*
X008164Y010379D02*
X008344Y010379D01*
X008254Y010379D02*
X008254Y010649D01*
X008344Y010559D01*
X008459Y010379D02*
X008639Y010379D01*
X008549Y010379D02*
X008549Y010649D01*
X008639Y010559D01*
X008753Y010604D02*
X008798Y010649D01*
X008889Y010649D01*
X008934Y010604D01*
X008934Y010424D01*
X008889Y010379D01*
X008798Y010379D01*
X008753Y010424D01*
X008191Y011513D02*
X008056Y011513D01*
X008011Y011558D01*
X008011Y011738D01*
X008056Y011783D01*
X008191Y011783D01*
X008191Y011513D01*
X007896Y011513D02*
X007716Y011693D01*
X007716Y011738D01*
X007761Y011783D01*
X007851Y011783D01*
X007896Y011738D01*
X007896Y011513D02*
X007716Y011513D01*
X005566Y012153D02*
X005386Y011973D01*
X005386Y011928D01*
X005182Y011928D02*
X005182Y012198D01*
X005092Y012198D02*
X005272Y012198D01*
X005386Y012198D02*
X005566Y012198D01*
X005566Y012153D01*
X004941Y012476D02*
X004941Y011413D01*
X004292Y011413D02*
X004292Y012476D01*
X004121Y011698D02*
X004031Y011698D01*
X003986Y011653D01*
X003872Y011653D02*
X003827Y011698D01*
X003737Y011698D01*
X003692Y011653D01*
X003692Y011473D01*
X003737Y011428D01*
X003827Y011428D01*
X003872Y011473D01*
X003986Y011428D02*
X004166Y011608D01*
X004166Y011653D01*
X004121Y011698D01*
X004166Y011428D02*
X003986Y011428D01*
X004047Y011116D02*
X004137Y011116D01*
X004182Y011071D01*
X004182Y010981D01*
X004137Y010936D01*
X004047Y010936D02*
X004002Y011026D01*
X004002Y011071D01*
X004047Y011116D01*
X003912Y011116D02*
X003912Y010936D01*
X004047Y010936D01*
X004047Y010822D02*
X004092Y010777D01*
X004092Y010642D01*
X004092Y010732D02*
X004182Y010822D01*
X004047Y010822D02*
X003957Y010822D01*
X003912Y010777D01*
X003912Y010642D01*
X004182Y010642D01*
X002627Y010712D02*
X002447Y010712D01*
X002582Y010847D01*
X002582Y010577D01*
X002538Y010474D02*
X002538Y010204D01*
X002448Y010204D02*
X002628Y010204D01*
X002448Y010384D02*
X002538Y010474D01*
X002334Y010429D02*
X002289Y010474D01*
X002199Y010474D01*
X002154Y010429D01*
X002154Y010249D01*
X002199Y010204D01*
X002289Y010204D01*
X002334Y010249D01*
X002333Y010577D02*
X002243Y010667D01*
X002288Y010667D02*
X002153Y010667D01*
X002153Y010577D02*
X002153Y010847D01*
X002288Y010847D01*
X002333Y010802D01*
X002333Y010712D01*
X002288Y010667D01*
X002284Y010961D02*
X002329Y011006D01*
X002284Y010961D02*
X002194Y010961D01*
X002149Y011006D01*
X002149Y011186D01*
X002194Y011231D01*
X002284Y011231D01*
X002329Y011186D01*
X002443Y011231D02*
X002623Y011231D01*
X002623Y011186D01*
X002443Y011006D01*
X002443Y010961D01*
X002885Y012583D02*
X002975Y012583D01*
X003020Y012628D01*
X003020Y012853D01*
X003135Y012763D02*
X003225Y012853D01*
X003225Y012583D01*
X003135Y012583D02*
X003315Y012583D01*
X002885Y012583D02*
X002840Y012628D01*
X002840Y012853D01*
X004762Y009131D02*
X004852Y009086D01*
X004943Y008996D01*
X004807Y008996D01*
X004762Y008951D01*
X004762Y008906D01*
X004807Y008861D01*
X004897Y008861D01*
X004943Y008906D01*
X004943Y008996D01*
X005057Y009086D02*
X005102Y009131D01*
X005192Y009131D01*
X005237Y009086D01*
X005237Y008906D01*
X005192Y008861D01*
X005102Y008861D01*
X005057Y008906D01*
X005088Y008762D02*
X005043Y008717D01*
X005043Y008627D01*
X005088Y008582D01*
X005223Y008582D01*
X005133Y008582D02*
X005043Y008492D01*
X004929Y008537D02*
X004883Y008492D01*
X004793Y008492D01*
X004748Y008537D01*
X004748Y008582D01*
X004793Y008627D01*
X004929Y008627D01*
X004929Y008537D01*
X004929Y008627D02*
X004838Y008717D01*
X004748Y008762D01*
X005088Y008762D02*
X005223Y008762D01*
X005223Y008492D01*
X005291Y008354D02*
X005246Y008309D01*
X005246Y008219D01*
X005291Y008174D01*
X005426Y008174D01*
X005336Y008174D02*
X005246Y008084D01*
X005132Y008129D02*
X005132Y008174D01*
X005086Y008219D01*
X004996Y008219D01*
X004951Y008174D01*
X004951Y008129D01*
X004996Y008084D01*
X005086Y008084D01*
X005132Y008129D01*
X005086Y008219D02*
X005132Y008264D01*
X005132Y008309D01*
X005086Y008354D01*
X004996Y008354D01*
X004951Y008309D01*
X004951Y008264D01*
X004996Y008219D01*
X005291Y008354D02*
X005426Y008354D01*
X005426Y008084D01*
X007995Y007285D02*
X007995Y006354D01*
X013924Y005931D02*
X013924Y005886D01*
X013969Y005841D01*
X013924Y005796D01*
X013924Y005751D01*
X013969Y005706D01*
X014059Y005706D01*
X014104Y005751D01*
X014219Y005796D02*
X014219Y005977D01*
X014104Y005931D02*
X014059Y005977D01*
X013969Y005977D01*
X013924Y005931D01*
X013969Y005841D02*
X014014Y005841D01*
X014219Y005796D02*
X014309Y005706D01*
X014399Y005796D01*
X014399Y005977D01*
X014513Y005931D02*
X014559Y005977D01*
X014649Y005977D01*
X014694Y005931D01*
X014604Y005841D02*
X014559Y005841D01*
X014513Y005796D01*
X014513Y005751D01*
X014559Y005706D01*
X014649Y005706D01*
X014694Y005751D01*
X014559Y005841D02*
X014513Y005886D01*
X014513Y005931D01*
X015011Y005959D02*
X015191Y005688D01*
X015305Y005688D02*
X015396Y005778D01*
X015351Y005778D02*
X015486Y005778D01*
X015486Y005688D02*
X015486Y005959D01*
X015351Y005959D01*
X015305Y005914D01*
X015305Y005823D01*
X015351Y005778D01*
X015191Y005959D02*
X015011Y005688D01*
X016073Y005668D02*
X016253Y005938D01*
X016368Y005938D02*
X016548Y005938D01*
X016458Y005938D02*
X016458Y005668D01*
X016253Y005668D02*
X016073Y005938D01*
X016853Y005903D02*
X016898Y005948D01*
X017033Y005948D01*
X017033Y005677D01*
X016898Y005677D01*
X016853Y005722D01*
X016853Y005903D01*
X017147Y005948D02*
X017147Y005677D01*
X017328Y005948D01*
X017328Y005677D01*
X017442Y005722D02*
X017442Y005812D01*
X017532Y005812D01*
X017442Y005722D02*
X017487Y005677D01*
X017577Y005677D01*
X017622Y005722D01*
X017622Y005903D01*
X017577Y005948D01*
X017487Y005948D01*
X017442Y005903D01*
X017501Y006202D02*
X017501Y006472D01*
X017366Y006472D01*
X017321Y006427D01*
X017321Y006337D01*
X017366Y006292D01*
X017501Y006292D01*
X017411Y006292D02*
X017321Y006202D01*
X017206Y006247D02*
X017161Y006202D01*
X017071Y006202D01*
X017026Y006247D01*
X017026Y006427D01*
X017071Y006472D01*
X017161Y006472D01*
X017206Y006427D01*
X017206Y006382D01*
X017161Y006337D01*
X017026Y006337D01*
X018096Y005909D02*
X018276Y005728D01*
X018231Y005683D01*
X018141Y005683D01*
X018096Y005728D01*
X018096Y005909D01*
X018141Y005954D01*
X018231Y005954D01*
X018276Y005909D01*
X018276Y005728D01*
X018391Y005728D02*
X018391Y005818D01*
X018481Y005818D01*
X018571Y005728D02*
X018526Y005683D01*
X018436Y005683D01*
X018391Y005728D01*
X018571Y005728D02*
X018571Y005909D01*
X018526Y005954D01*
X018436Y005954D01*
X018391Y005909D01*
X018837Y005959D02*
X018927Y005914D01*
X019017Y005824D01*
X018882Y005824D01*
X018837Y005779D01*
X018837Y005734D01*
X018882Y005689D01*
X018972Y005689D01*
X019017Y005734D01*
X019017Y005824D01*
X019132Y005689D02*
X019312Y005689D01*
X019222Y005689D02*
X019222Y005959D01*
X019312Y005869D01*
X019426Y005914D02*
X019471Y005959D01*
X019561Y005959D01*
X019606Y005914D01*
X019606Y005734D01*
X019561Y005689D01*
X019471Y005689D01*
X019426Y005734D01*
X019426Y005824D01*
X019516Y005824D01*
X019019Y006354D02*
X019019Y007285D01*
X018625Y007285D02*
X019019Y008466D01*
X019019Y009003D01*
X019405Y008787D02*
X019405Y008517D01*
X019495Y008517D02*
X019315Y008517D01*
X019495Y008697D02*
X019405Y008787D01*
X019609Y008742D02*
X019609Y008652D01*
X019654Y008607D01*
X019790Y008607D01*
X019790Y008517D02*
X019790Y008787D01*
X019654Y008787D01*
X019609Y008742D01*
X019699Y008607D02*
X019609Y008517D01*
X018536Y007319D02*
X018356Y007319D01*
X018311Y007273D01*
X018311Y007183D01*
X018356Y007138D01*
X018536Y007319D01*
X018581Y007273D01*
X018581Y007183D01*
X018536Y007138D01*
X018356Y007138D01*
X018311Y007024D02*
X018311Y006844D01*
X018311Y006934D02*
X018581Y006934D01*
X018491Y006844D01*
X018536Y006729D02*
X018581Y006684D01*
X018581Y006594D01*
X018536Y006549D01*
X018356Y006549D01*
X018311Y006594D01*
X018311Y006684D01*
X018356Y006729D01*
X016450Y008084D02*
X016450Y008354D01*
X016315Y008354D01*
X016270Y008309D01*
X016270Y008219D01*
X016315Y008174D01*
X016450Y008174D01*
X016360Y008174D02*
X016270Y008084D01*
X016155Y008129D02*
X016155Y008174D01*
X016110Y008219D01*
X016020Y008219D01*
X015975Y008174D01*
X015975Y008129D01*
X016020Y008084D01*
X016110Y008084D01*
X016155Y008129D01*
X016110Y008219D02*
X016155Y008264D01*
X016155Y008309D01*
X016110Y008354D01*
X016020Y008354D01*
X015975Y008309D01*
X015975Y008264D01*
X016020Y008219D01*
X016067Y008492D02*
X016157Y008582D01*
X016112Y008582D02*
X016247Y008582D01*
X016247Y008492D02*
X016247Y008762D01*
X016112Y008762D01*
X016067Y008717D01*
X016067Y008627D01*
X016112Y008582D01*
X015952Y008627D02*
X015817Y008627D01*
X015772Y008582D01*
X015772Y008537D01*
X015817Y008492D01*
X015907Y008492D01*
X015952Y008537D01*
X015952Y008627D01*
X015862Y008717D01*
X015772Y008762D01*
X015831Y008861D02*
X015786Y008906D01*
X015786Y008951D01*
X015831Y008996D01*
X015966Y008996D01*
X015966Y008906D01*
X015921Y008861D01*
X015831Y008861D01*
X015966Y008996D02*
X015876Y009086D01*
X015786Y009131D01*
X016081Y009086D02*
X016126Y009131D01*
X016216Y009131D01*
X016261Y009086D01*
X016261Y008906D01*
X016216Y008861D01*
X016126Y008861D01*
X016081Y008906D01*
X017961Y009426D02*
X018006Y009381D01*
X018186Y009381D01*
X018231Y009426D01*
X018231Y009516D01*
X018186Y009561D01*
X018006Y009561D01*
X017961Y009516D01*
X017961Y009426D01*
X018051Y009471D02*
X017961Y009561D01*
X017961Y009676D02*
X017961Y009856D01*
X017961Y009766D02*
X018231Y009766D01*
X018141Y009676D01*
X019188Y010379D02*
X019368Y010379D01*
X019278Y010379D02*
X019278Y010649D01*
X019368Y010559D01*
X019482Y010379D02*
X019663Y010379D01*
X019573Y010379D02*
X019573Y010649D01*
X019663Y010559D01*
X019777Y010604D02*
X019822Y010649D01*
X019912Y010649D01*
X019957Y010604D01*
X019957Y010424D01*
X019912Y010379D01*
X019822Y010379D01*
X019777Y010424D01*
X019215Y011513D02*
X019080Y011513D01*
X019035Y011558D01*
X019035Y011738D01*
X019080Y011783D01*
X019215Y011783D01*
X019215Y011513D01*
X018920Y011513D02*
X018740Y011693D01*
X018740Y011738D01*
X018785Y011783D01*
X018875Y011783D01*
X018920Y011738D01*
X018920Y011513D02*
X018740Y011513D01*
X016590Y012153D02*
X016410Y011973D01*
X016410Y011928D01*
X016205Y011928D02*
X016205Y012198D01*
X016115Y012198D02*
X016295Y012198D01*
X016410Y012198D02*
X016590Y012198D01*
X016590Y012153D01*
X015965Y012476D02*
X015965Y011413D01*
X015315Y011413D02*
X015315Y012476D01*
X014339Y012583D02*
X014159Y012583D01*
X014249Y012583D02*
X014249Y012853D01*
X014159Y012763D01*
X014044Y012853D02*
X014044Y012628D01*
X013999Y012583D01*
X013909Y012583D01*
X013864Y012628D01*
X013864Y012853D01*
X014760Y011698D02*
X014715Y011653D01*
X014715Y011473D01*
X014760Y011428D01*
X014850Y011428D01*
X014895Y011473D01*
X015010Y011428D02*
X015190Y011608D01*
X015190Y011653D01*
X015145Y011698D01*
X015055Y011698D01*
X015010Y011653D01*
X014895Y011653D02*
X014850Y011698D01*
X014760Y011698D01*
X015010Y011428D02*
X015190Y011428D01*
X015161Y011116D02*
X015206Y011071D01*
X015206Y010981D01*
X015161Y010936D01*
X015070Y010936D02*
X015025Y011026D01*
X015025Y011071D01*
X015070Y011116D01*
X015161Y011116D01*
X015070Y010936D02*
X014935Y010936D01*
X014935Y011116D01*
X014980Y010822D02*
X015070Y010822D01*
X015116Y010777D01*
X015116Y010642D01*
X015206Y010642D02*
X014935Y010642D01*
X014935Y010777D01*
X014980Y010822D01*
X015116Y010732D02*
X015206Y010822D01*
X013651Y010712D02*
X013471Y010712D01*
X013606Y010847D01*
X013606Y010577D01*
X013562Y010474D02*
X013562Y010204D01*
X013472Y010204D02*
X013652Y010204D01*
X013472Y010384D02*
X013562Y010474D01*
X013357Y010429D02*
X013312Y010474D01*
X013222Y010474D01*
X013177Y010429D01*
X013177Y010249D01*
X013222Y010204D01*
X013312Y010204D01*
X013357Y010249D01*
X013356Y010577D02*
X013266Y010667D01*
X013311Y010667D02*
X013176Y010667D01*
X013176Y010577D02*
X013176Y010847D01*
X013311Y010847D01*
X013356Y010802D01*
X013356Y010712D01*
X013311Y010667D01*
X013307Y010961D02*
X013352Y011006D01*
X013307Y010961D02*
X013217Y010961D01*
X013172Y011006D01*
X013172Y011186D01*
X013217Y011231D01*
X013307Y011231D01*
X013352Y011186D01*
X013467Y011231D02*
X013647Y011231D01*
X013647Y011186D01*
X013467Y011006D01*
X013467Y010961D01*
X013918Y004243D02*
X014008Y004243D01*
X014053Y004198D01*
X013918Y004243D02*
X013873Y004198D01*
X013873Y004153D01*
X014053Y003972D01*
X013873Y003972D01*
X014167Y003972D02*
X014348Y003972D01*
X014258Y003972D02*
X014258Y004243D01*
X014348Y004153D01*
X014462Y004198D02*
X014507Y004243D01*
X014597Y004243D01*
X014642Y004198D01*
X014642Y004017D01*
X014597Y003972D01*
X014507Y003972D01*
X014462Y004017D01*
X014462Y004108D01*
X014552Y004108D01*
X014906Y004143D02*
X014951Y004098D01*
X014906Y004053D01*
X014906Y004008D01*
X014951Y003963D01*
X015041Y003963D01*
X015086Y004008D01*
X015201Y003963D02*
X015381Y003963D01*
X015291Y003963D02*
X015291Y004233D01*
X015381Y004143D01*
X015495Y004098D02*
X015585Y004098D01*
X015495Y004098D02*
X015495Y004008D01*
X015540Y003963D01*
X015630Y003963D01*
X015675Y004008D01*
X015675Y004188D01*
X015630Y004233D01*
X015540Y004233D01*
X015495Y004188D01*
X015883Y004088D02*
X016063Y004088D01*
X015928Y004223D01*
X015928Y003953D01*
X016177Y003953D02*
X016357Y003953D01*
X016267Y003953D02*
X016267Y004223D01*
X016357Y004133D01*
X016472Y004088D02*
X016562Y004088D01*
X016472Y004088D02*
X016472Y003998D01*
X016517Y003953D01*
X016607Y003953D01*
X016652Y003998D01*
X016652Y004178D01*
X016607Y004223D01*
X016517Y004223D01*
X016472Y004178D01*
X017030Y004095D02*
X017210Y004095D01*
X017075Y004231D01*
X017075Y003960D01*
X017325Y004005D02*
X017325Y004095D01*
X017415Y004095D01*
X017505Y004005D02*
X017460Y003960D01*
X017370Y003960D01*
X017325Y004005D01*
X017505Y004005D02*
X017505Y004185D01*
X017460Y004231D01*
X017370Y004231D01*
X017325Y004185D01*
X018033Y004231D02*
X018213Y004231D01*
X018213Y004096D01*
X018123Y004141D01*
X018078Y004141D01*
X018033Y004096D01*
X018033Y004006D01*
X018078Y003961D01*
X018168Y003961D01*
X018213Y004006D01*
X018327Y004006D02*
X018327Y004096D01*
X018417Y004096D01*
X018327Y004186D02*
X018372Y004231D01*
X018462Y004231D01*
X018507Y004186D01*
X018507Y004006D01*
X018462Y003961D01*
X018372Y003961D01*
X018327Y004006D01*
X018915Y004019D02*
X018960Y003974D01*
X019050Y003974D01*
X019095Y004019D01*
X019095Y004109D02*
X019005Y004154D01*
X018960Y004154D01*
X018915Y004109D01*
X018915Y004019D01*
X019095Y004109D02*
X019095Y004244D01*
X018915Y004244D01*
X019300Y004244D02*
X019300Y003974D01*
X019390Y003974D02*
X019210Y003974D01*
X019390Y004154D02*
X019300Y004244D01*
X019504Y004199D02*
X019549Y004244D01*
X019639Y004244D01*
X019684Y004199D01*
X019684Y004019D01*
X019639Y003974D01*
X019549Y003974D01*
X019504Y004019D01*
X019504Y004109D01*
X019594Y004109D01*
X015086Y004188D02*
X015041Y004233D01*
X014951Y004233D01*
X014906Y004188D01*
X014906Y004143D01*
X014951Y004098D02*
X014996Y004098D01*
X024201Y010249D02*
X024246Y010204D01*
X024336Y010204D01*
X024381Y010249D01*
X024495Y010204D02*
X024676Y010204D01*
X024586Y010204D02*
X024586Y010474D01*
X024495Y010384D01*
X024381Y010429D02*
X024336Y010474D01*
X024246Y010474D01*
X024201Y010429D01*
X024201Y010249D01*
X024200Y010577D02*
X024200Y010847D01*
X024335Y010847D01*
X024380Y010802D01*
X024380Y010712D01*
X024335Y010667D01*
X024200Y010667D01*
X024290Y010667D02*
X024380Y010577D01*
X024494Y010712D02*
X024675Y010712D01*
X024630Y010847D02*
X024494Y010712D01*
X024630Y010577D02*
X024630Y010847D01*
X024490Y010961D02*
X024490Y011006D01*
X024671Y011186D01*
X024671Y011231D01*
X024490Y011231D01*
X024376Y011186D02*
X024331Y011231D01*
X024241Y011231D01*
X024196Y011186D01*
X024196Y011006D01*
X024241Y010961D01*
X024331Y010961D01*
X024376Y011006D01*
X025739Y011473D02*
X025784Y011428D01*
X025874Y011428D01*
X025919Y011473D01*
X026033Y011428D02*
X026214Y011608D01*
X026214Y011653D01*
X026169Y011698D01*
X026078Y011698D01*
X026033Y011653D01*
X025919Y011653D02*
X025874Y011698D01*
X025784Y011698D01*
X025739Y011653D01*
X025739Y011473D01*
X026033Y011428D02*
X026214Y011428D01*
X026339Y011413D02*
X026339Y012476D01*
X026989Y012476D02*
X026989Y011413D01*
X026229Y011071D02*
X026229Y010981D01*
X026184Y010936D01*
X026094Y010936D02*
X026049Y011026D01*
X026049Y011071D01*
X026094Y011116D01*
X026184Y011116D01*
X026229Y011071D01*
X026094Y010936D02*
X025959Y010936D01*
X025959Y011116D01*
X026004Y010822D02*
X026094Y010822D01*
X026139Y010777D01*
X026139Y010642D01*
X026139Y010732D02*
X026229Y010822D01*
X026229Y010642D02*
X025959Y010642D01*
X025959Y010777D01*
X026004Y010822D01*
X027229Y011928D02*
X027229Y012198D01*
X027139Y012198D02*
X027319Y012198D01*
X027433Y012198D02*
X027614Y012198D01*
X027614Y012153D01*
X027433Y011973D01*
X027433Y011928D01*
X025362Y012583D02*
X025182Y012583D01*
X025272Y012583D02*
X025272Y012853D01*
X025182Y012763D01*
X025068Y012853D02*
X025068Y012628D01*
X025023Y012583D01*
X024933Y012583D01*
X024888Y012628D01*
X024888Y012853D01*
X028985Y009856D02*
X028985Y009676D01*
X028985Y009766D02*
X029255Y009766D01*
X029165Y009676D01*
X029210Y009561D02*
X029030Y009561D01*
X028985Y009516D01*
X028985Y009426D01*
X029030Y009381D01*
X029210Y009381D01*
X029255Y009426D01*
X029255Y009516D01*
X029210Y009561D01*
X029075Y009471D02*
X028985Y009561D01*
X030042Y009003D02*
X030042Y008466D01*
X029649Y007285D01*
X029605Y007273D02*
X029605Y007183D01*
X029560Y007138D01*
X029380Y007138D01*
X029560Y007319D01*
X029380Y007319D01*
X029335Y007273D01*
X029335Y007183D01*
X029380Y007138D01*
X029335Y007024D02*
X029335Y006844D01*
X029335Y006934D02*
X029605Y006934D01*
X029515Y006844D01*
X029560Y006729D02*
X029605Y006684D01*
X029605Y006594D01*
X029560Y006549D01*
X029380Y006549D01*
X029335Y006594D01*
X029335Y006684D01*
X029380Y006729D01*
X030042Y006354D02*
X030042Y007285D01*
X029605Y007273D02*
X029560Y007319D01*
X028525Y006472D02*
X028389Y006472D01*
X028344Y006427D01*
X028344Y006337D01*
X028389Y006292D01*
X028525Y006292D01*
X028525Y006202D02*
X028525Y006472D01*
X028435Y006292D02*
X028344Y006202D01*
X028230Y006247D02*
X028185Y006202D01*
X028095Y006202D01*
X028050Y006247D01*
X028050Y006427D01*
X028095Y006472D01*
X028185Y006472D01*
X028230Y006427D01*
X028230Y006382D01*
X028185Y006337D01*
X028050Y006337D01*
X028057Y005948D02*
X027921Y005948D01*
X027876Y005903D01*
X027876Y005722D01*
X027921Y005677D01*
X028057Y005677D01*
X028057Y005948D01*
X028171Y005948D02*
X028171Y005677D01*
X028351Y005948D01*
X028351Y005677D01*
X028466Y005722D02*
X028466Y005812D01*
X028556Y005812D01*
X028646Y005722D02*
X028601Y005677D01*
X028511Y005677D01*
X028466Y005722D01*
X028646Y005722D02*
X028646Y005903D01*
X028601Y005948D01*
X028511Y005948D01*
X028466Y005903D01*
X029120Y005909D02*
X029165Y005954D01*
X029255Y005954D01*
X029300Y005909D01*
X029300Y005728D01*
X029120Y005909D01*
X029120Y005728D01*
X029165Y005683D01*
X029255Y005683D01*
X029300Y005728D01*
X029414Y005728D02*
X029414Y005818D01*
X029505Y005818D01*
X029595Y005728D02*
X029550Y005683D01*
X029460Y005683D01*
X029414Y005728D01*
X029414Y005909D02*
X029460Y005954D01*
X029550Y005954D01*
X029595Y005909D01*
X029595Y005728D01*
X029861Y005734D02*
X029861Y005779D01*
X029906Y005824D01*
X030041Y005824D01*
X030041Y005734D01*
X029996Y005689D01*
X029906Y005689D01*
X029861Y005734D01*
X029951Y005914D02*
X030041Y005824D01*
X029951Y005914D02*
X029861Y005959D01*
X030245Y005959D02*
X030245Y005689D01*
X030335Y005689D02*
X030155Y005689D01*
X030335Y005869D02*
X030245Y005959D01*
X030450Y005914D02*
X030495Y005959D01*
X030585Y005959D01*
X030630Y005914D01*
X030630Y005734D01*
X030585Y005689D01*
X030495Y005689D01*
X030450Y005734D01*
X030450Y005824D01*
X030540Y005824D01*
X030573Y004244D02*
X030663Y004244D01*
X030708Y004199D01*
X030708Y004019D01*
X030663Y003974D01*
X030573Y003974D01*
X030528Y004019D01*
X030528Y004109D01*
X030618Y004109D01*
X030528Y004199D02*
X030573Y004244D01*
X030413Y004154D02*
X030323Y004244D01*
X030323Y003974D01*
X030413Y003974D02*
X030233Y003974D01*
X030119Y004019D02*
X030074Y003974D01*
X029984Y003974D01*
X029939Y004019D01*
X029939Y004109D01*
X029984Y004154D01*
X030029Y004154D01*
X030119Y004109D01*
X030119Y004244D01*
X029939Y004244D01*
X029531Y004186D02*
X029531Y004006D01*
X029486Y003961D01*
X029396Y003961D01*
X029351Y004006D01*
X029351Y004096D01*
X029441Y004096D01*
X029531Y004186D02*
X029486Y004231D01*
X029396Y004231D01*
X029351Y004186D01*
X029236Y004231D02*
X029236Y004096D01*
X029146Y004141D01*
X029101Y004141D01*
X029056Y004096D01*
X029056Y004006D01*
X029101Y003961D01*
X029191Y003961D01*
X029236Y004006D01*
X029236Y004231D02*
X029056Y004231D01*
X028529Y004185D02*
X028529Y004005D01*
X028484Y003960D01*
X028394Y003960D01*
X028348Y004005D01*
X028348Y004095D01*
X028439Y004095D01*
X028529Y004185D02*
X028484Y004231D01*
X028394Y004231D01*
X028348Y004185D01*
X028234Y004095D02*
X028054Y004095D01*
X028099Y003960D02*
X028099Y004231D01*
X028234Y004095D01*
X027676Y004178D02*
X027676Y003998D01*
X027631Y003953D01*
X027541Y003953D01*
X027496Y003998D01*
X027496Y004088D01*
X027586Y004088D01*
X027676Y004178D02*
X027631Y004223D01*
X027541Y004223D01*
X027496Y004178D01*
X027381Y004133D02*
X027291Y004223D01*
X027291Y003953D01*
X027381Y003953D02*
X027201Y003953D01*
X027086Y004088D02*
X026906Y004088D01*
X026951Y003953D02*
X026951Y004223D01*
X027086Y004088D01*
X026699Y004008D02*
X026654Y003963D01*
X026564Y003963D01*
X026519Y004008D01*
X026519Y004098D01*
X026609Y004098D01*
X026699Y004188D02*
X026699Y004008D01*
X026699Y004188D02*
X026654Y004233D01*
X026564Y004233D01*
X026519Y004188D01*
X026404Y004143D02*
X026314Y004233D01*
X026314Y003963D01*
X026404Y003963D02*
X026224Y003963D01*
X026110Y004008D02*
X026065Y003963D01*
X025975Y003963D01*
X025930Y004008D01*
X025930Y004053D01*
X025975Y004098D01*
X026020Y004098D01*
X025975Y004098D02*
X025930Y004143D01*
X025930Y004188D01*
X025975Y004233D01*
X026065Y004233D01*
X026110Y004188D01*
X025666Y004198D02*
X025621Y004243D01*
X025531Y004243D01*
X025486Y004198D01*
X025486Y004108D02*
X025576Y004108D01*
X025486Y004108D02*
X025486Y004017D01*
X025531Y003972D01*
X025621Y003972D01*
X025666Y004017D01*
X025666Y004198D01*
X025371Y004153D02*
X025281Y004243D01*
X025281Y003972D01*
X025371Y003972D02*
X025191Y003972D01*
X025077Y003972D02*
X024896Y004153D01*
X024896Y004198D01*
X024941Y004243D01*
X025032Y004243D01*
X025077Y004198D01*
X025077Y003972D02*
X024896Y003972D01*
X024993Y005706D02*
X025083Y005706D01*
X025128Y005751D01*
X025242Y005796D02*
X025242Y005977D01*
X025128Y005931D02*
X025083Y005977D01*
X024993Y005977D01*
X024948Y005931D01*
X024948Y005886D01*
X024993Y005841D01*
X024948Y005796D01*
X024948Y005751D01*
X024993Y005706D01*
X024993Y005841D02*
X025038Y005841D01*
X025242Y005796D02*
X025333Y005706D01*
X025423Y005796D01*
X025423Y005977D01*
X025537Y005931D02*
X025537Y005886D01*
X025582Y005841D01*
X025537Y005796D01*
X025537Y005751D01*
X025582Y005706D01*
X025672Y005706D01*
X025717Y005751D01*
X025627Y005841D02*
X025582Y005841D01*
X025537Y005931D02*
X025582Y005977D01*
X025672Y005977D01*
X025717Y005931D01*
X026034Y005959D02*
X026215Y005688D01*
X026329Y005688D02*
X026419Y005778D01*
X026374Y005778D02*
X026509Y005778D01*
X026509Y005688D02*
X026509Y005959D01*
X026374Y005959D01*
X026329Y005914D01*
X026329Y005823D01*
X026374Y005778D01*
X026215Y005959D02*
X026034Y005688D01*
X027097Y005668D02*
X027277Y005938D01*
X027391Y005938D02*
X027571Y005938D01*
X027481Y005938D02*
X027481Y005668D01*
X027277Y005668D02*
X027097Y005938D01*
X027134Y008084D02*
X027179Y008129D01*
X027179Y008174D01*
X027134Y008219D01*
X027044Y008219D01*
X026999Y008174D01*
X026999Y008129D01*
X027044Y008084D01*
X027134Y008084D01*
X027134Y008219D02*
X027179Y008264D01*
X027179Y008309D01*
X027134Y008354D01*
X027044Y008354D01*
X026999Y008309D01*
X026999Y008264D01*
X027044Y008219D01*
X027293Y008219D02*
X027338Y008174D01*
X027473Y008174D01*
X027383Y008174D02*
X027293Y008084D01*
X027293Y008219D02*
X027293Y008309D01*
X027338Y008354D01*
X027473Y008354D01*
X027473Y008084D01*
X027270Y008492D02*
X027270Y008762D01*
X027135Y008762D01*
X027090Y008717D01*
X027090Y008627D01*
X027135Y008582D01*
X027270Y008582D01*
X027180Y008582D02*
X027090Y008492D01*
X026976Y008537D02*
X026931Y008492D01*
X026841Y008492D01*
X026796Y008537D01*
X026796Y008582D01*
X026841Y008627D01*
X026976Y008627D01*
X026976Y008537D01*
X026976Y008627D02*
X026886Y008717D01*
X026796Y008762D01*
X026855Y008861D02*
X026810Y008906D01*
X026810Y008951D01*
X026855Y008996D01*
X026990Y008996D01*
X026990Y008906D01*
X026945Y008861D01*
X026855Y008861D01*
X026990Y008996D02*
X026900Y009086D01*
X026810Y009131D01*
X027104Y009086D02*
X027149Y009131D01*
X027239Y009131D01*
X027284Y009086D01*
X027284Y008906D01*
X027239Y008861D01*
X027149Y008861D01*
X027104Y008906D01*
X030211Y010379D02*
X030392Y010379D01*
X030301Y010379D02*
X030301Y010649D01*
X030392Y010559D01*
X030506Y010379D02*
X030686Y010379D01*
X030596Y010379D02*
X030596Y010649D01*
X030686Y010559D01*
X030801Y010604D02*
X030846Y010649D01*
X030936Y010649D01*
X030981Y010604D01*
X030981Y010424D01*
X030936Y010379D01*
X030846Y010379D01*
X030801Y010424D01*
X030238Y011513D02*
X030103Y011513D01*
X030058Y011558D01*
X030058Y011738D01*
X030103Y011783D01*
X030238Y011783D01*
X030238Y011513D01*
X029944Y011513D02*
X029764Y011693D01*
X029764Y011738D01*
X029809Y011783D01*
X029899Y011783D01*
X029944Y011738D01*
X029944Y011513D02*
X029764Y011513D01*
X030428Y008787D02*
X030428Y008517D01*
X030518Y008517D02*
X030338Y008517D01*
X030518Y008697D02*
X030428Y008787D01*
X030633Y008742D02*
X030633Y008652D01*
X030678Y008607D01*
X030813Y008607D01*
X030723Y008607D02*
X030633Y008517D01*
X030813Y008517D02*
X030813Y008787D01*
X030678Y008787D01*
X030633Y008742D01*
X035224Y010249D02*
X035269Y010204D01*
X035360Y010204D01*
X035405Y010249D01*
X035519Y010204D02*
X035699Y010204D01*
X035609Y010204D02*
X035609Y010474D01*
X035519Y010384D01*
X035405Y010429D02*
X035360Y010474D01*
X035269Y010474D01*
X035224Y010429D01*
X035224Y010249D01*
X035223Y010577D02*
X035223Y010847D01*
X035359Y010847D01*
X035404Y010802D01*
X035404Y010712D01*
X035359Y010667D01*
X035223Y010667D01*
X035313Y010667D02*
X035404Y010577D01*
X035518Y010712D02*
X035698Y010712D01*
X035653Y010847D02*
X035518Y010712D01*
X035653Y010577D02*
X035653Y010847D01*
X035514Y010961D02*
X035514Y011006D01*
X035694Y011186D01*
X035694Y011231D01*
X035514Y011231D01*
X035400Y011186D02*
X035355Y011231D01*
X035264Y011231D01*
X035219Y011186D01*
X035219Y011006D01*
X035264Y010961D01*
X035355Y010961D01*
X035400Y011006D01*
X036762Y011473D02*
X036807Y011428D01*
X036898Y011428D01*
X036943Y011473D01*
X037057Y011428D02*
X037237Y011608D01*
X037237Y011653D01*
X037192Y011698D01*
X037102Y011698D01*
X037057Y011653D01*
X036943Y011653D02*
X036898Y011698D01*
X036807Y011698D01*
X036762Y011653D01*
X036762Y011473D01*
X037057Y011428D02*
X037237Y011428D01*
X037363Y011413D02*
X037363Y012476D01*
X038012Y012476D02*
X038012Y011413D01*
X038252Y011928D02*
X038252Y012198D01*
X038162Y012198D02*
X038343Y012198D01*
X038457Y012198D02*
X038637Y012198D01*
X038637Y012153D01*
X038457Y011973D01*
X038457Y011928D01*
X037253Y011071D02*
X037253Y010981D01*
X037208Y010936D01*
X037118Y010936D02*
X037073Y011026D01*
X037073Y011071D01*
X037118Y011116D01*
X037208Y011116D01*
X037253Y011071D01*
X037118Y010936D02*
X036983Y010936D01*
X036983Y011116D01*
X037028Y010822D02*
X037118Y010822D01*
X037163Y010777D01*
X037163Y010642D01*
X037163Y010732D02*
X037253Y010822D01*
X037253Y010642D02*
X036983Y010642D01*
X036983Y010777D01*
X037028Y010822D01*
X037833Y009131D02*
X037923Y009086D01*
X038013Y008996D01*
X037878Y008996D01*
X037833Y008951D01*
X037833Y008906D01*
X037878Y008861D01*
X037968Y008861D01*
X038013Y008906D01*
X038013Y008996D01*
X038128Y009086D02*
X038173Y009131D01*
X038263Y009131D01*
X038308Y009086D01*
X038308Y008906D01*
X038263Y008861D01*
X038173Y008861D01*
X038128Y008906D01*
X038159Y008762D02*
X038114Y008717D01*
X038114Y008627D01*
X038159Y008582D01*
X038294Y008582D01*
X038204Y008582D02*
X038114Y008492D01*
X037999Y008537D02*
X037954Y008492D01*
X037864Y008492D01*
X037819Y008537D01*
X037819Y008582D01*
X037864Y008627D01*
X037999Y008627D01*
X037999Y008537D01*
X037999Y008627D02*
X037909Y008717D01*
X037819Y008762D01*
X038159Y008762D02*
X038294Y008762D01*
X038294Y008492D01*
X038362Y008354D02*
X038317Y008309D01*
X038317Y008219D01*
X038362Y008174D01*
X038497Y008174D01*
X038497Y008084D02*
X038497Y008354D01*
X038362Y008354D01*
X038202Y008309D02*
X038202Y008264D01*
X038157Y008219D01*
X038067Y008219D01*
X038022Y008174D01*
X038022Y008129D01*
X038067Y008084D01*
X038157Y008084D01*
X038202Y008129D01*
X038202Y008174D01*
X038157Y008219D01*
X038067Y008219D02*
X038022Y008264D01*
X038022Y008309D01*
X038067Y008354D01*
X038157Y008354D01*
X038202Y008309D01*
X038407Y008174D02*
X038317Y008084D01*
X040008Y009426D02*
X040054Y009381D01*
X040234Y009381D01*
X040279Y009426D01*
X040279Y009516D01*
X040234Y009561D01*
X040054Y009561D01*
X040008Y009516D01*
X040008Y009426D01*
X040099Y009471D02*
X040008Y009561D01*
X040008Y009676D02*
X040008Y009856D01*
X040008Y009766D02*
X040279Y009766D01*
X040189Y009676D01*
X041066Y009003D02*
X041066Y008466D01*
X040672Y007285D01*
X040629Y007273D02*
X040584Y007319D01*
X040404Y007138D01*
X040359Y007183D01*
X040359Y007273D01*
X040404Y007319D01*
X040584Y007319D01*
X040629Y007273D02*
X040629Y007183D01*
X040584Y007138D01*
X040404Y007138D01*
X040359Y007024D02*
X040359Y006844D01*
X040359Y006934D02*
X040629Y006934D01*
X040539Y006844D01*
X040584Y006729D02*
X040629Y006684D01*
X040629Y006594D01*
X040584Y006549D01*
X040404Y006549D01*
X040359Y006594D01*
X040359Y006684D01*
X040404Y006729D01*
X041066Y006354D02*
X041066Y007285D01*
X041362Y008517D02*
X041542Y008517D01*
X041452Y008517D02*
X041452Y008787D01*
X041542Y008697D01*
X041657Y008742D02*
X041657Y008652D01*
X041702Y008607D01*
X041837Y008607D01*
X041837Y008517D02*
X041837Y008787D01*
X041702Y008787D01*
X041657Y008742D01*
X041747Y008607D02*
X041657Y008517D01*
X041620Y010379D02*
X041620Y010649D01*
X041710Y010559D01*
X041824Y010604D02*
X041869Y010649D01*
X041959Y010649D01*
X042004Y010604D01*
X042004Y010424D01*
X041959Y010379D01*
X041869Y010379D01*
X041824Y010424D01*
X041710Y010379D02*
X041530Y010379D01*
X041415Y010379D02*
X041235Y010379D01*
X041325Y010379D02*
X041325Y010649D01*
X041415Y010559D01*
X041262Y011513D02*
X041127Y011513D01*
X041082Y011558D01*
X041082Y011738D01*
X041127Y011783D01*
X041262Y011783D01*
X041262Y011513D01*
X040967Y011513D02*
X040787Y011693D01*
X040787Y011738D01*
X040832Y011783D01*
X040922Y011783D01*
X040967Y011738D01*
X040967Y011513D02*
X040787Y011513D01*
X036386Y012583D02*
X036206Y012583D01*
X036296Y012583D02*
X036296Y012853D01*
X036206Y012763D01*
X036091Y012853D02*
X036091Y012628D01*
X036046Y012583D01*
X035956Y012583D01*
X035911Y012628D01*
X035911Y012853D01*
X039118Y006472D02*
X039073Y006427D01*
X039073Y006247D01*
X039118Y006202D01*
X039209Y006202D01*
X039254Y006247D01*
X039209Y006337D02*
X039073Y006337D01*
X039209Y006337D02*
X039254Y006382D01*
X039254Y006427D01*
X039209Y006472D01*
X039118Y006472D01*
X039368Y006427D02*
X039368Y006337D01*
X039413Y006292D01*
X039548Y006292D01*
X039548Y006202D02*
X039548Y006472D01*
X039413Y006472D01*
X039368Y006427D01*
X039458Y006292D02*
X039368Y006202D01*
X039375Y005948D02*
X039195Y005677D01*
X039195Y005948D01*
X039080Y005948D02*
X039080Y005677D01*
X038945Y005677D01*
X038900Y005722D01*
X038900Y005903D01*
X038945Y005948D01*
X039080Y005948D01*
X039375Y005948D02*
X039375Y005677D01*
X039489Y005722D02*
X039489Y005812D01*
X039579Y005812D01*
X039489Y005722D02*
X039534Y005677D01*
X039624Y005677D01*
X039669Y005722D01*
X039669Y005903D01*
X039624Y005948D01*
X039534Y005948D01*
X039489Y005903D01*
X040143Y005909D02*
X040188Y005954D01*
X040279Y005954D01*
X040324Y005909D01*
X040324Y005728D01*
X040143Y005909D01*
X040143Y005728D01*
X040188Y005683D01*
X040279Y005683D01*
X040324Y005728D01*
X040438Y005728D02*
X040438Y005818D01*
X040528Y005818D01*
X040438Y005728D02*
X040483Y005683D01*
X040573Y005683D01*
X040618Y005728D01*
X040618Y005909D01*
X040573Y005954D01*
X040483Y005954D01*
X040438Y005909D01*
X040884Y005959D02*
X040974Y005914D01*
X041064Y005824D01*
X040929Y005824D01*
X040884Y005779D01*
X040884Y005734D01*
X040929Y005689D01*
X041019Y005689D01*
X041064Y005734D01*
X041064Y005824D01*
X041179Y005689D02*
X041359Y005689D01*
X041269Y005689D02*
X041269Y005959D01*
X041359Y005869D01*
X041474Y005914D02*
X041519Y005959D01*
X041609Y005959D01*
X041654Y005914D01*
X041654Y005734D01*
X041609Y005689D01*
X041519Y005689D01*
X041474Y005734D01*
X041474Y005824D01*
X041564Y005824D01*
X041597Y004244D02*
X041687Y004244D01*
X041732Y004199D01*
X041732Y004019D01*
X041687Y003974D01*
X041597Y003974D01*
X041551Y004019D01*
X041551Y004109D01*
X041642Y004109D01*
X041551Y004199D02*
X041597Y004244D01*
X041437Y004154D02*
X041347Y004244D01*
X041347Y003974D01*
X041437Y003974D02*
X041257Y003974D01*
X041142Y004019D02*
X041097Y003974D01*
X041007Y003974D01*
X040962Y004019D01*
X040962Y004109D01*
X041007Y004154D01*
X041052Y004154D01*
X041142Y004109D01*
X041142Y004244D01*
X040962Y004244D01*
X040555Y004186D02*
X040555Y004006D01*
X040510Y003961D01*
X040419Y003961D01*
X040374Y004006D01*
X040374Y004096D01*
X040464Y004096D01*
X040374Y004186D02*
X040419Y004231D01*
X040510Y004231D01*
X040555Y004186D01*
X040260Y004231D02*
X040260Y004096D01*
X040170Y004141D01*
X040125Y004141D01*
X040080Y004096D01*
X040080Y004006D01*
X040125Y003961D01*
X040215Y003961D01*
X040260Y004006D01*
X040260Y004231D02*
X040080Y004231D01*
X039552Y004185D02*
X039552Y004005D01*
X039507Y003960D01*
X039417Y003960D01*
X039372Y004005D01*
X039372Y004095D01*
X039462Y004095D01*
X039372Y004185D02*
X039417Y004231D01*
X039507Y004231D01*
X039552Y004185D01*
X039258Y004095D02*
X039077Y004095D01*
X039122Y003960D02*
X039122Y004231D01*
X039258Y004095D01*
X038699Y004178D02*
X038699Y003998D01*
X038654Y003953D01*
X038564Y003953D01*
X038519Y003998D01*
X038519Y004088D01*
X038609Y004088D01*
X038519Y004178D02*
X038564Y004223D01*
X038654Y004223D01*
X038699Y004178D01*
X038405Y004133D02*
X038315Y004223D01*
X038315Y003953D01*
X038405Y003953D02*
X038225Y003953D01*
X038110Y004088D02*
X037930Y004088D01*
X037975Y003953D02*
X037975Y004223D01*
X038110Y004088D01*
X037723Y004008D02*
X037678Y003963D01*
X037588Y003963D01*
X037542Y004008D01*
X037542Y004098D01*
X037633Y004098D01*
X037723Y004188D02*
X037723Y004008D01*
X037723Y004188D02*
X037678Y004233D01*
X037588Y004233D01*
X037542Y004188D01*
X037428Y004143D02*
X037338Y004233D01*
X037338Y003963D01*
X037428Y003963D02*
X037248Y003963D01*
X037133Y004008D02*
X037088Y003963D01*
X036998Y003963D01*
X036953Y004008D01*
X036953Y004053D01*
X036998Y004098D01*
X037043Y004098D01*
X036998Y004098D02*
X036953Y004143D01*
X036953Y004188D01*
X036998Y004233D01*
X037088Y004233D01*
X037133Y004188D01*
X036689Y004198D02*
X036644Y004243D01*
X036554Y004243D01*
X036509Y004198D01*
X036509Y004108D02*
X036599Y004108D01*
X036509Y004108D02*
X036509Y004017D01*
X036554Y003972D01*
X036644Y003972D01*
X036689Y004017D01*
X036689Y004198D01*
X036395Y004153D02*
X036305Y004243D01*
X036305Y003972D01*
X036395Y003972D02*
X036215Y003972D01*
X036100Y003972D02*
X035920Y004153D01*
X035920Y004198D01*
X035965Y004243D01*
X036055Y004243D01*
X036100Y004198D01*
X036100Y003972D02*
X035920Y003972D01*
X036016Y005706D02*
X036107Y005706D01*
X036152Y005751D01*
X036266Y005796D02*
X036266Y005977D01*
X036152Y005931D02*
X036107Y005977D01*
X036016Y005977D01*
X035971Y005931D01*
X035971Y005886D01*
X036016Y005841D01*
X035971Y005796D01*
X035971Y005751D01*
X036016Y005706D01*
X036016Y005841D02*
X036062Y005841D01*
X036266Y005796D02*
X036356Y005706D01*
X036446Y005796D01*
X036446Y005977D01*
X036561Y005931D02*
X036606Y005977D01*
X036696Y005977D01*
X036741Y005931D01*
X036651Y005841D02*
X036606Y005841D01*
X036561Y005796D01*
X036561Y005751D01*
X036606Y005706D01*
X036696Y005706D01*
X036741Y005751D01*
X036606Y005841D02*
X036561Y005886D01*
X036561Y005931D01*
X037058Y005959D02*
X037238Y005688D01*
X037353Y005688D02*
X037443Y005778D01*
X037398Y005778D02*
X037533Y005778D01*
X037533Y005688D02*
X037533Y005959D01*
X037398Y005959D01*
X037353Y005914D01*
X037353Y005823D01*
X037398Y005778D01*
X037238Y005959D02*
X037058Y005688D01*
X038120Y005668D02*
X038300Y005938D01*
X038415Y005938D02*
X038595Y005938D01*
X038505Y005938D02*
X038505Y005668D01*
X038300Y005668D02*
X038120Y005938D01*
X046248Y010249D02*
X046293Y010204D01*
X046383Y010204D01*
X046428Y010249D01*
X046543Y010204D02*
X046723Y010204D01*
X046633Y010204D02*
X046633Y010474D01*
X046543Y010384D01*
X046428Y010429D02*
X046383Y010474D01*
X046293Y010474D01*
X046248Y010429D01*
X046248Y010249D01*
X046247Y010577D02*
X046247Y010847D01*
X046382Y010847D01*
X046427Y010802D01*
X046427Y010712D01*
X046382Y010667D01*
X046247Y010667D01*
X046337Y010667D02*
X046427Y010577D01*
X046542Y010712D02*
X046722Y010712D01*
X046677Y010847D02*
X046542Y010712D01*
X046677Y010577D02*
X046677Y010847D01*
X046538Y010961D02*
X046538Y011006D01*
X046718Y011186D01*
X046718Y011231D01*
X046538Y011231D01*
X046423Y011186D02*
X046378Y011231D01*
X046288Y011231D01*
X046243Y011186D01*
X046243Y011006D01*
X046288Y010961D01*
X046378Y010961D01*
X046423Y011006D01*
X047786Y011473D02*
X047831Y011428D01*
X047921Y011428D01*
X047966Y011473D01*
X048081Y011428D02*
X048261Y011608D01*
X048261Y011653D01*
X048216Y011698D01*
X048126Y011698D01*
X048081Y011653D01*
X047966Y011653D02*
X047921Y011698D01*
X047831Y011698D01*
X047786Y011653D01*
X047786Y011473D01*
X048081Y011428D02*
X048261Y011428D01*
X048386Y011413D02*
X048386Y012476D01*
X049036Y012476D02*
X049036Y011413D01*
X048276Y011071D02*
X048276Y010981D01*
X048231Y010936D01*
X048141Y010936D02*
X048096Y011026D01*
X048096Y011071D01*
X048141Y011116D01*
X048231Y011116D01*
X048276Y011071D01*
X048141Y010936D02*
X048006Y010936D01*
X048006Y011116D01*
X048051Y010822D02*
X048141Y010822D01*
X048186Y010777D01*
X048186Y010642D01*
X048186Y010732D02*
X048276Y010822D01*
X048276Y010642D02*
X048006Y010642D01*
X048006Y010777D01*
X048051Y010822D01*
X049276Y011928D02*
X049276Y012198D01*
X049186Y012198D02*
X049366Y012198D01*
X049481Y012198D02*
X049661Y012198D01*
X049661Y012153D01*
X049481Y011973D01*
X049481Y011928D01*
X047410Y012583D02*
X047229Y012583D01*
X047320Y012583D02*
X047320Y012853D01*
X047229Y012763D01*
X047115Y012853D02*
X047115Y012628D01*
X047070Y012583D01*
X046980Y012583D01*
X046935Y012628D01*
X046935Y012853D01*
X051032Y009856D02*
X051032Y009676D01*
X051032Y009766D02*
X051302Y009766D01*
X051212Y009676D01*
X051257Y009561D02*
X051077Y009561D01*
X051032Y009516D01*
X051032Y009426D01*
X051077Y009381D01*
X051257Y009381D01*
X051302Y009426D01*
X051302Y009516D01*
X051257Y009561D01*
X051122Y009471D02*
X051032Y009561D01*
X052090Y009003D02*
X052090Y008466D01*
X051696Y007285D01*
X051652Y007273D02*
X051607Y007319D01*
X051427Y007138D01*
X051382Y007183D01*
X051382Y007273D01*
X051427Y007319D01*
X051607Y007319D01*
X051652Y007273D02*
X051652Y007183D01*
X051607Y007138D01*
X051427Y007138D01*
X051382Y007024D02*
X051382Y006844D01*
X051382Y006934D02*
X051652Y006934D01*
X051562Y006844D01*
X051607Y006729D02*
X051652Y006684D01*
X051652Y006594D01*
X051607Y006549D01*
X051427Y006549D01*
X051382Y006594D01*
X051382Y006684D01*
X051427Y006729D01*
X052090Y006354D02*
X052090Y007285D01*
X050572Y006472D02*
X050437Y006472D01*
X050392Y006427D01*
X050392Y006337D01*
X050437Y006292D01*
X050572Y006292D01*
X050572Y006202D02*
X050572Y006472D01*
X050482Y006292D02*
X050392Y006202D01*
X050277Y006247D02*
X050232Y006202D01*
X050142Y006202D01*
X050097Y006247D01*
X050097Y006427D01*
X050142Y006472D01*
X050232Y006472D01*
X050277Y006427D01*
X050277Y006382D01*
X050232Y006337D01*
X050097Y006337D01*
X050104Y005948D02*
X049969Y005948D01*
X049924Y005903D01*
X049924Y005722D01*
X049969Y005677D01*
X050104Y005677D01*
X050104Y005948D01*
X050218Y005948D02*
X050218Y005677D01*
X050398Y005948D01*
X050398Y005677D01*
X050513Y005722D02*
X050513Y005812D01*
X050603Y005812D01*
X050513Y005722D02*
X050558Y005677D01*
X050648Y005677D01*
X050693Y005722D01*
X050693Y005903D01*
X050648Y005948D01*
X050558Y005948D01*
X050513Y005903D01*
X051167Y005909D02*
X051212Y005954D01*
X051302Y005954D01*
X051347Y005909D01*
X051347Y005728D01*
X051167Y005909D01*
X051167Y005728D01*
X051212Y005683D01*
X051302Y005683D01*
X051347Y005728D01*
X051462Y005728D02*
X051462Y005818D01*
X051552Y005818D01*
X051642Y005728D02*
X051597Y005683D01*
X051507Y005683D01*
X051462Y005728D01*
X051642Y005728D02*
X051642Y005909D01*
X051597Y005954D01*
X051507Y005954D01*
X051462Y005909D01*
X051908Y005959D02*
X051998Y005914D01*
X052088Y005824D01*
X051953Y005824D01*
X051908Y005779D01*
X051908Y005734D01*
X051953Y005689D01*
X052043Y005689D01*
X052088Y005734D01*
X052088Y005824D01*
X052203Y005689D02*
X052383Y005689D01*
X052293Y005689D02*
X052293Y005959D01*
X052383Y005869D01*
X052497Y005914D02*
X052542Y005959D01*
X052632Y005959D01*
X052677Y005914D01*
X052677Y005734D01*
X052632Y005689D01*
X052542Y005689D01*
X052497Y005734D01*
X052497Y005824D01*
X052587Y005824D01*
X052620Y004244D02*
X052710Y004244D01*
X052755Y004199D01*
X052755Y004019D01*
X052710Y003974D01*
X052620Y003974D01*
X052575Y004019D01*
X052575Y004109D01*
X052665Y004109D01*
X052575Y004199D02*
X052620Y004244D01*
X052461Y004154D02*
X052371Y004244D01*
X052371Y003974D01*
X052461Y003974D02*
X052280Y003974D01*
X052166Y004019D02*
X052121Y003974D01*
X052031Y003974D01*
X051986Y004019D01*
X051986Y004109D01*
X052031Y004154D01*
X052076Y004154D01*
X052166Y004109D01*
X052166Y004244D01*
X051986Y004244D01*
X051578Y004186D02*
X051533Y004231D01*
X051443Y004231D01*
X051398Y004186D01*
X051398Y004096D02*
X051488Y004096D01*
X051398Y004096D02*
X051398Y004006D01*
X051443Y003961D01*
X051533Y003961D01*
X051578Y004006D01*
X051578Y004186D01*
X051284Y004231D02*
X051284Y004096D01*
X051193Y004141D01*
X051148Y004141D01*
X051103Y004096D01*
X051103Y004006D01*
X051148Y003961D01*
X051238Y003961D01*
X051284Y004006D01*
X051284Y004231D02*
X051103Y004231D01*
X050576Y004185D02*
X050576Y004005D01*
X050531Y003960D01*
X050441Y003960D01*
X050396Y004005D01*
X050396Y004095D01*
X050486Y004095D01*
X050576Y004185D02*
X050531Y004231D01*
X050441Y004231D01*
X050396Y004185D01*
X050281Y004095D02*
X050101Y004095D01*
X050146Y003960D02*
X050146Y004231D01*
X050281Y004095D01*
X049723Y004178D02*
X049723Y003998D01*
X049678Y003953D01*
X049588Y003953D01*
X049543Y003998D01*
X049543Y004088D01*
X049633Y004088D01*
X049723Y004178D02*
X049678Y004223D01*
X049588Y004223D01*
X049543Y004178D01*
X049428Y004133D02*
X049338Y004223D01*
X049338Y003953D01*
X049428Y003953D02*
X049248Y003953D01*
X049134Y004088D02*
X048953Y004088D01*
X048999Y003953D02*
X048999Y004223D01*
X049134Y004088D01*
X048746Y004008D02*
X048701Y003963D01*
X048611Y003963D01*
X048566Y004008D01*
X048566Y004098D01*
X048656Y004098D01*
X048566Y004188D02*
X048611Y004233D01*
X048701Y004233D01*
X048746Y004188D01*
X048746Y004008D01*
X048452Y003963D02*
X048271Y003963D01*
X048362Y003963D02*
X048362Y004233D01*
X048452Y004143D01*
X048157Y004188D02*
X048112Y004233D01*
X048022Y004233D01*
X047977Y004188D01*
X047977Y004143D01*
X048022Y004098D01*
X047977Y004053D01*
X047977Y004008D01*
X048022Y003963D01*
X048112Y003963D01*
X048157Y004008D01*
X048067Y004098D02*
X048022Y004098D01*
X047713Y004017D02*
X047668Y003972D01*
X047578Y003972D01*
X047533Y004017D01*
X047533Y004108D01*
X047623Y004108D01*
X047533Y004198D02*
X047578Y004243D01*
X047668Y004243D01*
X047713Y004198D01*
X047713Y004017D01*
X047418Y003972D02*
X047238Y003972D01*
X047328Y003972D02*
X047328Y004243D01*
X047418Y004153D01*
X047124Y004198D02*
X047079Y004243D01*
X046989Y004243D01*
X046944Y004198D01*
X046944Y004153D01*
X047124Y003972D01*
X046944Y003972D01*
X047040Y005706D02*
X047130Y005706D01*
X047175Y005751D01*
X047290Y005796D02*
X047290Y005977D01*
X047175Y005931D02*
X047130Y005977D01*
X047040Y005977D01*
X046995Y005931D01*
X046995Y005886D01*
X047040Y005841D01*
X046995Y005796D01*
X046995Y005751D01*
X047040Y005706D01*
X047040Y005841D02*
X047085Y005841D01*
X047290Y005796D02*
X047380Y005706D01*
X047470Y005796D01*
X047470Y005977D01*
X047584Y005931D02*
X047629Y005977D01*
X047719Y005977D01*
X047765Y005931D01*
X047674Y005841D02*
X047629Y005841D01*
X047584Y005796D01*
X047584Y005751D01*
X047629Y005706D01*
X047719Y005706D01*
X047765Y005751D01*
X047629Y005841D02*
X047584Y005886D01*
X047584Y005931D01*
X048082Y005959D02*
X048262Y005688D01*
X048376Y005688D02*
X048466Y005778D01*
X048421Y005778D02*
X048556Y005778D01*
X048556Y005688D02*
X048556Y005959D01*
X048421Y005959D01*
X048376Y005914D01*
X048376Y005823D01*
X048421Y005778D01*
X048262Y005959D02*
X048082Y005688D01*
X049144Y005668D02*
X049324Y005938D01*
X049439Y005938D02*
X049619Y005938D01*
X049529Y005938D02*
X049529Y005668D01*
X049324Y005668D02*
X049144Y005938D01*
X049181Y008084D02*
X049226Y008129D01*
X049226Y008174D01*
X049181Y008219D01*
X049091Y008219D01*
X049046Y008174D01*
X049046Y008129D01*
X049091Y008084D01*
X049181Y008084D01*
X049181Y008219D02*
X049226Y008264D01*
X049226Y008309D01*
X049181Y008354D01*
X049091Y008354D01*
X049046Y008309D01*
X049046Y008264D01*
X049091Y008219D01*
X049341Y008219D02*
X049386Y008174D01*
X049521Y008174D01*
X049521Y008084D02*
X049521Y008354D01*
X049386Y008354D01*
X049341Y008309D01*
X049341Y008219D01*
X049431Y008174D02*
X049341Y008084D01*
X049318Y008492D02*
X049318Y008762D01*
X049183Y008762D01*
X049137Y008717D01*
X049137Y008627D01*
X049183Y008582D01*
X049318Y008582D01*
X049228Y008582D02*
X049137Y008492D01*
X049023Y008537D02*
X048978Y008492D01*
X048888Y008492D01*
X048843Y008537D01*
X048843Y008582D01*
X048888Y008627D01*
X049023Y008627D01*
X049023Y008537D01*
X049023Y008627D02*
X048933Y008717D01*
X048843Y008762D01*
X048902Y008861D02*
X048857Y008906D01*
X048857Y008951D01*
X048902Y008996D01*
X049037Y008996D01*
X049037Y008906D01*
X048992Y008861D01*
X048902Y008861D01*
X049037Y008996D02*
X048947Y009086D01*
X048857Y009131D01*
X049151Y009086D02*
X049197Y009131D01*
X049287Y009131D01*
X049332Y009086D01*
X049332Y008906D01*
X049287Y008861D01*
X049197Y008861D01*
X049151Y008906D01*
X052386Y008517D02*
X052566Y008517D01*
X052476Y008517D02*
X052476Y008787D01*
X052566Y008697D01*
X052680Y008742D02*
X052680Y008652D01*
X052725Y008607D01*
X052860Y008607D01*
X052770Y008607D02*
X052680Y008517D01*
X052860Y008517D02*
X052860Y008787D01*
X052725Y008787D01*
X052680Y008742D01*
X052643Y010379D02*
X052643Y010649D01*
X052733Y010559D01*
X052848Y010604D02*
X052893Y010649D01*
X052983Y010649D01*
X053028Y010604D01*
X053028Y010424D01*
X052983Y010379D01*
X052893Y010379D01*
X052848Y010424D01*
X052733Y010379D02*
X052553Y010379D01*
X052439Y010379D02*
X052259Y010379D01*
X052349Y010379D02*
X052349Y010649D01*
X052439Y010559D01*
X052286Y011513D02*
X052150Y011513D01*
X052105Y011558D01*
X052105Y011738D01*
X052150Y011783D01*
X052286Y011783D01*
X052286Y011513D01*
X051991Y011513D02*
X051811Y011693D01*
X051811Y011738D01*
X051856Y011783D01*
X051946Y011783D01*
X051991Y011738D01*
X051991Y011513D02*
X051811Y011513D01*
X051533Y024827D02*
X051443Y024827D01*
X051398Y024872D01*
X051398Y024962D01*
X051488Y024962D01*
X051398Y025052D02*
X051443Y025097D01*
X051533Y025097D01*
X051578Y025052D01*
X051578Y024872D01*
X051533Y024827D01*
X051284Y024872D02*
X051238Y024827D01*
X051148Y024827D01*
X051103Y024872D01*
X051103Y024962D01*
X051148Y025007D01*
X051193Y025007D01*
X051284Y024962D01*
X051284Y025097D01*
X051103Y025097D01*
X050576Y025052D02*
X050576Y024871D01*
X050531Y024826D01*
X050441Y024826D01*
X050396Y024871D01*
X050396Y024962D01*
X050486Y024962D01*
X050576Y025052D02*
X050531Y025097D01*
X050441Y025097D01*
X050396Y025052D01*
X050281Y024962D02*
X050101Y024962D01*
X050146Y025097D02*
X050281Y024962D01*
X050146Y025097D02*
X050146Y024826D01*
X049723Y024864D02*
X049723Y025044D01*
X049678Y025089D01*
X049588Y025089D01*
X049543Y025044D01*
X049543Y024954D02*
X049633Y024954D01*
X049543Y024954D02*
X049543Y024864D01*
X049588Y024819D01*
X049678Y024819D01*
X049723Y024864D01*
X049428Y024819D02*
X049248Y024819D01*
X049338Y024819D02*
X049338Y025089D01*
X049428Y024999D01*
X049134Y024954D02*
X048999Y025089D01*
X048999Y024819D01*
X048953Y024954D02*
X049134Y024954D01*
X048746Y024874D02*
X048701Y024829D01*
X048611Y024829D01*
X048566Y024874D01*
X048566Y024964D01*
X048656Y024964D01*
X048746Y025054D02*
X048746Y024874D01*
X048746Y025054D02*
X048701Y025099D01*
X048611Y025099D01*
X048566Y025054D01*
X048452Y025009D02*
X048362Y025099D01*
X048362Y024829D01*
X048452Y024829D02*
X048271Y024829D01*
X048157Y024874D02*
X048112Y024829D01*
X048022Y024829D01*
X047977Y024874D01*
X047977Y024919D01*
X048022Y024964D01*
X048067Y024964D01*
X048022Y024964D02*
X047977Y025009D01*
X047977Y025054D01*
X048022Y025099D01*
X048112Y025099D01*
X048157Y025054D01*
X047713Y025064D02*
X047713Y024884D01*
X047668Y024839D01*
X047578Y024839D01*
X047533Y024884D01*
X047533Y024974D01*
X047623Y024974D01*
X047533Y025064D02*
X047578Y025109D01*
X047668Y025109D01*
X047713Y025064D01*
X047418Y025019D02*
X047328Y025109D01*
X047328Y024839D01*
X047418Y024839D02*
X047238Y024839D01*
X047124Y024839D02*
X046944Y025019D01*
X046944Y025064D01*
X046989Y025109D01*
X047079Y025109D01*
X047124Y025064D01*
X047124Y024839D02*
X046944Y024839D01*
X047040Y026572D02*
X047130Y026572D01*
X047175Y026617D01*
X047290Y026662D02*
X047290Y026843D01*
X047175Y026798D02*
X047130Y026843D01*
X047040Y026843D01*
X046995Y026798D01*
X046995Y026753D01*
X047040Y026708D01*
X046995Y026662D01*
X046995Y026617D01*
X047040Y026572D01*
X047040Y026708D02*
X047085Y026708D01*
X047290Y026662D02*
X047380Y026572D01*
X047470Y026662D01*
X047470Y026843D01*
X047584Y026798D02*
X047584Y026753D01*
X047629Y026708D01*
X047584Y026662D01*
X047584Y026617D01*
X047629Y026572D01*
X047719Y026572D01*
X047765Y026617D01*
X047674Y026708D02*
X047629Y026708D01*
X047584Y026798D02*
X047629Y026843D01*
X047719Y026843D01*
X047765Y026798D01*
X048082Y026825D02*
X048262Y026555D01*
X048376Y026555D02*
X048466Y026645D01*
X048421Y026645D02*
X048556Y026645D01*
X048556Y026555D02*
X048556Y026825D01*
X048421Y026825D01*
X048376Y026780D01*
X048376Y026690D01*
X048421Y026645D01*
X048262Y026825D02*
X048082Y026555D01*
X049144Y026534D02*
X049324Y026804D01*
X049439Y026804D02*
X049619Y026804D01*
X049529Y026804D02*
X049529Y026534D01*
X049324Y026534D02*
X049144Y026804D01*
X049924Y026769D02*
X049924Y026589D01*
X049969Y026543D01*
X050104Y026543D01*
X050104Y026814D01*
X049969Y026814D01*
X049924Y026769D01*
X050218Y026814D02*
X050218Y026543D01*
X050398Y026814D01*
X050398Y026543D01*
X050513Y026589D02*
X050513Y026679D01*
X050603Y026679D01*
X050513Y026769D02*
X050558Y026814D01*
X050648Y026814D01*
X050693Y026769D01*
X050693Y026589D01*
X050648Y026543D01*
X050558Y026543D01*
X050513Y026589D01*
X050572Y027068D02*
X050572Y027339D01*
X050437Y027339D01*
X050392Y027294D01*
X050392Y027203D01*
X050437Y027158D01*
X050572Y027158D01*
X050482Y027158D02*
X050392Y027068D01*
X050277Y027113D02*
X050232Y027068D01*
X050142Y027068D01*
X050097Y027113D01*
X050097Y027294D01*
X050142Y027339D01*
X050232Y027339D01*
X050277Y027294D01*
X050277Y027248D01*
X050232Y027203D01*
X050097Y027203D01*
X051167Y026775D02*
X051347Y026594D01*
X051302Y026549D01*
X051212Y026549D01*
X051167Y026594D01*
X051167Y026775D01*
X051212Y026820D01*
X051302Y026820D01*
X051347Y026775D01*
X051347Y026594D01*
X051462Y026594D02*
X051462Y026685D01*
X051552Y026685D01*
X051642Y026775D02*
X051642Y026594D01*
X051597Y026549D01*
X051507Y026549D01*
X051462Y026594D01*
X051462Y026775D02*
X051507Y026820D01*
X051597Y026820D01*
X051642Y026775D01*
X051908Y026825D02*
X051998Y026780D01*
X052088Y026690D01*
X051953Y026690D01*
X051908Y026645D01*
X051908Y026600D01*
X051953Y026555D01*
X052043Y026555D01*
X052088Y026600D01*
X052088Y026690D01*
X052203Y026555D02*
X052383Y026555D01*
X052293Y026555D02*
X052293Y026825D01*
X052383Y026735D01*
X052497Y026690D02*
X052587Y026690D01*
X052497Y026690D02*
X052497Y026600D01*
X052542Y026555D01*
X052632Y026555D01*
X052677Y026600D01*
X052677Y026780D01*
X052632Y026825D01*
X052542Y026825D01*
X052497Y026780D01*
X052090Y027220D02*
X052090Y028151D01*
X051696Y028151D02*
X052090Y029332D01*
X052090Y029870D01*
X052476Y029653D02*
X052476Y029383D01*
X052566Y029383D02*
X052386Y029383D01*
X052566Y029563D02*
X052476Y029653D01*
X052680Y029608D02*
X052680Y029518D01*
X052725Y029473D01*
X052860Y029473D01*
X052770Y029473D02*
X052680Y029383D01*
X052860Y029383D02*
X052860Y029653D01*
X052725Y029653D01*
X052680Y029608D01*
X051302Y030292D02*
X051302Y030382D01*
X051257Y030427D01*
X051077Y030427D01*
X051032Y030382D01*
X051032Y030292D01*
X051077Y030247D01*
X051257Y030247D01*
X051302Y030292D01*
X051122Y030337D02*
X051032Y030427D01*
X051032Y030542D02*
X051032Y030722D01*
X051032Y030632D02*
X051302Y030632D01*
X051212Y030542D01*
X052259Y031245D02*
X052439Y031245D01*
X052349Y031245D02*
X052349Y031515D01*
X052439Y031425D01*
X052553Y031245D02*
X052733Y031245D01*
X052643Y031245D02*
X052643Y031515D01*
X052733Y031425D01*
X052848Y031470D02*
X052893Y031515D01*
X052983Y031515D01*
X053028Y031470D01*
X053028Y031290D01*
X052983Y031245D01*
X052893Y031245D01*
X052848Y031290D01*
X052286Y032379D02*
X052150Y032379D01*
X052105Y032424D01*
X052105Y032604D01*
X052150Y032649D01*
X052286Y032649D01*
X052286Y032379D01*
X051991Y032379D02*
X051811Y032559D01*
X051811Y032604D01*
X051856Y032649D01*
X051946Y032649D01*
X051991Y032604D01*
X051991Y032379D02*
X051811Y032379D01*
X049661Y033019D02*
X049481Y032839D01*
X049481Y032794D01*
X049276Y032794D02*
X049276Y033064D01*
X049186Y033064D02*
X049366Y033064D01*
X049481Y033064D02*
X049661Y033064D01*
X049661Y033019D01*
X049036Y033343D02*
X049036Y032280D01*
X048386Y032280D02*
X048386Y033343D01*
X047410Y033449D02*
X047229Y033449D01*
X047320Y033449D02*
X047320Y033720D01*
X047229Y033630D01*
X047115Y033720D02*
X047115Y033494D01*
X047070Y033449D01*
X046980Y033449D01*
X046935Y033494D01*
X046935Y033720D01*
X047831Y032564D02*
X047786Y032519D01*
X047786Y032339D01*
X047831Y032294D01*
X047921Y032294D01*
X047966Y032339D01*
X048081Y032294D02*
X048261Y032474D01*
X048261Y032519D01*
X048216Y032564D01*
X048126Y032564D01*
X048081Y032519D01*
X047966Y032519D02*
X047921Y032564D01*
X047831Y032564D01*
X048081Y032294D02*
X048261Y032294D01*
X048231Y031983D02*
X048276Y031938D01*
X048276Y031848D01*
X048231Y031802D01*
X048141Y031802D02*
X048096Y031893D01*
X048096Y031938D01*
X048141Y031983D01*
X048231Y031983D01*
X048141Y031802D02*
X048006Y031802D01*
X048006Y031983D01*
X048051Y031688D02*
X048141Y031688D01*
X048186Y031643D01*
X048186Y031508D01*
X048186Y031598D02*
X048276Y031688D01*
X048276Y031508D02*
X048006Y031508D01*
X048006Y031643D01*
X048051Y031688D01*
X046722Y031578D02*
X046542Y031578D01*
X046677Y031713D01*
X046677Y031443D01*
X046633Y031340D02*
X046633Y031070D01*
X046543Y031070D02*
X046723Y031070D01*
X046543Y031250D02*
X046633Y031340D01*
X046428Y031295D02*
X046383Y031340D01*
X046293Y031340D01*
X046248Y031295D01*
X046248Y031115D01*
X046293Y031070D01*
X046383Y031070D01*
X046428Y031115D01*
X046427Y031443D02*
X046337Y031533D01*
X046382Y031533D02*
X046247Y031533D01*
X046247Y031443D02*
X046247Y031713D01*
X046382Y031713D01*
X046427Y031668D01*
X046427Y031578D01*
X046382Y031533D01*
X046378Y031827D02*
X046423Y031872D01*
X046378Y031827D02*
X046288Y031827D01*
X046243Y031872D01*
X046243Y032052D01*
X046288Y032097D01*
X046378Y032097D01*
X046423Y032052D01*
X046538Y032097D02*
X046718Y032097D01*
X046718Y032052D01*
X046538Y031872D01*
X046538Y031827D01*
X048857Y029997D02*
X048947Y029952D01*
X049037Y029862D01*
X048902Y029862D01*
X048857Y029817D01*
X048857Y029772D01*
X048902Y029727D01*
X048992Y029727D01*
X049037Y029772D01*
X049037Y029862D01*
X049151Y029952D02*
X049197Y029997D01*
X049287Y029997D01*
X049332Y029952D01*
X049332Y029772D01*
X049287Y029727D01*
X049197Y029727D01*
X049151Y029772D01*
X049183Y029628D02*
X049137Y029583D01*
X049137Y029493D01*
X049183Y029448D01*
X049318Y029448D01*
X049318Y029358D02*
X049318Y029628D01*
X049183Y029628D01*
X049228Y029448D02*
X049137Y029358D01*
X049023Y029403D02*
X048978Y029358D01*
X048888Y029358D01*
X048843Y029403D01*
X048843Y029448D01*
X048888Y029493D01*
X049023Y029493D01*
X049023Y029403D01*
X049023Y029493D02*
X048933Y029583D01*
X048843Y029628D01*
X049091Y029220D02*
X049046Y029175D01*
X049046Y029130D01*
X049091Y029085D01*
X049181Y029085D01*
X049226Y029130D01*
X049226Y029175D01*
X049181Y029220D01*
X049091Y029220D01*
X049091Y029085D02*
X049046Y029040D01*
X049046Y028995D01*
X049091Y028950D01*
X049181Y028950D01*
X049226Y028995D01*
X049226Y029040D01*
X049181Y029085D01*
X049341Y029085D02*
X049386Y029040D01*
X049521Y029040D01*
X049521Y028950D02*
X049521Y029220D01*
X049386Y029220D01*
X049341Y029175D01*
X049341Y029085D01*
X049431Y029040D02*
X049341Y028950D01*
X051382Y028140D02*
X051382Y028050D01*
X051427Y028005D01*
X051607Y028185D01*
X051427Y028185D01*
X051382Y028140D01*
X051427Y028005D02*
X051607Y028005D01*
X051652Y028050D01*
X051652Y028140D01*
X051607Y028185D01*
X051382Y027890D02*
X051382Y027710D01*
X051382Y027800D02*
X051652Y027800D01*
X051562Y027710D01*
X051607Y027595D02*
X051652Y027550D01*
X051652Y027460D01*
X051607Y027415D01*
X051427Y027415D01*
X051382Y027460D01*
X051382Y027550D01*
X051427Y027595D01*
X051986Y025110D02*
X052166Y025110D01*
X052166Y024975D01*
X052076Y025020D01*
X052031Y025020D01*
X051986Y024975D01*
X051986Y024885D01*
X052031Y024840D01*
X052121Y024840D01*
X052166Y024885D01*
X052280Y024840D02*
X052461Y024840D01*
X052371Y024840D02*
X052371Y025110D01*
X052461Y025020D01*
X052575Y024975D02*
X052665Y024975D01*
X052575Y024975D02*
X052575Y024885D01*
X052620Y024840D01*
X052710Y024840D01*
X052755Y024885D01*
X052755Y025065D01*
X052710Y025110D01*
X052620Y025110D01*
X052575Y025065D01*
X041732Y025065D02*
X041732Y024885D01*
X041687Y024840D01*
X041597Y024840D01*
X041551Y024885D01*
X041551Y024975D01*
X041642Y024975D01*
X041732Y025065D02*
X041687Y025110D01*
X041597Y025110D01*
X041551Y025065D01*
X041437Y025020D02*
X041347Y025110D01*
X041347Y024840D01*
X041437Y024840D02*
X041257Y024840D01*
X041142Y024885D02*
X041097Y024840D01*
X041007Y024840D01*
X040962Y024885D01*
X040962Y024975D01*
X041007Y025020D01*
X041052Y025020D01*
X041142Y024975D01*
X041142Y025110D01*
X040962Y025110D01*
X040555Y025052D02*
X040555Y024872D01*
X040510Y024827D01*
X040419Y024827D01*
X040374Y024872D01*
X040374Y024962D01*
X040464Y024962D01*
X040374Y025052D02*
X040419Y025097D01*
X040510Y025097D01*
X040555Y025052D01*
X040260Y025097D02*
X040260Y024962D01*
X040170Y025007D01*
X040125Y025007D01*
X040080Y024962D01*
X040080Y024872D01*
X040125Y024827D01*
X040215Y024827D01*
X040260Y024872D01*
X040260Y025097D02*
X040080Y025097D01*
X039552Y025052D02*
X039552Y024871D01*
X039507Y024826D01*
X039417Y024826D01*
X039372Y024871D01*
X039372Y024962D01*
X039462Y024962D01*
X039372Y025052D02*
X039417Y025097D01*
X039507Y025097D01*
X039552Y025052D01*
X039258Y024962D02*
X039122Y025097D01*
X039122Y024826D01*
X039077Y024962D02*
X039258Y024962D01*
X038699Y025044D02*
X038699Y024864D01*
X038654Y024819D01*
X038564Y024819D01*
X038519Y024864D01*
X038519Y024954D01*
X038609Y024954D01*
X038519Y025044D02*
X038564Y025089D01*
X038654Y025089D01*
X038699Y025044D01*
X038405Y024999D02*
X038315Y025089D01*
X038315Y024819D01*
X038405Y024819D02*
X038225Y024819D01*
X038110Y024954D02*
X037930Y024954D01*
X037975Y024819D02*
X037975Y025089D01*
X038110Y024954D01*
X037723Y024874D02*
X037723Y025054D01*
X037678Y025099D01*
X037588Y025099D01*
X037542Y025054D01*
X037542Y024964D02*
X037633Y024964D01*
X037542Y024964D02*
X037542Y024874D01*
X037588Y024829D01*
X037678Y024829D01*
X037723Y024874D01*
X037428Y024829D02*
X037248Y024829D01*
X037338Y024829D02*
X037338Y025099D01*
X037428Y025009D01*
X037133Y025054D02*
X037088Y025099D01*
X036998Y025099D01*
X036953Y025054D01*
X036953Y025009D01*
X036998Y024964D01*
X036953Y024919D01*
X036953Y024874D01*
X036998Y024829D01*
X037088Y024829D01*
X037133Y024874D01*
X037043Y024964D02*
X036998Y024964D01*
X036689Y024884D02*
X036689Y025064D01*
X036644Y025109D01*
X036554Y025109D01*
X036509Y025064D01*
X036509Y024974D02*
X036599Y024974D01*
X036509Y024974D02*
X036509Y024884D01*
X036554Y024839D01*
X036644Y024839D01*
X036689Y024884D01*
X036395Y024839D02*
X036215Y024839D01*
X036305Y024839D02*
X036305Y025109D01*
X036395Y025019D01*
X036100Y025064D02*
X036055Y025109D01*
X035965Y025109D01*
X035920Y025064D01*
X035920Y025019D01*
X036100Y024839D01*
X035920Y024839D01*
X036016Y026572D02*
X036107Y026572D01*
X036152Y026617D01*
X036266Y026662D02*
X036266Y026843D01*
X036152Y026798D02*
X036107Y026843D01*
X036016Y026843D01*
X035971Y026798D01*
X035971Y026753D01*
X036016Y026708D01*
X035971Y026662D01*
X035971Y026617D01*
X036016Y026572D01*
X036016Y026708D02*
X036062Y026708D01*
X036266Y026662D02*
X036356Y026572D01*
X036446Y026662D01*
X036446Y026843D01*
X036561Y026798D02*
X036561Y026753D01*
X036606Y026708D01*
X036561Y026662D01*
X036561Y026617D01*
X036606Y026572D01*
X036696Y026572D01*
X036741Y026617D01*
X036651Y026708D02*
X036606Y026708D01*
X036561Y026798D02*
X036606Y026843D01*
X036696Y026843D01*
X036741Y026798D01*
X037058Y026825D02*
X037238Y026555D01*
X037353Y026555D02*
X037443Y026645D01*
X037398Y026645D02*
X037533Y026645D01*
X037533Y026555D02*
X037533Y026825D01*
X037398Y026825D01*
X037353Y026780D01*
X037353Y026690D01*
X037398Y026645D01*
X037238Y026825D02*
X037058Y026555D01*
X038120Y026534D02*
X038300Y026804D01*
X038415Y026804D02*
X038595Y026804D01*
X038505Y026804D02*
X038505Y026534D01*
X038300Y026534D02*
X038120Y026804D01*
X038900Y026769D02*
X038900Y026589D01*
X038945Y026543D01*
X039080Y026543D01*
X039080Y026814D01*
X038945Y026814D01*
X038900Y026769D01*
X039195Y026814D02*
X039195Y026543D01*
X039375Y026814D01*
X039375Y026543D01*
X039489Y026589D02*
X039489Y026679D01*
X039579Y026679D01*
X039489Y026769D02*
X039534Y026814D01*
X039624Y026814D01*
X039669Y026769D01*
X039669Y026589D01*
X039624Y026543D01*
X039534Y026543D01*
X039489Y026589D01*
X039548Y027068D02*
X039548Y027339D01*
X039413Y027339D01*
X039368Y027294D01*
X039368Y027203D01*
X039413Y027158D01*
X039548Y027158D01*
X039458Y027158D02*
X039368Y027068D01*
X039254Y027113D02*
X039209Y027068D01*
X039118Y027068D01*
X039073Y027113D01*
X039073Y027294D01*
X039118Y027339D01*
X039209Y027339D01*
X039254Y027294D01*
X039254Y027248D01*
X039209Y027203D01*
X039073Y027203D01*
X040143Y026775D02*
X040143Y026594D01*
X040188Y026549D01*
X040279Y026549D01*
X040324Y026594D01*
X040143Y026775D01*
X040188Y026820D01*
X040279Y026820D01*
X040324Y026775D01*
X040324Y026594D01*
X040438Y026594D02*
X040438Y026685D01*
X040528Y026685D01*
X040438Y026775D02*
X040483Y026820D01*
X040573Y026820D01*
X040618Y026775D01*
X040618Y026594D01*
X040573Y026549D01*
X040483Y026549D01*
X040438Y026594D01*
X040884Y026600D02*
X040884Y026645D01*
X040929Y026690D01*
X041064Y026690D01*
X041064Y026600D01*
X041019Y026555D01*
X040929Y026555D01*
X040884Y026600D01*
X040974Y026780D02*
X040884Y026825D01*
X040974Y026780D02*
X041064Y026690D01*
X041179Y026555D02*
X041359Y026555D01*
X041269Y026555D02*
X041269Y026825D01*
X041359Y026735D01*
X041474Y026690D02*
X041564Y026690D01*
X041474Y026690D02*
X041474Y026600D01*
X041519Y026555D01*
X041609Y026555D01*
X041654Y026600D01*
X041654Y026780D01*
X041609Y026825D01*
X041519Y026825D01*
X041474Y026780D01*
X041066Y027220D02*
X041066Y028151D01*
X040672Y028151D02*
X041066Y029332D01*
X041066Y029870D01*
X041452Y029653D02*
X041452Y029383D01*
X041542Y029383D02*
X041362Y029383D01*
X041542Y029563D02*
X041452Y029653D01*
X041657Y029608D02*
X041657Y029518D01*
X041702Y029473D01*
X041837Y029473D01*
X041837Y029383D02*
X041837Y029653D01*
X041702Y029653D01*
X041657Y029608D01*
X041747Y029473D02*
X041657Y029383D01*
X040584Y028185D02*
X040404Y028005D01*
X040359Y028050D01*
X040359Y028140D01*
X040404Y028185D01*
X040584Y028185D01*
X040629Y028140D01*
X040629Y028050D01*
X040584Y028005D01*
X040404Y028005D01*
X040359Y027890D02*
X040359Y027710D01*
X040359Y027800D02*
X040629Y027800D01*
X040539Y027710D01*
X040584Y027595D02*
X040629Y027550D01*
X040629Y027460D01*
X040584Y027415D01*
X040404Y027415D01*
X040359Y027460D01*
X040359Y027550D01*
X040404Y027595D01*
X038497Y028950D02*
X038497Y029220D01*
X038362Y029220D01*
X038317Y029175D01*
X038317Y029085D01*
X038362Y029040D01*
X038497Y029040D01*
X038407Y029040D02*
X038317Y028950D01*
X038202Y028995D02*
X038202Y029040D01*
X038157Y029085D01*
X038067Y029085D01*
X038022Y029040D01*
X038022Y028995D01*
X038067Y028950D01*
X038157Y028950D01*
X038202Y028995D01*
X038157Y029085D02*
X038202Y029130D01*
X038202Y029175D01*
X038157Y029220D01*
X038067Y029220D01*
X038022Y029175D01*
X038022Y029130D01*
X038067Y029085D01*
X038114Y029358D02*
X038204Y029448D01*
X038159Y029448D02*
X038294Y029448D01*
X038294Y029358D02*
X038294Y029628D01*
X038159Y029628D01*
X038114Y029583D01*
X038114Y029493D01*
X038159Y029448D01*
X037999Y029493D02*
X037864Y029493D01*
X037819Y029448D01*
X037819Y029403D01*
X037864Y029358D01*
X037954Y029358D01*
X037999Y029403D01*
X037999Y029493D01*
X037909Y029583D01*
X037819Y029628D01*
X037878Y029727D02*
X037833Y029772D01*
X037833Y029817D01*
X037878Y029862D01*
X038013Y029862D01*
X038013Y029772D01*
X037968Y029727D01*
X037878Y029727D01*
X038013Y029862D02*
X037923Y029952D01*
X037833Y029997D01*
X038128Y029952D02*
X038173Y029997D01*
X038263Y029997D01*
X038308Y029952D01*
X038308Y029772D01*
X038263Y029727D01*
X038173Y029727D01*
X038128Y029772D01*
X040008Y030292D02*
X040054Y030247D01*
X040234Y030247D01*
X040279Y030292D01*
X040279Y030382D01*
X040234Y030427D01*
X040054Y030427D01*
X040008Y030382D01*
X040008Y030292D01*
X040099Y030337D02*
X040008Y030427D01*
X040008Y030542D02*
X040008Y030722D01*
X040008Y030632D02*
X040279Y030632D01*
X040189Y030542D01*
X041235Y031245D02*
X041415Y031245D01*
X041325Y031245D02*
X041325Y031515D01*
X041415Y031425D01*
X041530Y031245D02*
X041710Y031245D01*
X041620Y031245D02*
X041620Y031515D01*
X041710Y031425D01*
X041824Y031470D02*
X041869Y031515D01*
X041959Y031515D01*
X042004Y031470D01*
X042004Y031290D01*
X041959Y031245D01*
X041869Y031245D01*
X041824Y031290D01*
X041262Y032379D02*
X041127Y032379D01*
X041082Y032424D01*
X041082Y032604D01*
X041127Y032649D01*
X041262Y032649D01*
X041262Y032379D01*
X040967Y032379D02*
X040787Y032559D01*
X040787Y032604D01*
X040832Y032649D01*
X040922Y032649D01*
X040967Y032604D01*
X040967Y032379D02*
X040787Y032379D01*
X038637Y033019D02*
X038457Y032839D01*
X038457Y032794D01*
X038252Y032794D02*
X038252Y033064D01*
X038162Y033064D02*
X038343Y033064D01*
X038457Y033064D02*
X038637Y033064D01*
X038637Y033019D01*
X038012Y033343D02*
X038012Y032280D01*
X037363Y032280D02*
X037363Y033343D01*
X037192Y032564D02*
X037102Y032564D01*
X037057Y032519D01*
X036943Y032519D02*
X036898Y032564D01*
X036807Y032564D01*
X036762Y032519D01*
X036762Y032339D01*
X036807Y032294D01*
X036898Y032294D01*
X036943Y032339D01*
X037057Y032294D02*
X037237Y032474D01*
X037237Y032519D01*
X037192Y032564D01*
X037237Y032294D02*
X037057Y032294D01*
X037118Y031983D02*
X037208Y031983D01*
X037253Y031938D01*
X037253Y031848D01*
X037208Y031802D01*
X037118Y031802D02*
X037073Y031893D01*
X037073Y031938D01*
X037118Y031983D01*
X036983Y031983D02*
X036983Y031802D01*
X037118Y031802D01*
X037118Y031688D02*
X037163Y031643D01*
X037163Y031508D01*
X037253Y031508D02*
X036983Y031508D01*
X036983Y031643D01*
X037028Y031688D01*
X037118Y031688D01*
X037163Y031598D02*
X037253Y031688D01*
X035698Y031578D02*
X035518Y031578D01*
X035653Y031713D01*
X035653Y031443D01*
X035609Y031340D02*
X035519Y031250D01*
X035405Y031295D02*
X035360Y031340D01*
X035269Y031340D01*
X035224Y031295D01*
X035224Y031115D01*
X035269Y031070D01*
X035360Y031070D01*
X035405Y031115D01*
X035519Y031070D02*
X035699Y031070D01*
X035609Y031070D02*
X035609Y031340D01*
X035404Y031443D02*
X035313Y031533D01*
X035359Y031533D02*
X035223Y031533D01*
X035223Y031443D02*
X035223Y031713D01*
X035359Y031713D01*
X035404Y031668D01*
X035404Y031578D01*
X035359Y031533D01*
X035355Y031827D02*
X035400Y031872D01*
X035355Y031827D02*
X035264Y031827D01*
X035219Y031872D01*
X035219Y032052D01*
X035264Y032097D01*
X035355Y032097D01*
X035400Y032052D01*
X035514Y032097D02*
X035694Y032097D01*
X035694Y032052D01*
X035514Y031872D01*
X035514Y031827D01*
X035956Y033449D02*
X036046Y033449D01*
X036091Y033494D01*
X036091Y033720D01*
X036206Y033630D02*
X036296Y033720D01*
X036296Y033449D01*
X036206Y033449D02*
X036386Y033449D01*
X035956Y033449D02*
X035911Y033494D01*
X035911Y033720D01*
X030981Y031470D02*
X030981Y031290D01*
X030936Y031245D01*
X030846Y031245D01*
X030801Y031290D01*
X030686Y031245D02*
X030506Y031245D01*
X030596Y031245D02*
X030596Y031515D01*
X030686Y031425D01*
X030801Y031470D02*
X030846Y031515D01*
X030936Y031515D01*
X030981Y031470D01*
X030392Y031425D02*
X030301Y031515D01*
X030301Y031245D01*
X030211Y031245D02*
X030392Y031245D01*
X029255Y030632D02*
X028985Y030632D01*
X028985Y030542D02*
X028985Y030722D01*
X029165Y030542D02*
X029255Y030632D01*
X029210Y030427D02*
X029030Y030427D01*
X028985Y030382D01*
X028985Y030292D01*
X029030Y030247D01*
X029210Y030247D01*
X029255Y030292D01*
X029255Y030382D01*
X029210Y030427D01*
X029075Y030337D02*
X028985Y030427D01*
X030042Y029870D02*
X030042Y029332D01*
X029649Y028151D01*
X029605Y028140D02*
X029560Y028185D01*
X029380Y028005D01*
X029335Y028050D01*
X029335Y028140D01*
X029380Y028185D01*
X029560Y028185D01*
X029605Y028140D02*
X029605Y028050D01*
X029560Y028005D01*
X029380Y028005D01*
X029335Y027890D02*
X029335Y027710D01*
X029335Y027800D02*
X029605Y027800D01*
X029515Y027710D01*
X029560Y027595D02*
X029605Y027550D01*
X029605Y027460D01*
X029560Y027415D01*
X029380Y027415D01*
X029335Y027460D01*
X029335Y027550D01*
X029380Y027595D01*
X030042Y027220D02*
X030042Y028151D01*
X028525Y027339D02*
X028389Y027339D01*
X028344Y027294D01*
X028344Y027203D01*
X028389Y027158D01*
X028525Y027158D01*
X028525Y027068D02*
X028525Y027339D01*
X028435Y027158D02*
X028344Y027068D01*
X028230Y027113D02*
X028185Y027068D01*
X028095Y027068D01*
X028050Y027113D01*
X028050Y027294D01*
X028095Y027339D01*
X028185Y027339D01*
X028230Y027294D01*
X028230Y027248D01*
X028185Y027203D01*
X028050Y027203D01*
X028057Y026814D02*
X027921Y026814D01*
X027876Y026769D01*
X027876Y026589D01*
X027921Y026543D01*
X028057Y026543D01*
X028057Y026814D01*
X028171Y026814D02*
X028171Y026543D01*
X028351Y026814D01*
X028351Y026543D01*
X028466Y026589D02*
X028466Y026679D01*
X028556Y026679D01*
X028646Y026769D02*
X028646Y026589D01*
X028601Y026543D01*
X028511Y026543D01*
X028466Y026589D01*
X028466Y026769D02*
X028511Y026814D01*
X028601Y026814D01*
X028646Y026769D01*
X029120Y026775D02*
X029300Y026594D01*
X029255Y026549D01*
X029165Y026549D01*
X029120Y026594D01*
X029120Y026775D01*
X029165Y026820D01*
X029255Y026820D01*
X029300Y026775D01*
X029300Y026594D01*
X029414Y026594D02*
X029414Y026685D01*
X029505Y026685D01*
X029595Y026775D02*
X029595Y026594D01*
X029550Y026549D01*
X029460Y026549D01*
X029414Y026594D01*
X029414Y026775D02*
X029460Y026820D01*
X029550Y026820D01*
X029595Y026775D01*
X029861Y026825D02*
X029951Y026780D01*
X030041Y026690D01*
X029906Y026690D01*
X029861Y026645D01*
X029861Y026600D01*
X029906Y026555D01*
X029996Y026555D01*
X030041Y026600D01*
X030041Y026690D01*
X030155Y026555D02*
X030335Y026555D01*
X030245Y026555D02*
X030245Y026825D01*
X030335Y026735D01*
X030450Y026690D02*
X030540Y026690D01*
X030450Y026690D02*
X030450Y026600D01*
X030495Y026555D01*
X030585Y026555D01*
X030630Y026600D01*
X030630Y026780D01*
X030585Y026825D01*
X030495Y026825D01*
X030450Y026780D01*
X030573Y025110D02*
X030663Y025110D01*
X030708Y025065D01*
X030708Y024885D01*
X030663Y024840D01*
X030573Y024840D01*
X030528Y024885D01*
X030528Y024975D01*
X030618Y024975D01*
X030528Y025065D02*
X030573Y025110D01*
X030413Y025020D02*
X030323Y025110D01*
X030323Y024840D01*
X030413Y024840D02*
X030233Y024840D01*
X030119Y024885D02*
X030074Y024840D01*
X029984Y024840D01*
X029939Y024885D01*
X029939Y024975D01*
X029984Y025020D01*
X030029Y025020D01*
X030119Y024975D01*
X030119Y025110D01*
X029939Y025110D01*
X029531Y025052D02*
X029531Y024872D01*
X029486Y024827D01*
X029396Y024827D01*
X029351Y024872D01*
X029351Y024962D01*
X029441Y024962D01*
X029531Y025052D02*
X029486Y025097D01*
X029396Y025097D01*
X029351Y025052D01*
X029236Y025097D02*
X029236Y024962D01*
X029146Y025007D01*
X029101Y025007D01*
X029056Y024962D01*
X029056Y024872D01*
X029101Y024827D01*
X029191Y024827D01*
X029236Y024872D01*
X029236Y025097D02*
X029056Y025097D01*
X028529Y025052D02*
X028529Y024871D01*
X028484Y024826D01*
X028394Y024826D01*
X028348Y024871D01*
X028348Y024962D01*
X028439Y024962D01*
X028529Y025052D02*
X028484Y025097D01*
X028394Y025097D01*
X028348Y025052D01*
X028234Y024962D02*
X028099Y025097D01*
X028099Y024826D01*
X028054Y024962D02*
X028234Y024962D01*
X027676Y025044D02*
X027676Y024864D01*
X027631Y024819D01*
X027541Y024819D01*
X027496Y024864D01*
X027496Y024954D01*
X027586Y024954D01*
X027676Y025044D02*
X027631Y025089D01*
X027541Y025089D01*
X027496Y025044D01*
X027381Y024999D02*
X027291Y025089D01*
X027291Y024819D01*
X027381Y024819D02*
X027201Y024819D01*
X027086Y024954D02*
X026906Y024954D01*
X026951Y024819D02*
X026951Y025089D01*
X027086Y024954D01*
X026699Y024874D02*
X026654Y024829D01*
X026564Y024829D01*
X026519Y024874D01*
X026519Y024964D01*
X026609Y024964D01*
X026699Y025054D02*
X026699Y024874D01*
X026699Y025054D02*
X026654Y025099D01*
X026564Y025099D01*
X026519Y025054D01*
X026404Y025009D02*
X026314Y025099D01*
X026314Y024829D01*
X026404Y024829D02*
X026224Y024829D01*
X026110Y024874D02*
X026065Y024829D01*
X025975Y024829D01*
X025930Y024874D01*
X025930Y024919D01*
X025975Y024964D01*
X026020Y024964D01*
X025975Y024964D02*
X025930Y025009D01*
X025930Y025054D01*
X025975Y025099D01*
X026065Y025099D01*
X026110Y025054D01*
X025666Y025064D02*
X025666Y024884D01*
X025621Y024839D01*
X025531Y024839D01*
X025486Y024884D01*
X025486Y024974D01*
X025576Y024974D01*
X025666Y025064D02*
X025621Y025109D01*
X025531Y025109D01*
X025486Y025064D01*
X025371Y025019D02*
X025281Y025109D01*
X025281Y024839D01*
X025371Y024839D02*
X025191Y024839D01*
X025077Y024839D02*
X024896Y025019D01*
X024896Y025064D01*
X024941Y025109D01*
X025032Y025109D01*
X025077Y025064D01*
X025077Y024839D02*
X024896Y024839D01*
X024993Y026572D02*
X025083Y026572D01*
X025128Y026617D01*
X025242Y026662D02*
X025242Y026843D01*
X025128Y026798D02*
X025083Y026843D01*
X024993Y026843D01*
X024948Y026798D01*
X024948Y026753D01*
X024993Y026708D01*
X024948Y026662D01*
X024948Y026617D01*
X024993Y026572D01*
X024993Y026708D02*
X025038Y026708D01*
X025242Y026662D02*
X025333Y026572D01*
X025423Y026662D01*
X025423Y026843D01*
X025537Y026798D02*
X025537Y026753D01*
X025582Y026708D01*
X025537Y026662D01*
X025537Y026617D01*
X025582Y026572D01*
X025672Y026572D01*
X025717Y026617D01*
X025627Y026708D02*
X025582Y026708D01*
X025537Y026798D02*
X025582Y026843D01*
X025672Y026843D01*
X025717Y026798D01*
X026034Y026825D02*
X026215Y026555D01*
X026329Y026555D02*
X026419Y026645D01*
X026374Y026645D02*
X026509Y026645D01*
X026509Y026555D02*
X026509Y026825D01*
X026374Y026825D01*
X026329Y026780D01*
X026329Y026690D01*
X026374Y026645D01*
X026215Y026825D02*
X026034Y026555D01*
X027097Y026534D02*
X027277Y026804D01*
X027391Y026804D02*
X027571Y026804D01*
X027481Y026804D02*
X027481Y026534D01*
X027277Y026534D02*
X027097Y026804D01*
X027134Y028950D02*
X027179Y028995D01*
X027179Y029040D01*
X027134Y029085D01*
X027044Y029085D01*
X026999Y029040D01*
X026999Y028995D01*
X027044Y028950D01*
X027134Y028950D01*
X027134Y029085D02*
X027179Y029130D01*
X027179Y029175D01*
X027134Y029220D01*
X027044Y029220D01*
X026999Y029175D01*
X026999Y029130D01*
X027044Y029085D01*
X027293Y029085D02*
X027338Y029040D01*
X027473Y029040D01*
X027383Y029040D02*
X027293Y028950D01*
X027293Y029085D02*
X027293Y029175D01*
X027338Y029220D01*
X027473Y029220D01*
X027473Y028950D01*
X027270Y029358D02*
X027270Y029628D01*
X027135Y029628D01*
X027090Y029583D01*
X027090Y029493D01*
X027135Y029448D01*
X027270Y029448D01*
X027180Y029448D02*
X027090Y029358D01*
X026976Y029403D02*
X026931Y029358D01*
X026841Y029358D01*
X026796Y029403D01*
X026796Y029448D01*
X026841Y029493D01*
X026976Y029493D01*
X026976Y029403D01*
X026976Y029493D02*
X026886Y029583D01*
X026796Y029628D01*
X026855Y029727D02*
X026810Y029772D01*
X026810Y029817D01*
X026855Y029862D01*
X026990Y029862D01*
X026990Y029772D01*
X026945Y029727D01*
X026855Y029727D01*
X026990Y029862D02*
X026900Y029952D01*
X026810Y029997D01*
X027104Y029952D02*
X027149Y029997D01*
X027239Y029997D01*
X027284Y029952D01*
X027284Y029772D01*
X027239Y029727D01*
X027149Y029727D01*
X027104Y029772D01*
X026229Y031508D02*
X025959Y031508D01*
X025959Y031643D01*
X026004Y031688D01*
X026094Y031688D01*
X026139Y031643D01*
X026139Y031508D01*
X026139Y031598D02*
X026229Y031688D01*
X026184Y031802D02*
X026229Y031848D01*
X026229Y031938D01*
X026184Y031983D01*
X026094Y031983D01*
X026049Y031938D01*
X026049Y031893D01*
X026094Y031802D01*
X025959Y031802D01*
X025959Y031983D01*
X026033Y032294D02*
X026214Y032474D01*
X026214Y032519D01*
X026169Y032564D01*
X026078Y032564D01*
X026033Y032519D01*
X025919Y032519D02*
X025874Y032564D01*
X025784Y032564D01*
X025739Y032519D01*
X025739Y032339D01*
X025784Y032294D01*
X025874Y032294D01*
X025919Y032339D01*
X026033Y032294D02*
X026214Y032294D01*
X026339Y032280D02*
X026339Y033343D01*
X026989Y033343D02*
X026989Y032280D01*
X027229Y032794D02*
X027229Y033064D01*
X027139Y033064D02*
X027319Y033064D01*
X027433Y033064D02*
X027614Y033064D01*
X027614Y033019D01*
X027433Y032839D01*
X027433Y032794D01*
X025362Y033449D02*
X025182Y033449D01*
X025272Y033449D02*
X025272Y033720D01*
X025182Y033630D01*
X025068Y033720D02*
X025068Y033494D01*
X025023Y033449D01*
X024933Y033449D01*
X024888Y033494D01*
X024888Y033720D01*
X024671Y032097D02*
X024671Y032052D01*
X024490Y031872D01*
X024490Y031827D01*
X024376Y031872D02*
X024331Y031827D01*
X024241Y031827D01*
X024196Y031872D01*
X024196Y032052D01*
X024241Y032097D01*
X024331Y032097D01*
X024376Y032052D01*
X024490Y032097D02*
X024671Y032097D01*
X024630Y031713D02*
X024494Y031578D01*
X024675Y031578D01*
X024630Y031443D02*
X024630Y031713D01*
X024380Y031668D02*
X024380Y031578D01*
X024335Y031533D01*
X024200Y031533D01*
X024290Y031533D02*
X024380Y031443D01*
X024336Y031340D02*
X024246Y031340D01*
X024201Y031295D01*
X024201Y031115D01*
X024246Y031070D01*
X024336Y031070D01*
X024381Y031115D01*
X024495Y031070D02*
X024676Y031070D01*
X024586Y031070D02*
X024586Y031340D01*
X024495Y031250D01*
X024381Y031295D02*
X024336Y031340D01*
X024200Y031443D02*
X024200Y031713D01*
X024335Y031713D01*
X024380Y031668D01*
X019957Y031470D02*
X019957Y031290D01*
X019912Y031245D01*
X019822Y031245D01*
X019777Y031290D01*
X019663Y031245D02*
X019482Y031245D01*
X019573Y031245D02*
X019573Y031515D01*
X019663Y031425D01*
X019777Y031470D02*
X019822Y031515D01*
X019912Y031515D01*
X019957Y031470D01*
X019368Y031425D02*
X019278Y031515D01*
X019278Y031245D01*
X019368Y031245D02*
X019188Y031245D01*
X018231Y030632D02*
X017961Y030632D01*
X017961Y030542D02*
X017961Y030722D01*
X018141Y030542D02*
X018231Y030632D01*
X018186Y030427D02*
X018006Y030427D01*
X017961Y030382D01*
X017961Y030292D01*
X018006Y030247D01*
X018186Y030247D01*
X018231Y030292D01*
X018231Y030382D01*
X018186Y030427D01*
X018051Y030337D02*
X017961Y030427D01*
X019019Y029870D02*
X019019Y029332D01*
X018625Y028151D01*
X018581Y028140D02*
X018536Y028185D01*
X018356Y028005D01*
X018311Y028050D01*
X018311Y028140D01*
X018356Y028185D01*
X018536Y028185D01*
X018581Y028140D02*
X018581Y028050D01*
X018536Y028005D01*
X018356Y028005D01*
X018311Y027890D02*
X018311Y027710D01*
X018311Y027800D02*
X018581Y027800D01*
X018491Y027710D01*
X018536Y027595D02*
X018581Y027550D01*
X018581Y027460D01*
X018536Y027415D01*
X018356Y027415D01*
X018311Y027460D01*
X018311Y027550D01*
X018356Y027595D01*
X017501Y027339D02*
X017366Y027339D01*
X017321Y027294D01*
X017321Y027203D01*
X017366Y027158D01*
X017501Y027158D01*
X017501Y027068D02*
X017501Y027339D01*
X017411Y027158D02*
X017321Y027068D01*
X017206Y027113D02*
X017161Y027068D01*
X017071Y027068D01*
X017026Y027113D01*
X017026Y027294D01*
X017071Y027339D01*
X017161Y027339D01*
X017206Y027294D01*
X017206Y027248D01*
X017161Y027203D01*
X017026Y027203D01*
X017033Y026814D02*
X016898Y026814D01*
X016853Y026769D01*
X016853Y026589D01*
X016898Y026543D01*
X017033Y026543D01*
X017033Y026814D01*
X017147Y026814D02*
X017147Y026543D01*
X017328Y026814D01*
X017328Y026543D01*
X017442Y026589D02*
X017442Y026679D01*
X017532Y026679D01*
X017442Y026769D02*
X017487Y026814D01*
X017577Y026814D01*
X017622Y026769D01*
X017622Y026589D01*
X017577Y026543D01*
X017487Y026543D01*
X017442Y026589D01*
X018096Y026594D02*
X018096Y026775D01*
X018276Y026594D01*
X018231Y026549D01*
X018141Y026549D01*
X018096Y026594D01*
X018276Y026594D02*
X018276Y026775D01*
X018231Y026820D01*
X018141Y026820D01*
X018096Y026775D01*
X018391Y026775D02*
X018436Y026820D01*
X018526Y026820D01*
X018571Y026775D01*
X018571Y026594D01*
X018526Y026549D01*
X018436Y026549D01*
X018391Y026594D01*
X018391Y026685D01*
X018481Y026685D01*
X018837Y026645D02*
X018882Y026690D01*
X019017Y026690D01*
X019017Y026600D01*
X018972Y026555D01*
X018882Y026555D01*
X018837Y026600D01*
X018837Y026645D01*
X018927Y026780D02*
X019017Y026690D01*
X018927Y026780D02*
X018837Y026825D01*
X019222Y026825D02*
X019222Y026555D01*
X019312Y026555D02*
X019132Y026555D01*
X019312Y026735D02*
X019222Y026825D01*
X019426Y026780D02*
X019471Y026825D01*
X019561Y026825D01*
X019606Y026780D01*
X019606Y026600D01*
X019561Y026555D01*
X019471Y026555D01*
X019426Y026600D01*
X019426Y026690D01*
X019516Y026690D01*
X019019Y027220D02*
X019019Y028151D01*
X019315Y029383D02*
X019495Y029383D01*
X019405Y029383D02*
X019405Y029653D01*
X019495Y029563D01*
X019609Y029518D02*
X019654Y029473D01*
X019790Y029473D01*
X019790Y029383D02*
X019790Y029653D01*
X019654Y029653D01*
X019609Y029608D01*
X019609Y029518D01*
X019699Y029473D02*
X019609Y029383D01*
X016450Y029220D02*
X016315Y029220D01*
X016270Y029175D01*
X016270Y029085D01*
X016315Y029040D01*
X016450Y029040D01*
X016450Y028950D02*
X016450Y029220D01*
X016360Y029040D02*
X016270Y028950D01*
X016155Y028995D02*
X016155Y029040D01*
X016110Y029085D01*
X016020Y029085D01*
X015975Y029040D01*
X015975Y028995D01*
X016020Y028950D01*
X016110Y028950D01*
X016155Y028995D01*
X016110Y029085D02*
X016155Y029130D01*
X016155Y029175D01*
X016110Y029220D01*
X016020Y029220D01*
X015975Y029175D01*
X015975Y029130D01*
X016020Y029085D01*
X016067Y029358D02*
X016157Y029448D01*
X016112Y029448D02*
X016247Y029448D01*
X016247Y029358D02*
X016247Y029628D01*
X016112Y029628D01*
X016067Y029583D01*
X016067Y029493D01*
X016112Y029448D01*
X015952Y029493D02*
X015817Y029493D01*
X015772Y029448D01*
X015772Y029403D01*
X015817Y029358D01*
X015907Y029358D01*
X015952Y029403D01*
X015952Y029493D01*
X015862Y029583D01*
X015772Y029628D01*
X015831Y029727D02*
X015786Y029772D01*
X015786Y029817D01*
X015831Y029862D01*
X015966Y029862D01*
X015966Y029772D01*
X015921Y029727D01*
X015831Y029727D01*
X015966Y029862D02*
X015876Y029952D01*
X015786Y029997D01*
X016081Y029952D02*
X016126Y029997D01*
X016216Y029997D01*
X016261Y029952D01*
X016261Y029772D01*
X016216Y029727D01*
X016126Y029727D01*
X016081Y029772D01*
X015206Y031508D02*
X014935Y031508D01*
X014935Y031643D01*
X014980Y031688D01*
X015070Y031688D01*
X015116Y031643D01*
X015116Y031508D01*
X015116Y031598D02*
X015206Y031688D01*
X015161Y031802D02*
X015206Y031848D01*
X015206Y031938D01*
X015161Y031983D01*
X015070Y031983D01*
X015025Y031938D01*
X015025Y031893D01*
X015070Y031802D01*
X014935Y031802D01*
X014935Y031983D01*
X015010Y032294D02*
X015190Y032474D01*
X015190Y032519D01*
X015145Y032564D01*
X015055Y032564D01*
X015010Y032519D01*
X014895Y032519D02*
X014850Y032564D01*
X014760Y032564D01*
X014715Y032519D01*
X014715Y032339D01*
X014760Y032294D01*
X014850Y032294D01*
X014895Y032339D01*
X015010Y032294D02*
X015190Y032294D01*
X015315Y032280D02*
X015315Y033343D01*
X015965Y033343D02*
X015965Y032280D01*
X016205Y032794D02*
X016205Y033064D01*
X016115Y033064D02*
X016295Y033064D01*
X016410Y033064D02*
X016590Y033064D01*
X016590Y033019D01*
X016410Y032839D01*
X016410Y032794D01*
X014339Y033449D02*
X014159Y033449D01*
X014249Y033449D02*
X014249Y033720D01*
X014159Y033630D01*
X014044Y033720D02*
X014044Y033494D01*
X013999Y033449D01*
X013909Y033449D01*
X013864Y033494D01*
X013864Y033720D01*
X013647Y032097D02*
X013467Y032097D01*
X013352Y032052D02*
X013307Y032097D01*
X013217Y032097D01*
X013172Y032052D01*
X013172Y031872D01*
X013217Y031827D01*
X013307Y031827D01*
X013352Y031872D01*
X013467Y031872D02*
X013467Y031827D01*
X013467Y031872D02*
X013647Y032052D01*
X013647Y032097D01*
X013606Y031713D02*
X013471Y031578D01*
X013651Y031578D01*
X013606Y031443D02*
X013606Y031713D01*
X013356Y031668D02*
X013356Y031578D01*
X013311Y031533D01*
X013176Y031533D01*
X013266Y031533D02*
X013356Y031443D01*
X013312Y031340D02*
X013222Y031340D01*
X013177Y031295D01*
X013177Y031115D01*
X013222Y031070D01*
X013312Y031070D01*
X013357Y031115D01*
X013472Y031070D02*
X013652Y031070D01*
X013562Y031070D02*
X013562Y031340D01*
X013472Y031250D01*
X013357Y031295D02*
X013312Y031340D01*
X013176Y031443D02*
X013176Y031713D01*
X013311Y031713D01*
X013356Y031668D01*
X008934Y031470D02*
X008934Y031290D01*
X008889Y031245D01*
X008798Y031245D01*
X008753Y031290D01*
X008639Y031245D02*
X008459Y031245D01*
X008549Y031245D02*
X008549Y031515D01*
X008639Y031425D01*
X008753Y031470D02*
X008798Y031515D01*
X008889Y031515D01*
X008934Y031470D01*
X008344Y031425D02*
X008254Y031515D01*
X008254Y031245D01*
X008344Y031245D02*
X008164Y031245D01*
X007208Y030632D02*
X006938Y030632D01*
X006938Y030542D02*
X006938Y030722D01*
X007118Y030542D02*
X007208Y030632D01*
X007163Y030427D02*
X006983Y030427D01*
X006938Y030382D01*
X006938Y030292D01*
X006983Y030247D01*
X007163Y030247D01*
X007208Y030292D01*
X007208Y030382D01*
X007163Y030427D01*
X007028Y030337D02*
X006938Y030427D01*
X007995Y029870D02*
X007995Y029332D01*
X007601Y028151D01*
X007558Y028140D02*
X007513Y028185D01*
X007333Y028005D01*
X007288Y028050D01*
X007288Y028140D01*
X007333Y028185D01*
X007513Y028185D01*
X007558Y028140D02*
X007558Y028050D01*
X007513Y028005D01*
X007333Y028005D01*
X007288Y027890D02*
X007288Y027710D01*
X007288Y027800D02*
X007558Y027800D01*
X007468Y027710D01*
X007513Y027595D02*
X007558Y027550D01*
X007558Y027460D01*
X007513Y027415D01*
X007333Y027415D01*
X007288Y027460D01*
X007288Y027550D01*
X007333Y027595D01*
X007995Y027220D02*
X007995Y028151D01*
X008291Y029383D02*
X008471Y029383D01*
X008381Y029383D02*
X008381Y029653D01*
X008471Y029563D01*
X008586Y029518D02*
X008631Y029473D01*
X008766Y029473D01*
X008766Y029383D02*
X008766Y029653D01*
X008631Y029653D01*
X008586Y029608D01*
X008586Y029518D01*
X008676Y029473D02*
X008586Y029383D01*
X006477Y027339D02*
X006342Y027339D01*
X006297Y027294D01*
X006297Y027203D01*
X006342Y027158D01*
X006477Y027158D01*
X006477Y027068D02*
X006477Y027339D01*
X006387Y027158D02*
X006297Y027068D01*
X006183Y027113D02*
X006138Y027068D01*
X006048Y027068D01*
X006003Y027113D01*
X006003Y027294D01*
X006048Y027339D01*
X006138Y027339D01*
X006183Y027294D01*
X006183Y027248D01*
X006138Y027203D01*
X006003Y027203D01*
X006009Y026814D02*
X005874Y026814D01*
X005829Y026769D01*
X005829Y026589D01*
X005874Y026543D01*
X006009Y026543D01*
X006009Y026814D01*
X006124Y026814D02*
X006124Y026543D01*
X006304Y026814D01*
X006304Y026543D01*
X006418Y026589D02*
X006418Y026679D01*
X006509Y026679D01*
X006599Y026769D02*
X006599Y026589D01*
X006554Y026543D01*
X006464Y026543D01*
X006418Y026589D01*
X006418Y026769D02*
X006464Y026814D01*
X006554Y026814D01*
X006599Y026769D01*
X007073Y026775D02*
X007253Y026594D01*
X007208Y026549D01*
X007118Y026549D01*
X007073Y026594D01*
X007073Y026775D01*
X007118Y026820D01*
X007208Y026820D01*
X007253Y026775D01*
X007253Y026594D01*
X007367Y026594D02*
X007367Y026685D01*
X007457Y026685D01*
X007367Y026775D02*
X007412Y026820D01*
X007502Y026820D01*
X007547Y026775D01*
X007547Y026594D01*
X007502Y026549D01*
X007412Y026549D01*
X007367Y026594D01*
X007813Y026600D02*
X007813Y026645D01*
X007858Y026690D01*
X007994Y026690D01*
X007994Y026600D01*
X007948Y026555D01*
X007858Y026555D01*
X007813Y026600D01*
X007903Y026780D02*
X007994Y026690D01*
X007903Y026780D02*
X007813Y026825D01*
X008198Y026825D02*
X008198Y026555D01*
X008288Y026555D02*
X008108Y026555D01*
X008288Y026735D02*
X008198Y026825D01*
X008403Y026780D02*
X008448Y026825D01*
X008538Y026825D01*
X008583Y026780D01*
X008583Y026600D01*
X008538Y026555D01*
X008448Y026555D01*
X008403Y026600D01*
X008403Y026690D01*
X008493Y026690D01*
X008526Y025110D02*
X008616Y025110D01*
X008661Y025065D01*
X008661Y024885D01*
X008616Y024840D01*
X008526Y024840D01*
X008481Y024885D01*
X008481Y024975D01*
X008571Y024975D01*
X008481Y025065D02*
X008526Y025110D01*
X008366Y025020D02*
X008276Y025110D01*
X008276Y024840D01*
X008366Y024840D02*
X008186Y024840D01*
X008071Y024885D02*
X008026Y024840D01*
X007936Y024840D01*
X007891Y024885D01*
X007891Y024975D01*
X007936Y025020D01*
X007981Y025020D01*
X008071Y024975D01*
X008071Y025110D01*
X007891Y025110D01*
X007484Y025052D02*
X007484Y024872D01*
X007439Y024827D01*
X007349Y024827D01*
X007304Y024872D01*
X007304Y024962D01*
X007394Y024962D01*
X007484Y025052D02*
X007439Y025097D01*
X007349Y025097D01*
X007304Y025052D01*
X007189Y025097D02*
X007189Y024962D01*
X007099Y025007D01*
X007054Y025007D01*
X007009Y024962D01*
X007009Y024872D01*
X007054Y024827D01*
X007144Y024827D01*
X007189Y024872D01*
X007189Y025097D02*
X007009Y025097D01*
X006481Y025052D02*
X006481Y024871D01*
X006436Y024826D01*
X006346Y024826D01*
X006301Y024871D01*
X006301Y024962D01*
X006391Y024962D01*
X006301Y025052D02*
X006346Y025097D01*
X006436Y025097D01*
X006481Y025052D01*
X006187Y024962D02*
X006052Y025097D01*
X006052Y024826D01*
X006007Y024962D02*
X006187Y024962D01*
X005628Y025044D02*
X005628Y024864D01*
X005583Y024819D01*
X005493Y024819D01*
X005448Y024864D01*
X005448Y024954D01*
X005538Y024954D01*
X005448Y025044D02*
X005493Y025089D01*
X005583Y025089D01*
X005628Y025044D01*
X005334Y024999D02*
X005244Y025089D01*
X005244Y024819D01*
X005334Y024819D02*
X005154Y024819D01*
X005039Y024954D02*
X004859Y024954D01*
X004904Y024819D02*
X004904Y025089D01*
X005039Y024954D01*
X004652Y024874D02*
X004652Y025054D01*
X004607Y025099D01*
X004517Y025099D01*
X004472Y025054D01*
X004472Y024964D02*
X004562Y024964D01*
X004472Y024964D02*
X004472Y024874D01*
X004517Y024829D01*
X004607Y024829D01*
X004652Y024874D01*
X004357Y024829D02*
X004177Y024829D01*
X004267Y024829D02*
X004267Y025099D01*
X004357Y025009D01*
X004062Y025054D02*
X004017Y025099D01*
X003927Y025099D01*
X003882Y025054D01*
X003882Y025009D01*
X003927Y024964D01*
X003882Y024919D01*
X003882Y024874D01*
X003927Y024829D01*
X004017Y024829D01*
X004062Y024874D01*
X003972Y024964D02*
X003927Y024964D01*
X003619Y024884D02*
X003574Y024839D01*
X003484Y024839D01*
X003438Y024884D01*
X003438Y024974D01*
X003529Y024974D01*
X003619Y025064D02*
X003619Y024884D01*
X003619Y025064D02*
X003574Y025109D01*
X003484Y025109D01*
X003438Y025064D01*
X003324Y025019D02*
X003234Y025109D01*
X003234Y024839D01*
X003324Y024839D02*
X003144Y024839D01*
X003029Y024839D02*
X002849Y025019D01*
X002849Y025064D01*
X002894Y025109D01*
X002984Y025109D01*
X003029Y025064D01*
X003029Y024839D02*
X002849Y024839D01*
X002946Y026572D02*
X003036Y026572D01*
X003081Y026617D01*
X003195Y026662D02*
X003195Y026843D01*
X003081Y026798D02*
X003036Y026843D01*
X002946Y026843D01*
X002901Y026798D01*
X002901Y026753D01*
X002946Y026708D01*
X002901Y026662D01*
X002901Y026617D01*
X002946Y026572D01*
X002946Y026708D02*
X002991Y026708D01*
X003195Y026662D02*
X003285Y026572D01*
X003375Y026662D01*
X003375Y026843D01*
X003490Y026798D02*
X003490Y026753D01*
X003535Y026708D01*
X003490Y026662D01*
X003490Y026617D01*
X003535Y026572D01*
X003625Y026572D01*
X003670Y026617D01*
X003580Y026708D02*
X003535Y026708D01*
X003490Y026798D02*
X003535Y026843D01*
X003625Y026843D01*
X003670Y026798D01*
X003987Y026825D02*
X004167Y026555D01*
X004282Y026555D02*
X004372Y026645D01*
X004327Y026645D02*
X004462Y026645D01*
X004462Y026555D02*
X004462Y026825D01*
X004327Y026825D01*
X004282Y026780D01*
X004282Y026690D01*
X004327Y026645D01*
X004167Y026825D02*
X003987Y026555D01*
X005049Y026534D02*
X005230Y026804D01*
X005344Y026804D02*
X005524Y026804D01*
X005434Y026804D02*
X005434Y026534D01*
X005230Y026534D02*
X005049Y026804D01*
X005086Y028950D02*
X005132Y028995D01*
X005132Y029040D01*
X005086Y029085D01*
X004996Y029085D01*
X004951Y029040D01*
X004951Y028995D01*
X004996Y028950D01*
X005086Y028950D01*
X005086Y029085D02*
X005132Y029130D01*
X005132Y029175D01*
X005086Y029220D01*
X004996Y029220D01*
X004951Y029175D01*
X004951Y029130D01*
X004996Y029085D01*
X005246Y029085D02*
X005291Y029040D01*
X005426Y029040D01*
X005426Y028950D02*
X005426Y029220D01*
X005291Y029220D01*
X005246Y029175D01*
X005246Y029085D01*
X005336Y029040D02*
X005246Y028950D01*
X005223Y029358D02*
X005223Y029628D01*
X005088Y029628D01*
X005043Y029583D01*
X005043Y029493D01*
X005088Y029448D01*
X005223Y029448D01*
X005133Y029448D02*
X005043Y029358D01*
X004929Y029403D02*
X004883Y029358D01*
X004793Y029358D01*
X004748Y029403D01*
X004748Y029448D01*
X004793Y029493D01*
X004929Y029493D01*
X004929Y029403D01*
X004929Y029493D02*
X004838Y029583D01*
X004748Y029628D01*
X004807Y029727D02*
X004762Y029772D01*
X004762Y029817D01*
X004807Y029862D01*
X004943Y029862D01*
X004943Y029772D01*
X004897Y029727D01*
X004807Y029727D01*
X004943Y029862D02*
X004852Y029952D01*
X004762Y029997D01*
X005057Y029952D02*
X005102Y029997D01*
X005192Y029997D01*
X005237Y029952D01*
X005237Y029772D01*
X005192Y029727D01*
X005102Y029727D01*
X005057Y029772D01*
X004182Y031508D02*
X003912Y031508D01*
X003912Y031643D01*
X003957Y031688D01*
X004047Y031688D01*
X004092Y031643D01*
X004092Y031508D01*
X004092Y031598D02*
X004182Y031688D01*
X004137Y031802D02*
X004182Y031848D01*
X004182Y031938D01*
X004137Y031983D01*
X004047Y031983D01*
X004002Y031938D01*
X004002Y031893D01*
X004047Y031802D01*
X003912Y031802D01*
X003912Y031983D01*
X003986Y032294D02*
X004166Y032474D01*
X004166Y032519D01*
X004121Y032564D01*
X004031Y032564D01*
X003986Y032519D01*
X003872Y032519D02*
X003827Y032564D01*
X003737Y032564D01*
X003692Y032519D01*
X003692Y032339D01*
X003737Y032294D01*
X003827Y032294D01*
X003872Y032339D01*
X003986Y032294D02*
X004166Y032294D01*
X004292Y032280D02*
X004292Y033343D01*
X004941Y033343D02*
X004941Y032280D01*
X005182Y032794D02*
X005182Y033064D01*
X005092Y033064D02*
X005272Y033064D01*
X005386Y033064D02*
X005566Y033064D01*
X005566Y033019D01*
X005386Y032839D01*
X005386Y032794D01*
X003315Y033449D02*
X003135Y033449D01*
X003225Y033449D02*
X003225Y033720D01*
X003135Y033630D01*
X003020Y033720D02*
X003020Y033494D01*
X002975Y033449D01*
X002885Y033449D01*
X002840Y033494D01*
X002840Y033720D01*
X002623Y032097D02*
X002623Y032052D01*
X002443Y031872D01*
X002443Y031827D01*
X002329Y031872D02*
X002284Y031827D01*
X002194Y031827D01*
X002149Y031872D01*
X002149Y032052D01*
X002194Y032097D01*
X002284Y032097D01*
X002329Y032052D01*
X002443Y032097D02*
X002623Y032097D01*
X002582Y031713D02*
X002447Y031578D01*
X002627Y031578D01*
X002582Y031443D02*
X002582Y031713D01*
X002333Y031668D02*
X002333Y031578D01*
X002288Y031533D01*
X002153Y031533D01*
X002243Y031533D02*
X002333Y031443D01*
X002289Y031340D02*
X002199Y031340D01*
X002154Y031295D01*
X002154Y031115D01*
X002199Y031070D01*
X002289Y031070D01*
X002334Y031115D01*
X002448Y031070D02*
X002628Y031070D01*
X002538Y031070D02*
X002538Y031340D01*
X002448Y031250D01*
X002334Y031295D02*
X002289Y031340D01*
X002153Y031443D02*
X002153Y031713D01*
X002288Y031713D01*
X002333Y031668D01*
X007716Y032379D02*
X007896Y032379D01*
X007716Y032559D01*
X007716Y032604D01*
X007761Y032649D01*
X007851Y032649D01*
X007896Y032604D01*
X008011Y032604D02*
X008056Y032649D01*
X008191Y032649D01*
X008191Y032379D01*
X008056Y032379D01*
X008011Y032424D01*
X008011Y032604D01*
X013924Y026798D02*
X013924Y026753D01*
X013969Y026708D01*
X013924Y026662D01*
X013924Y026617D01*
X013969Y026572D01*
X014059Y026572D01*
X014104Y026617D01*
X014219Y026662D02*
X014219Y026843D01*
X014104Y026798D02*
X014059Y026843D01*
X013969Y026843D01*
X013924Y026798D01*
X013969Y026708D02*
X014014Y026708D01*
X014219Y026662D02*
X014309Y026572D01*
X014399Y026662D01*
X014399Y026843D01*
X014513Y026798D02*
X014513Y026753D01*
X014559Y026708D01*
X014513Y026662D01*
X014513Y026617D01*
X014559Y026572D01*
X014649Y026572D01*
X014694Y026617D01*
X014604Y026708D02*
X014559Y026708D01*
X014513Y026798D02*
X014559Y026843D01*
X014649Y026843D01*
X014694Y026798D01*
X015011Y026825D02*
X015191Y026555D01*
X015305Y026555D02*
X015396Y026645D01*
X015351Y026645D02*
X015486Y026645D01*
X015486Y026555D02*
X015486Y026825D01*
X015351Y026825D01*
X015305Y026780D01*
X015305Y026690D01*
X015351Y026645D01*
X015191Y026825D02*
X015011Y026555D01*
X016073Y026534D02*
X016253Y026804D01*
X016368Y026804D02*
X016548Y026804D01*
X016458Y026804D02*
X016458Y026534D01*
X016253Y026534D02*
X016073Y026804D01*
X015928Y025089D02*
X016063Y024954D01*
X015883Y024954D01*
X015928Y024819D02*
X015928Y025089D01*
X015675Y025054D02*
X015675Y024874D01*
X015630Y024829D01*
X015540Y024829D01*
X015495Y024874D01*
X015495Y024964D01*
X015585Y024964D01*
X015495Y025054D02*
X015540Y025099D01*
X015630Y025099D01*
X015675Y025054D01*
X015381Y025009D02*
X015291Y025099D01*
X015291Y024829D01*
X015381Y024829D02*
X015201Y024829D01*
X015086Y024874D02*
X015041Y024829D01*
X014951Y024829D01*
X014906Y024874D01*
X014906Y024919D01*
X014951Y024964D01*
X014996Y024964D01*
X014951Y024964D02*
X014906Y025009D01*
X014906Y025054D01*
X014951Y025099D01*
X015041Y025099D01*
X015086Y025054D01*
X014642Y025064D02*
X014642Y024884D01*
X014597Y024839D01*
X014507Y024839D01*
X014462Y024884D01*
X014462Y024974D01*
X014552Y024974D01*
X014462Y025064D02*
X014507Y025109D01*
X014597Y025109D01*
X014642Y025064D01*
X014348Y025019D02*
X014258Y025109D01*
X014258Y024839D01*
X014348Y024839D02*
X014167Y024839D01*
X014053Y024839D02*
X013873Y025019D01*
X013873Y025064D01*
X013918Y025109D01*
X014008Y025109D01*
X014053Y025064D01*
X014053Y024839D02*
X013873Y024839D01*
X016177Y024819D02*
X016357Y024819D01*
X016267Y024819D02*
X016267Y025089D01*
X016357Y024999D01*
X016472Y024954D02*
X016562Y024954D01*
X016472Y024954D02*
X016472Y024864D01*
X016517Y024819D01*
X016607Y024819D01*
X016652Y024864D01*
X016652Y025044D01*
X016607Y025089D01*
X016517Y025089D01*
X016472Y025044D01*
X017030Y024962D02*
X017210Y024962D01*
X017075Y025097D01*
X017075Y024826D01*
X017325Y024871D02*
X017325Y024962D01*
X017415Y024962D01*
X017505Y025052D02*
X017505Y024871D01*
X017460Y024826D01*
X017370Y024826D01*
X017325Y024871D01*
X017325Y025052D02*
X017370Y025097D01*
X017460Y025097D01*
X017505Y025052D01*
X018033Y025097D02*
X018213Y025097D01*
X018213Y024962D01*
X018123Y025007D01*
X018078Y025007D01*
X018033Y024962D01*
X018033Y024872D01*
X018078Y024827D01*
X018168Y024827D01*
X018213Y024872D01*
X018327Y024872D02*
X018327Y024962D01*
X018417Y024962D01*
X018327Y025052D02*
X018372Y025097D01*
X018462Y025097D01*
X018507Y025052D01*
X018507Y024872D01*
X018462Y024827D01*
X018372Y024827D01*
X018327Y024872D01*
X018915Y024885D02*
X018960Y024840D01*
X019050Y024840D01*
X019095Y024885D01*
X019095Y024975D02*
X019005Y025020D01*
X018960Y025020D01*
X018915Y024975D01*
X018915Y024885D01*
X019095Y024975D02*
X019095Y025110D01*
X018915Y025110D01*
X019300Y025110D02*
X019300Y024840D01*
X019390Y024840D02*
X019210Y024840D01*
X019390Y025020D02*
X019300Y025110D01*
X019504Y025065D02*
X019549Y025110D01*
X019639Y025110D01*
X019684Y025065D01*
X019684Y024885D01*
X019639Y024840D01*
X019549Y024840D01*
X019504Y024885D01*
X019504Y024975D01*
X019594Y024975D01*
X019215Y032379D02*
X019080Y032379D01*
X019035Y032424D01*
X019035Y032604D01*
X019080Y032649D01*
X019215Y032649D01*
X019215Y032379D01*
X018920Y032379D02*
X018740Y032559D01*
X018740Y032604D01*
X018785Y032649D01*
X018875Y032649D01*
X018920Y032604D01*
X018920Y032379D02*
X018740Y032379D01*
X029764Y032379D02*
X029944Y032379D01*
X029764Y032559D01*
X029764Y032604D01*
X029809Y032649D01*
X029899Y032649D01*
X029944Y032604D01*
X030058Y032604D02*
X030103Y032649D01*
X030238Y032649D01*
X030238Y032379D01*
X030103Y032379D01*
X030058Y032424D01*
X030058Y032604D01*
X030428Y029653D02*
X030428Y029383D01*
X030518Y029383D02*
X030338Y029383D01*
X030518Y029563D02*
X030428Y029653D01*
X030633Y029608D02*
X030633Y029518D01*
X030678Y029473D01*
X030813Y029473D01*
X030723Y029473D02*
X030633Y029383D01*
X030813Y029383D02*
X030813Y029653D01*
X030678Y029653D01*
X030633Y029608D01*
D11*
X002822Y002805D02*
X002764Y002863D01*
X002764Y003155D01*
X002939Y003155D01*
X002997Y003096D01*
X002997Y002980D01*
X002939Y002921D01*
X002764Y002921D01*
X002822Y002805D02*
X002881Y002805D01*
X003145Y003155D02*
X003203Y003155D01*
X003320Y003038D01*
X003320Y002921D02*
X003320Y003155D01*
X003473Y003096D02*
X003531Y003155D01*
X003648Y003155D01*
X003706Y003096D01*
X003706Y002980D01*
X003648Y002921D01*
X003531Y002921D01*
X003473Y002980D01*
X003473Y003096D01*
X003841Y002980D02*
X003841Y002921D01*
X003900Y002921D01*
X003900Y002980D01*
X003841Y002980D01*
X004053Y002980D02*
X004053Y003096D01*
X004111Y003155D01*
X004228Y003155D01*
X004287Y003096D01*
X004287Y002980D01*
X004228Y002921D01*
X004111Y002921D01*
X004053Y002980D01*
X004440Y002921D02*
X004440Y003096D01*
X004498Y003155D01*
X004673Y003155D01*
X004673Y002921D01*
X004814Y002921D02*
X004931Y002921D01*
X004873Y002921D02*
X004873Y003155D01*
X004931Y003155D01*
X004873Y003272D02*
X004873Y003330D01*
X005084Y003155D02*
X005084Y002921D01*
X005259Y002921D01*
X005318Y002980D01*
X005318Y003155D01*
X005471Y003155D02*
X005646Y003155D01*
X005705Y003096D01*
X005705Y002980D01*
X005646Y002921D01*
X005471Y002921D01*
X005471Y003272D01*
X005858Y003096D02*
X005916Y003155D01*
X006033Y003155D01*
X006091Y003096D01*
X006091Y002980D01*
X006033Y002921D01*
X005916Y002921D01*
X005858Y002980D01*
X005858Y003096D01*
X006244Y003096D02*
X006244Y002921D01*
X006244Y003096D02*
X006303Y003155D01*
X006478Y003155D01*
X006478Y002921D01*
X006631Y003272D02*
X006865Y002921D01*
X007018Y003272D02*
X007251Y002921D01*
X007386Y002921D02*
X007445Y002921D01*
X007445Y002980D01*
X007386Y002980D01*
X007386Y002921D01*
X007386Y003096D02*
X007445Y003096D01*
X007445Y003155D01*
X007386Y003155D01*
X007386Y003096D01*
X007598Y003096D02*
X007598Y002980D01*
X007656Y002921D01*
X007832Y002921D01*
X007832Y002805D02*
X007832Y003155D01*
X007656Y003155D01*
X007598Y003096D01*
X007973Y003155D02*
X008089Y003155D01*
X008031Y003213D02*
X008031Y002980D01*
X007973Y002921D01*
X008230Y002921D02*
X008289Y002980D01*
X008289Y003213D01*
X008347Y003155D02*
X008230Y003155D01*
X008500Y003096D02*
X008500Y002921D01*
X008500Y003096D02*
X008559Y003155D01*
X008676Y003155D01*
X008734Y003096D01*
X008734Y002921D02*
X008734Y003272D01*
X013788Y003155D02*
X013788Y002863D01*
X013846Y002805D01*
X013904Y002805D01*
X013963Y002921D02*
X013788Y002921D01*
X013963Y002921D02*
X014021Y002980D01*
X014021Y003096D01*
X013963Y003155D01*
X013788Y003155D01*
X014168Y003155D02*
X014227Y003155D01*
X014343Y003038D01*
X014343Y002921D02*
X014343Y003155D01*
X014497Y003096D02*
X014555Y003155D01*
X014672Y003155D01*
X014730Y003096D01*
X014730Y002980D01*
X014672Y002921D01*
X014555Y002921D01*
X014497Y002980D01*
X014497Y003096D01*
X014865Y002980D02*
X014865Y002921D01*
X014923Y002921D01*
X014923Y002980D01*
X014865Y002980D01*
X015077Y002980D02*
X015077Y003096D01*
X015135Y003155D01*
X015252Y003155D01*
X015310Y003096D01*
X015310Y002980D01*
X015252Y002921D01*
X015135Y002921D01*
X015077Y002980D01*
X015463Y002921D02*
X015463Y003096D01*
X015522Y003155D01*
X015697Y003155D01*
X015697Y002921D01*
X015838Y002921D02*
X015955Y002921D01*
X015896Y002921D02*
X015896Y003155D01*
X015955Y003155D01*
X015896Y003272D02*
X015896Y003330D01*
X016108Y003155D02*
X016108Y002921D01*
X016283Y002921D01*
X016341Y002980D01*
X016341Y003155D01*
X016495Y003155D02*
X016670Y003155D01*
X016728Y003096D01*
X016728Y002980D01*
X016670Y002921D01*
X016495Y002921D01*
X016495Y003272D01*
X016881Y003096D02*
X016940Y003155D01*
X017057Y003155D01*
X017115Y003096D01*
X017115Y002980D01*
X017057Y002921D01*
X016940Y002921D01*
X016881Y002980D01*
X016881Y003096D01*
X017268Y003096D02*
X017268Y002921D01*
X017268Y003096D02*
X017326Y003155D01*
X017502Y003155D01*
X017502Y002921D01*
X017655Y003272D02*
X017888Y002921D01*
X018042Y003272D02*
X018275Y002921D01*
X018410Y002921D02*
X018410Y002980D01*
X018468Y002980D01*
X018468Y002921D01*
X018410Y002921D01*
X018410Y003096D02*
X018468Y003096D01*
X018468Y003155D01*
X018410Y003155D01*
X018410Y003096D01*
X018622Y003096D02*
X018622Y002980D01*
X018680Y002921D01*
X018855Y002921D01*
X018855Y002805D02*
X018855Y003155D01*
X018680Y003155D01*
X018622Y003096D01*
X018996Y003155D02*
X019113Y003155D01*
X019055Y003213D02*
X019055Y002980D01*
X018996Y002921D01*
X019254Y002921D02*
X019312Y002980D01*
X019312Y003213D01*
X019371Y003155D02*
X019254Y003155D01*
X019524Y003096D02*
X019524Y002921D01*
X019524Y003096D02*
X019582Y003155D01*
X019699Y003155D01*
X019758Y003096D01*
X019758Y002921D02*
X019758Y003272D01*
X024811Y003155D02*
X024811Y002863D01*
X024870Y002805D01*
X024928Y002805D01*
X024986Y002921D02*
X024811Y002921D01*
X024986Y002921D02*
X025045Y002980D01*
X025045Y003096D01*
X024986Y003155D01*
X024811Y003155D01*
X025192Y003155D02*
X025250Y003155D01*
X025367Y003038D01*
X025367Y002921D02*
X025367Y003155D01*
X025520Y003096D02*
X025579Y003155D01*
X025695Y003155D01*
X025754Y003096D01*
X025754Y002980D01*
X025695Y002921D01*
X025579Y002921D01*
X025520Y002980D01*
X025520Y003096D01*
X025889Y002980D02*
X025889Y002921D01*
X025947Y002921D01*
X025947Y002980D01*
X025889Y002980D01*
X026100Y002980D02*
X026159Y002921D01*
X026275Y002921D01*
X026334Y002980D01*
X026334Y003096D01*
X026275Y003155D01*
X026159Y003155D01*
X026100Y003096D01*
X026100Y002980D01*
X026487Y002921D02*
X026487Y003096D01*
X026545Y003155D01*
X026721Y003155D01*
X026721Y002921D01*
X026862Y002921D02*
X026978Y002921D01*
X026920Y002921D02*
X026920Y003155D01*
X026978Y003155D01*
X026920Y003272D02*
X026920Y003330D01*
X027132Y003155D02*
X027132Y002921D01*
X027307Y002921D01*
X027365Y002980D01*
X027365Y003155D01*
X027518Y003155D02*
X027693Y003155D01*
X027752Y003096D01*
X027752Y002980D01*
X027693Y002921D01*
X027518Y002921D01*
X027518Y003272D01*
X027905Y003096D02*
X027963Y003155D01*
X028080Y003155D01*
X028139Y003096D01*
X028139Y002980D01*
X028080Y002921D01*
X027963Y002921D01*
X027905Y002980D01*
X027905Y003096D01*
X028292Y003096D02*
X028292Y002921D01*
X028292Y003096D02*
X028350Y003155D01*
X028525Y003155D01*
X028525Y002921D01*
X028678Y003272D02*
X028912Y002921D01*
X029065Y003272D02*
X029299Y002921D01*
X029434Y002921D02*
X029492Y002921D01*
X029492Y002980D01*
X029434Y002980D01*
X029434Y002921D01*
X029434Y003096D02*
X029492Y003096D01*
X029492Y003155D01*
X029434Y003155D01*
X029434Y003096D01*
X029645Y003096D02*
X029645Y002980D01*
X029704Y002921D01*
X029879Y002921D01*
X029879Y002805D02*
X029879Y003155D01*
X029704Y003155D01*
X029645Y003096D01*
X030020Y003155D02*
X030137Y003155D01*
X030078Y003213D02*
X030078Y002980D01*
X030020Y002921D01*
X030278Y002921D02*
X030336Y002980D01*
X030336Y003213D01*
X030394Y003155D02*
X030278Y003155D01*
X030548Y003096D02*
X030548Y002921D01*
X030548Y003096D02*
X030606Y003155D01*
X030723Y003155D01*
X030781Y003096D01*
X030781Y002921D02*
X030781Y003272D01*
X035835Y003155D02*
X035835Y002863D01*
X035893Y002805D01*
X035952Y002805D01*
X036010Y002921D02*
X035835Y002921D01*
X036010Y002921D02*
X036068Y002980D01*
X036068Y003096D01*
X036010Y003155D01*
X035835Y003155D01*
X036215Y003155D02*
X036274Y003155D01*
X036391Y003038D01*
X036391Y002921D02*
X036391Y003155D01*
X036544Y003096D02*
X036602Y003155D01*
X036719Y003155D01*
X036777Y003096D01*
X036777Y002980D01*
X036719Y002921D01*
X036602Y002921D01*
X036544Y002980D01*
X036544Y003096D01*
X036912Y002980D02*
X036912Y002921D01*
X036971Y002921D01*
X036971Y002980D01*
X036912Y002980D01*
X037124Y002980D02*
X037124Y003096D01*
X037182Y003155D01*
X037299Y003155D01*
X037357Y003096D01*
X037357Y002980D01*
X037299Y002921D01*
X037182Y002921D01*
X037124Y002980D01*
X037511Y002921D02*
X037511Y003096D01*
X037569Y003155D01*
X037744Y003155D01*
X037744Y002921D01*
X037885Y002921D02*
X038002Y002921D01*
X037944Y002921D02*
X037944Y003155D01*
X038002Y003155D01*
X037944Y003272D02*
X037944Y003330D01*
X038155Y003155D02*
X038155Y002921D01*
X038330Y002921D01*
X038389Y002980D01*
X038389Y003155D01*
X038542Y003155D02*
X038717Y003155D01*
X038775Y003096D01*
X038775Y002980D01*
X038717Y002921D01*
X038542Y002921D01*
X038542Y003272D01*
X038929Y003096D02*
X038987Y003155D01*
X039104Y003155D01*
X039162Y003096D01*
X039162Y002980D01*
X039104Y002921D01*
X038987Y002921D01*
X038929Y002980D01*
X038929Y003096D01*
X039315Y003096D02*
X039315Y002921D01*
X039315Y003096D02*
X039374Y003155D01*
X039549Y003155D01*
X039549Y002921D01*
X039702Y003272D02*
X039936Y002921D01*
X040089Y003272D02*
X040322Y002921D01*
X040457Y002921D02*
X040516Y002921D01*
X040516Y002980D01*
X040457Y002980D01*
X040457Y002921D01*
X040457Y003096D02*
X040516Y003096D01*
X040516Y003155D01*
X040457Y003155D01*
X040457Y003096D01*
X040669Y003096D02*
X040669Y002980D01*
X040727Y002921D01*
X040902Y002921D01*
X040902Y002805D02*
X040902Y003155D01*
X040727Y003155D01*
X040669Y003096D01*
X041043Y003155D02*
X041160Y003155D01*
X041102Y003213D02*
X041102Y002980D01*
X041043Y002921D01*
X041301Y002921D02*
X041360Y002980D01*
X041360Y003213D01*
X041418Y003155D02*
X041301Y003155D01*
X041571Y003096D02*
X041571Y002921D01*
X041571Y003096D02*
X041630Y003155D01*
X041746Y003155D01*
X041805Y003096D01*
X041805Y002921D02*
X041805Y003272D01*
X046858Y003155D02*
X046858Y002863D01*
X046917Y002805D01*
X046975Y002805D01*
X047034Y002921D02*
X046858Y002921D01*
X047034Y002921D02*
X047092Y002980D01*
X047092Y003096D01*
X047034Y003155D01*
X046858Y003155D01*
X047239Y003155D02*
X047297Y003155D01*
X047414Y003038D01*
X047414Y002921D02*
X047414Y003155D01*
X047567Y003096D02*
X047626Y003155D01*
X047743Y003155D01*
X047801Y003096D01*
X047801Y002980D01*
X047743Y002921D01*
X047626Y002921D01*
X047567Y002980D01*
X047567Y003096D01*
X047936Y002980D02*
X047936Y002921D01*
X047994Y002921D01*
X047994Y002980D01*
X047936Y002980D01*
X048147Y002980D02*
X048206Y002921D01*
X048323Y002921D01*
X048381Y002980D01*
X048381Y003096D01*
X048323Y003155D01*
X048206Y003155D01*
X048147Y003096D01*
X048147Y002980D01*
X048534Y002921D02*
X048534Y003096D01*
X048593Y003155D01*
X048768Y003155D01*
X048768Y002921D01*
X048909Y002921D02*
X049026Y002921D01*
X048967Y002921D02*
X048967Y003155D01*
X049026Y003155D01*
X048967Y003272D02*
X048967Y003330D01*
X049179Y003155D02*
X049179Y002921D01*
X049354Y002921D01*
X049412Y002980D01*
X049412Y003155D01*
X049565Y003155D02*
X049741Y003155D01*
X049799Y003096D01*
X049799Y002980D01*
X049741Y002921D01*
X049565Y002921D01*
X049565Y003272D01*
X049952Y003096D02*
X050011Y003155D01*
X050127Y003155D01*
X050186Y003096D01*
X050186Y002980D01*
X050127Y002921D01*
X050011Y002921D01*
X049952Y002980D01*
X049952Y003096D01*
X050339Y003096D02*
X050339Y002921D01*
X050339Y003096D02*
X050397Y003155D01*
X050572Y003155D01*
X050572Y002921D01*
X050726Y003272D02*
X050959Y002921D01*
X051112Y003272D02*
X051346Y002921D01*
X051481Y002921D02*
X051539Y002921D01*
X051539Y002980D01*
X051481Y002980D01*
X051481Y002921D01*
X051481Y003096D02*
X051539Y003096D01*
X051539Y003155D01*
X051481Y003155D01*
X051481Y003096D01*
X051693Y003096D02*
X051693Y002980D01*
X051751Y002921D01*
X051926Y002921D01*
X051926Y002805D02*
X051926Y003155D01*
X051751Y003155D01*
X051693Y003096D01*
X052067Y003155D02*
X052184Y003155D01*
X052125Y003213D02*
X052125Y002980D01*
X052067Y002921D01*
X052325Y002921D02*
X052383Y002980D01*
X052383Y003213D01*
X052442Y003155D02*
X052325Y003155D01*
X052595Y003096D02*
X052595Y002921D01*
X052595Y003096D02*
X052653Y003155D01*
X052770Y003155D01*
X052828Y003096D01*
X052828Y002921D02*
X052828Y003272D01*
X051926Y023671D02*
X051926Y024021D01*
X051751Y024021D01*
X051693Y023963D01*
X051693Y023846D01*
X051751Y023787D01*
X051926Y023787D01*
X052067Y023787D02*
X052125Y023846D01*
X052125Y024079D01*
X052184Y024021D02*
X052067Y024021D01*
X052325Y024021D02*
X052442Y024021D01*
X052383Y024079D02*
X052383Y023846D01*
X052325Y023787D01*
X052595Y023787D02*
X052595Y023963D01*
X052653Y024021D01*
X052770Y024021D01*
X052828Y023963D01*
X052828Y024138D02*
X052828Y023787D01*
X051539Y023787D02*
X051539Y023846D01*
X051481Y023846D01*
X051481Y023787D01*
X051539Y023787D01*
X051539Y023963D02*
X051539Y024021D01*
X051481Y024021D01*
X051481Y023963D01*
X051539Y023963D01*
X051346Y023787D02*
X051112Y024138D01*
X050959Y023787D02*
X050726Y024138D01*
X050572Y024021D02*
X050397Y024021D01*
X050339Y023963D01*
X050339Y023787D01*
X050186Y023846D02*
X050127Y023787D01*
X050011Y023787D01*
X049952Y023846D01*
X049952Y023963D01*
X050011Y024021D01*
X050127Y024021D01*
X050186Y023963D01*
X050186Y023846D01*
X049799Y023846D02*
X049799Y023963D01*
X049741Y024021D01*
X049565Y024021D01*
X049565Y024138D02*
X049565Y023787D01*
X049741Y023787D01*
X049799Y023846D01*
X049412Y023846D02*
X049354Y023787D01*
X049179Y023787D01*
X049179Y024021D01*
X049026Y024021D02*
X048967Y024021D01*
X048967Y023787D01*
X048909Y023787D02*
X049026Y023787D01*
X048768Y023787D02*
X048768Y024021D01*
X048593Y024021D01*
X048534Y023963D01*
X048534Y023787D01*
X048381Y023846D02*
X048323Y023787D01*
X048206Y023787D01*
X048147Y023846D01*
X048147Y023963D01*
X048206Y024021D01*
X048323Y024021D01*
X048381Y023963D01*
X048381Y023846D01*
X047994Y023846D02*
X047936Y023846D01*
X047936Y023787D01*
X047994Y023787D01*
X047994Y023846D01*
X047801Y023846D02*
X047743Y023787D01*
X047626Y023787D01*
X047567Y023846D01*
X047567Y023963D01*
X047626Y024021D01*
X047743Y024021D01*
X047801Y023963D01*
X047801Y023846D01*
X047414Y023904D02*
X047297Y024021D01*
X047239Y024021D01*
X047092Y023963D02*
X047092Y023846D01*
X047034Y023787D01*
X046858Y023787D01*
X046858Y023729D02*
X046858Y024021D01*
X047034Y024021D01*
X047092Y023963D01*
X046975Y023671D02*
X046917Y023671D01*
X046858Y023729D01*
X047414Y023787D02*
X047414Y024021D01*
X048967Y024138D02*
X048967Y024196D01*
X049412Y024021D02*
X049412Y023846D01*
X050572Y023787D02*
X050572Y024021D01*
X041805Y023963D02*
X041746Y024021D01*
X041630Y024021D01*
X041571Y023963D01*
X041571Y023787D01*
X041360Y023846D02*
X041301Y023787D01*
X041360Y023846D02*
X041360Y024079D01*
X041418Y024021D02*
X041301Y024021D01*
X041160Y024021D02*
X041043Y024021D01*
X041102Y024079D02*
X041102Y023846D01*
X041043Y023787D01*
X040902Y023787D02*
X040727Y023787D01*
X040669Y023846D01*
X040669Y023963D01*
X040727Y024021D01*
X040902Y024021D01*
X040902Y023671D01*
X040516Y023787D02*
X040516Y023846D01*
X040457Y023846D01*
X040457Y023787D01*
X040516Y023787D01*
X040516Y023963D02*
X040516Y024021D01*
X040457Y024021D01*
X040457Y023963D01*
X040516Y023963D01*
X040322Y023787D02*
X040089Y024138D01*
X039936Y023787D02*
X039702Y024138D01*
X039549Y024021D02*
X039374Y024021D01*
X039315Y023963D01*
X039315Y023787D01*
X039162Y023846D02*
X039104Y023787D01*
X038987Y023787D01*
X038929Y023846D01*
X038929Y023963D01*
X038987Y024021D01*
X039104Y024021D01*
X039162Y023963D01*
X039162Y023846D01*
X038775Y023846D02*
X038775Y023963D01*
X038717Y024021D01*
X038542Y024021D01*
X038542Y024138D02*
X038542Y023787D01*
X038717Y023787D01*
X038775Y023846D01*
X038389Y023846D02*
X038330Y023787D01*
X038155Y023787D01*
X038155Y024021D01*
X038002Y024021D02*
X037944Y024021D01*
X037944Y023787D01*
X038002Y023787D02*
X037885Y023787D01*
X037744Y023787D02*
X037744Y024021D01*
X037569Y024021D01*
X037511Y023963D01*
X037511Y023787D01*
X037357Y023846D02*
X037299Y023787D01*
X037182Y023787D01*
X037124Y023846D01*
X037124Y023963D01*
X037182Y024021D01*
X037299Y024021D01*
X037357Y023963D01*
X037357Y023846D01*
X036971Y023846D02*
X036912Y023846D01*
X036912Y023787D01*
X036971Y023787D01*
X036971Y023846D01*
X036777Y023846D02*
X036719Y023787D01*
X036602Y023787D01*
X036544Y023846D01*
X036544Y023963D01*
X036602Y024021D01*
X036719Y024021D01*
X036777Y023963D01*
X036777Y023846D01*
X036391Y023904D02*
X036274Y024021D01*
X036215Y024021D01*
X036068Y023963D02*
X036068Y023846D01*
X036010Y023787D01*
X035835Y023787D01*
X035835Y023729D02*
X035835Y024021D01*
X036010Y024021D01*
X036068Y023963D01*
X035952Y023671D02*
X035893Y023671D01*
X035835Y023729D01*
X036391Y023787D02*
X036391Y024021D01*
X037944Y024138D02*
X037944Y024196D01*
X038389Y024021D02*
X038389Y023846D01*
X039549Y023787D02*
X039549Y024021D01*
X041805Y024138D02*
X041805Y023787D01*
X030781Y023787D02*
X030781Y024138D01*
X030723Y024021D02*
X030606Y024021D01*
X030548Y023963D01*
X030548Y023787D01*
X030336Y023846D02*
X030278Y023787D01*
X030336Y023846D02*
X030336Y024079D01*
X030394Y024021D02*
X030278Y024021D01*
X030137Y024021D02*
X030020Y024021D01*
X030078Y024079D02*
X030078Y023846D01*
X030020Y023787D01*
X029879Y023787D02*
X029704Y023787D01*
X029645Y023846D01*
X029645Y023963D01*
X029704Y024021D01*
X029879Y024021D01*
X029879Y023671D01*
X029492Y023787D02*
X029492Y023846D01*
X029434Y023846D01*
X029434Y023787D01*
X029492Y023787D01*
X029492Y023963D02*
X029492Y024021D01*
X029434Y024021D01*
X029434Y023963D01*
X029492Y023963D01*
X029299Y023787D02*
X029065Y024138D01*
X028912Y023787D02*
X028678Y024138D01*
X028525Y024021D02*
X028350Y024021D01*
X028292Y023963D01*
X028292Y023787D01*
X028139Y023846D02*
X028080Y023787D01*
X027963Y023787D01*
X027905Y023846D01*
X027905Y023963D01*
X027963Y024021D01*
X028080Y024021D01*
X028139Y023963D01*
X028139Y023846D01*
X027752Y023846D02*
X027752Y023963D01*
X027693Y024021D01*
X027518Y024021D01*
X027518Y024138D02*
X027518Y023787D01*
X027693Y023787D01*
X027752Y023846D01*
X027365Y023846D02*
X027307Y023787D01*
X027132Y023787D01*
X027132Y024021D01*
X026978Y024021D02*
X026920Y024021D01*
X026920Y023787D01*
X026978Y023787D02*
X026862Y023787D01*
X026721Y023787D02*
X026721Y024021D01*
X026545Y024021D01*
X026487Y023963D01*
X026487Y023787D01*
X026334Y023846D02*
X026275Y023787D01*
X026159Y023787D01*
X026100Y023846D01*
X026100Y023963D01*
X026159Y024021D01*
X026275Y024021D01*
X026334Y023963D01*
X026334Y023846D01*
X025947Y023846D02*
X025889Y023846D01*
X025889Y023787D01*
X025947Y023787D01*
X025947Y023846D01*
X025754Y023846D02*
X025695Y023787D01*
X025579Y023787D01*
X025520Y023846D01*
X025520Y023963D01*
X025579Y024021D01*
X025695Y024021D01*
X025754Y023963D01*
X025754Y023846D01*
X025367Y023904D02*
X025250Y024021D01*
X025192Y024021D01*
X025045Y023963D02*
X025045Y023846D01*
X024986Y023787D01*
X024811Y023787D01*
X024811Y023729D02*
X024811Y024021D01*
X024986Y024021D01*
X025045Y023963D01*
X024928Y023671D02*
X024870Y023671D01*
X024811Y023729D01*
X025367Y023787D02*
X025367Y024021D01*
X026920Y024138D02*
X026920Y024196D01*
X027365Y024021D02*
X027365Y023846D01*
X028525Y023787D02*
X028525Y024021D01*
X030723Y024021D02*
X030781Y023963D01*
X019758Y023963D02*
X019699Y024021D01*
X019582Y024021D01*
X019524Y023963D01*
X019524Y023787D01*
X019312Y023846D02*
X019254Y023787D01*
X019312Y023846D02*
X019312Y024079D01*
X019371Y024021D02*
X019254Y024021D01*
X019113Y024021D02*
X018996Y024021D01*
X019055Y024079D02*
X019055Y023846D01*
X018996Y023787D01*
X018855Y023787D02*
X018680Y023787D01*
X018622Y023846D01*
X018622Y023963D01*
X018680Y024021D01*
X018855Y024021D01*
X018855Y023671D01*
X018468Y023787D02*
X018468Y023846D01*
X018410Y023846D01*
X018410Y023787D01*
X018468Y023787D01*
X018468Y023963D02*
X018468Y024021D01*
X018410Y024021D01*
X018410Y023963D01*
X018468Y023963D01*
X018275Y023787D02*
X018042Y024138D01*
X017888Y023787D02*
X017655Y024138D01*
X017502Y024021D02*
X017326Y024021D01*
X017268Y023963D01*
X017268Y023787D01*
X017115Y023846D02*
X017057Y023787D01*
X016940Y023787D01*
X016881Y023846D01*
X016881Y023963D01*
X016940Y024021D01*
X017057Y024021D01*
X017115Y023963D01*
X017115Y023846D01*
X016728Y023846D02*
X016728Y023963D01*
X016670Y024021D01*
X016495Y024021D01*
X016495Y024138D02*
X016495Y023787D01*
X016670Y023787D01*
X016728Y023846D01*
X016341Y023846D02*
X016283Y023787D01*
X016108Y023787D01*
X016108Y024021D01*
X015955Y024021D02*
X015896Y024021D01*
X015896Y023787D01*
X015838Y023787D02*
X015955Y023787D01*
X015697Y023787D02*
X015697Y024021D01*
X015522Y024021D01*
X015463Y023963D01*
X015463Y023787D01*
X015310Y023846D02*
X015252Y023787D01*
X015135Y023787D01*
X015077Y023846D01*
X015077Y023963D01*
X015135Y024021D01*
X015252Y024021D01*
X015310Y023963D01*
X015310Y023846D01*
X014923Y023846D02*
X014865Y023846D01*
X014865Y023787D01*
X014923Y023787D01*
X014923Y023846D01*
X014730Y023846D02*
X014672Y023787D01*
X014555Y023787D01*
X014497Y023846D01*
X014497Y023963D01*
X014555Y024021D01*
X014672Y024021D01*
X014730Y023963D01*
X014730Y023846D01*
X014343Y023904D02*
X014227Y024021D01*
X014168Y024021D01*
X014021Y023963D02*
X014021Y023846D01*
X013963Y023787D01*
X013788Y023787D01*
X013788Y023729D02*
X013788Y024021D01*
X013963Y024021D01*
X014021Y023963D01*
X013904Y023671D02*
X013846Y023671D01*
X013788Y023729D01*
X014343Y023787D02*
X014343Y024021D01*
X015896Y024138D02*
X015896Y024196D01*
X016341Y024021D02*
X016341Y023846D01*
X017502Y023787D02*
X017502Y024021D01*
X019758Y024138D02*
X019758Y023787D01*
X008734Y023787D02*
X008734Y024138D01*
X008676Y024021D02*
X008559Y024021D01*
X008500Y023963D01*
X008500Y023787D01*
X008289Y023846D02*
X008230Y023787D01*
X008289Y023846D02*
X008289Y024079D01*
X008347Y024021D02*
X008230Y024021D01*
X008089Y024021D02*
X007973Y024021D01*
X008031Y024079D02*
X008031Y023846D01*
X007973Y023787D01*
X007832Y023787D02*
X007656Y023787D01*
X007598Y023846D01*
X007598Y023963D01*
X007656Y024021D01*
X007832Y024021D01*
X007832Y023671D01*
X007445Y023787D02*
X007445Y023846D01*
X007386Y023846D01*
X007386Y023787D01*
X007445Y023787D01*
X007445Y023963D02*
X007445Y024021D01*
X007386Y024021D01*
X007386Y023963D01*
X007445Y023963D01*
X007251Y023787D02*
X007018Y024138D01*
X006865Y023787D02*
X006631Y024138D01*
X006478Y024021D02*
X006303Y024021D01*
X006244Y023963D01*
X006244Y023787D01*
X006091Y023846D02*
X006033Y023787D01*
X005916Y023787D01*
X005858Y023846D01*
X005858Y023963D01*
X005916Y024021D01*
X006033Y024021D01*
X006091Y023963D01*
X006091Y023846D01*
X005705Y023846D02*
X005705Y023963D01*
X005646Y024021D01*
X005471Y024021D01*
X005471Y024138D02*
X005471Y023787D01*
X005646Y023787D01*
X005705Y023846D01*
X005318Y023846D02*
X005259Y023787D01*
X005084Y023787D01*
X005084Y024021D01*
X004931Y024021D02*
X004873Y024021D01*
X004873Y023787D01*
X004931Y023787D02*
X004814Y023787D01*
X004673Y023787D02*
X004673Y024021D01*
X004498Y024021D01*
X004440Y023963D01*
X004440Y023787D01*
X004287Y023846D02*
X004228Y023787D01*
X004111Y023787D01*
X004053Y023846D01*
X004053Y023963D01*
X004111Y024021D01*
X004228Y024021D01*
X004287Y023963D01*
X004287Y023846D01*
X003900Y023846D02*
X003841Y023846D01*
X003841Y023787D01*
X003900Y023787D01*
X003900Y023846D01*
X003706Y023846D02*
X003648Y023787D01*
X003531Y023787D01*
X003473Y023846D01*
X003473Y023963D01*
X003531Y024021D01*
X003648Y024021D01*
X003706Y023963D01*
X003706Y023846D01*
X003320Y023904D02*
X003203Y024021D01*
X003145Y024021D01*
X002997Y023963D02*
X002997Y023846D01*
X002939Y023787D01*
X002764Y023787D01*
X002764Y023729D02*
X002764Y024021D01*
X002939Y024021D01*
X002997Y023963D01*
X002881Y023671D02*
X002822Y023671D01*
X002764Y023729D01*
X003320Y023787D02*
X003320Y024021D01*
X004873Y024138D02*
X004873Y024196D01*
X005318Y024021D02*
X005318Y023846D01*
X006478Y023787D02*
X006478Y024021D01*
X008676Y024021D02*
X008734Y023963D01*
D12*
X004935Y027787D02*
X004935Y028126D01*
X004481Y027637D02*
X004269Y027637D01*
X003815Y027787D02*
X003815Y028126D01*
X007924Y029922D02*
X008239Y029922D01*
X008239Y030158D01*
X008239Y030788D02*
X008239Y031024D01*
X007924Y031024D01*
X007754Y031689D02*
X007597Y031689D01*
X007754Y031689D02*
X007754Y032201D01*
X008306Y032201D01*
X008306Y031689D02*
X007754Y031689D01*
X007754Y032201D02*
X007597Y032201D01*
X003625Y033383D02*
X003625Y033721D01*
X003170Y033871D02*
X002959Y033871D01*
X002505Y033721D02*
X002505Y033383D01*
X013528Y033383D02*
X013528Y033721D01*
X013983Y033871D02*
X014194Y033871D01*
X014648Y033721D02*
X014648Y033383D01*
X018621Y032201D02*
X018778Y032201D01*
X018778Y031689D01*
X019329Y031689D01*
X019329Y032201D02*
X018778Y032201D01*
X018778Y031689D02*
X018621Y031689D01*
X018947Y031024D02*
X019262Y031024D01*
X019262Y030788D01*
X019262Y030158D02*
X019262Y029922D01*
X018947Y029922D01*
X015959Y028126D02*
X015959Y027787D01*
X015504Y027637D02*
X015293Y027637D01*
X014839Y027787D02*
X014839Y028126D01*
X024552Y033383D02*
X024552Y033721D01*
X025006Y033871D02*
X025218Y033871D01*
X025672Y033721D02*
X025672Y033383D01*
X029644Y032201D02*
X029802Y032201D01*
X029802Y031689D01*
X030353Y031689D01*
X030353Y032201D02*
X029802Y032201D01*
X029802Y031689D02*
X029644Y031689D01*
X029971Y031024D02*
X030286Y031024D01*
X030286Y030788D01*
X030286Y030158D02*
X030286Y029922D01*
X029971Y029922D01*
X026982Y028126D02*
X026982Y027787D01*
X026528Y027637D02*
X026317Y027637D01*
X025862Y027787D02*
X025862Y028126D01*
X035576Y033383D02*
X035576Y033721D01*
X036030Y033871D02*
X036241Y033871D01*
X036696Y033721D02*
X036696Y033383D01*
X040668Y032201D02*
X040825Y032201D01*
X040825Y031689D01*
X041376Y031689D01*
X041376Y032201D02*
X040825Y032201D01*
X040825Y031689D02*
X040668Y031689D01*
X040995Y031024D02*
X041309Y031024D01*
X041309Y030788D01*
X041309Y030158D02*
X041309Y029922D01*
X040995Y029922D01*
X038006Y028126D02*
X038006Y027787D01*
X037552Y027637D02*
X037340Y027637D01*
X036886Y027787D02*
X036886Y028126D01*
X046599Y033383D02*
X046599Y033721D01*
X047054Y033871D02*
X047265Y033871D01*
X047719Y033721D02*
X047719Y033383D01*
X051691Y032201D02*
X051849Y032201D01*
X051849Y031689D01*
X052400Y031689D01*
X052400Y032201D02*
X051849Y032201D01*
X051849Y031689D02*
X051691Y031689D01*
X052018Y031024D02*
X052333Y031024D01*
X052333Y030788D01*
X052333Y030158D02*
X052333Y029922D01*
X052018Y029922D01*
X049030Y028126D02*
X049030Y027787D01*
X048575Y027637D02*
X048364Y027637D01*
X047910Y027787D02*
X047910Y028126D01*
X047265Y013005D02*
X047054Y013005D01*
X046599Y012855D02*
X046599Y012517D01*
X047719Y012517D02*
X047719Y012855D01*
X051691Y011335D02*
X051849Y011335D01*
X051849Y010823D01*
X052400Y010823D01*
X052400Y011335D02*
X051849Y011335D01*
X051849Y010823D02*
X051691Y010823D01*
X052018Y010158D02*
X052333Y010158D01*
X052333Y009922D01*
X052333Y009292D02*
X052333Y009056D01*
X052018Y009056D01*
X049030Y007259D02*
X049030Y006921D01*
X048575Y006771D02*
X048364Y006771D01*
X047910Y006921D02*
X047910Y007259D01*
X041309Y009056D02*
X040995Y009056D01*
X041309Y009056D02*
X041309Y009292D01*
X041309Y009922D02*
X041309Y010158D01*
X040995Y010158D01*
X040825Y010823D02*
X040825Y011335D01*
X041376Y011335D01*
X041376Y010823D02*
X040825Y010823D01*
X040668Y010823D01*
X040668Y011335D02*
X040825Y011335D01*
X036696Y012517D02*
X036696Y012855D01*
X036241Y013005D02*
X036030Y013005D01*
X035576Y012855D02*
X035576Y012517D01*
X030353Y011335D02*
X029802Y011335D01*
X029802Y010823D01*
X030353Y010823D01*
X029802Y010823D02*
X029644Y010823D01*
X029644Y011335D02*
X029802Y011335D01*
X029971Y010158D02*
X030286Y010158D01*
X030286Y009922D01*
X030286Y009292D02*
X030286Y009056D01*
X029971Y009056D01*
X026982Y007259D02*
X026982Y006921D01*
X026528Y006771D02*
X026317Y006771D01*
X025862Y006921D02*
X025862Y007259D01*
X019262Y009056D02*
X018947Y009056D01*
X019262Y009056D02*
X019262Y009292D01*
X019262Y009922D02*
X019262Y010158D01*
X018947Y010158D01*
X018778Y010823D02*
X018778Y011335D01*
X019329Y011335D01*
X019329Y010823D02*
X018778Y010823D01*
X018621Y010823D01*
X018621Y011335D02*
X018778Y011335D01*
X014648Y012517D02*
X014648Y012855D01*
X014194Y013005D02*
X013983Y013005D01*
X013528Y012855D02*
X013528Y012517D01*
X008306Y011335D02*
X007754Y011335D01*
X007754Y010823D01*
X008306Y010823D01*
X007754Y010823D02*
X007597Y010823D01*
X007597Y011335D02*
X007754Y011335D01*
X007924Y010158D02*
X008239Y010158D01*
X008239Y009922D01*
X008239Y009292D02*
X008239Y009056D01*
X007924Y009056D01*
X004935Y007259D02*
X004935Y006921D01*
X004481Y006771D02*
X004269Y006771D01*
X003815Y006921D02*
X003815Y007259D01*
X003625Y012517D02*
X003625Y012855D01*
X003170Y013005D02*
X002959Y013005D01*
X002505Y012855D02*
X002505Y012517D01*
X014839Y007259D02*
X014839Y006921D01*
X015293Y006771D02*
X015504Y006771D01*
X015959Y006921D02*
X015959Y007259D01*
X024552Y012517D02*
X024552Y012855D01*
X025006Y013005D02*
X025218Y013005D01*
X025672Y012855D02*
X025672Y012517D01*
X036886Y007259D02*
X036886Y006921D01*
X037340Y006771D02*
X037552Y006771D01*
X038006Y006921D02*
X038006Y007259D01*
D13*
X036293Y006846D02*
X036295Y006854D01*
X036300Y006861D01*
X036307Y006865D01*
X036315Y006866D01*
X036323Y006863D01*
X036329Y006858D01*
X036333Y006850D01*
X036333Y006842D01*
X036329Y006834D01*
X036323Y006829D01*
X036315Y006826D01*
X036307Y006827D01*
X036300Y006831D01*
X036295Y006838D01*
X036293Y006846D01*
X036298Y007962D02*
X036300Y007970D01*
X036305Y007977D01*
X036312Y007981D01*
X036320Y007982D01*
X036328Y007979D01*
X036334Y007974D01*
X036338Y007966D01*
X036338Y007958D01*
X036334Y007950D01*
X036328Y007945D01*
X036320Y007942D01*
X036312Y007943D01*
X036305Y007947D01*
X036300Y007954D01*
X036298Y007962D01*
X036193Y011540D02*
X036195Y011548D01*
X036200Y011555D01*
X036207Y011559D01*
X036215Y011560D01*
X036223Y011557D01*
X036229Y011552D01*
X036233Y011544D01*
X036233Y011536D01*
X036229Y011528D01*
X036223Y011523D01*
X036215Y011520D01*
X036207Y011521D01*
X036200Y011525D01*
X036195Y011532D01*
X036193Y011540D01*
X047217Y011540D02*
X047219Y011548D01*
X047224Y011555D01*
X047231Y011559D01*
X047239Y011560D01*
X047247Y011557D01*
X047253Y011552D01*
X047257Y011544D01*
X047257Y011536D01*
X047253Y011528D01*
X047247Y011523D01*
X047239Y011520D01*
X047231Y011521D01*
X047224Y011525D01*
X047219Y011532D01*
X047217Y011540D01*
X047322Y007962D02*
X047324Y007970D01*
X047329Y007977D01*
X047336Y007981D01*
X047344Y007982D01*
X047352Y007979D01*
X047358Y007974D01*
X047362Y007966D01*
X047362Y007958D01*
X047358Y007950D01*
X047352Y007945D01*
X047344Y007942D01*
X047336Y007943D01*
X047329Y007947D01*
X047324Y007954D01*
X047322Y007962D01*
X047316Y006846D02*
X047318Y006854D01*
X047323Y006861D01*
X047330Y006865D01*
X047338Y006866D01*
X047346Y006863D01*
X047352Y006858D01*
X047356Y006850D01*
X047356Y006842D01*
X047352Y006834D01*
X047346Y006829D01*
X047338Y006826D01*
X047330Y006827D01*
X047323Y006831D01*
X047318Y006838D01*
X047316Y006846D01*
X025269Y006846D02*
X025271Y006854D01*
X025276Y006861D01*
X025283Y006865D01*
X025291Y006866D01*
X025299Y006863D01*
X025305Y006858D01*
X025309Y006850D01*
X025309Y006842D01*
X025305Y006834D01*
X025299Y006829D01*
X025291Y006826D01*
X025283Y006827D01*
X025276Y006831D01*
X025271Y006838D01*
X025269Y006846D01*
X025275Y007962D02*
X025277Y007970D01*
X025282Y007977D01*
X025289Y007981D01*
X025297Y007982D01*
X025305Y007979D01*
X025311Y007974D01*
X025315Y007966D01*
X025315Y007958D01*
X025311Y007950D01*
X025305Y007945D01*
X025297Y007942D01*
X025289Y007943D01*
X025282Y007947D01*
X025277Y007954D01*
X025275Y007962D01*
X025169Y011540D02*
X025171Y011548D01*
X025176Y011555D01*
X025183Y011559D01*
X025191Y011560D01*
X025199Y011557D01*
X025205Y011552D01*
X025209Y011544D01*
X025209Y011536D01*
X025205Y011528D01*
X025199Y011523D01*
X025191Y011520D01*
X025183Y011521D01*
X025176Y011525D01*
X025171Y011532D01*
X025169Y011540D01*
X014251Y007962D02*
X014253Y007970D01*
X014258Y007977D01*
X014265Y007981D01*
X014273Y007982D01*
X014281Y007979D01*
X014287Y007974D01*
X014291Y007966D01*
X014291Y007958D01*
X014287Y007950D01*
X014281Y007945D01*
X014273Y007942D01*
X014265Y007943D01*
X014258Y007947D01*
X014253Y007954D01*
X014251Y007962D01*
X014245Y006846D02*
X014247Y006854D01*
X014252Y006861D01*
X014259Y006865D01*
X014267Y006866D01*
X014275Y006863D01*
X014281Y006858D01*
X014285Y006850D01*
X014285Y006842D01*
X014281Y006834D01*
X014275Y006829D01*
X014267Y006826D01*
X014259Y006827D01*
X014252Y006831D01*
X014247Y006838D01*
X014245Y006846D01*
X014146Y011540D02*
X014148Y011548D01*
X014153Y011555D01*
X014160Y011559D01*
X014168Y011560D01*
X014176Y011557D01*
X014182Y011552D01*
X014186Y011544D01*
X014186Y011536D01*
X014182Y011528D01*
X014176Y011523D01*
X014168Y011520D01*
X014160Y011521D01*
X014153Y011525D01*
X014148Y011532D01*
X014146Y011540D01*
X003122Y011540D02*
X003124Y011548D01*
X003129Y011555D01*
X003136Y011559D01*
X003144Y011560D01*
X003152Y011557D01*
X003158Y011552D01*
X003162Y011544D01*
X003162Y011536D01*
X003158Y011528D01*
X003152Y011523D01*
X003144Y011520D01*
X003136Y011521D01*
X003129Y011525D01*
X003124Y011532D01*
X003122Y011540D01*
X003228Y007962D02*
X003230Y007970D01*
X003235Y007977D01*
X003242Y007981D01*
X003250Y007982D01*
X003258Y007979D01*
X003264Y007974D01*
X003268Y007966D01*
X003268Y007958D01*
X003264Y007950D01*
X003258Y007945D01*
X003250Y007942D01*
X003242Y007943D01*
X003235Y007947D01*
X003230Y007954D01*
X003228Y007962D01*
X003222Y006846D02*
X003224Y006854D01*
X003229Y006861D01*
X003236Y006865D01*
X003244Y006866D01*
X003252Y006863D01*
X003258Y006858D01*
X003262Y006850D01*
X003262Y006842D01*
X003258Y006834D01*
X003252Y006829D01*
X003244Y006826D01*
X003236Y006827D01*
X003229Y006831D01*
X003224Y006838D01*
X003222Y006846D01*
X003222Y027712D02*
X003224Y027720D01*
X003229Y027727D01*
X003236Y027731D01*
X003244Y027732D01*
X003252Y027729D01*
X003258Y027724D01*
X003262Y027716D01*
X003262Y027708D01*
X003258Y027700D01*
X003252Y027695D01*
X003244Y027692D01*
X003236Y027693D01*
X003229Y027697D01*
X003224Y027704D01*
X003222Y027712D01*
X003228Y028829D02*
X003230Y028837D01*
X003235Y028844D01*
X003242Y028848D01*
X003250Y028849D01*
X003258Y028846D01*
X003264Y028841D01*
X003268Y028833D01*
X003268Y028825D01*
X003264Y028817D01*
X003258Y028812D01*
X003250Y028809D01*
X003242Y028810D01*
X003235Y028814D01*
X003230Y028821D01*
X003228Y028829D01*
X003122Y032406D02*
X003124Y032414D01*
X003129Y032421D01*
X003136Y032425D01*
X003144Y032426D01*
X003152Y032423D01*
X003158Y032418D01*
X003162Y032410D01*
X003162Y032402D01*
X003158Y032394D01*
X003152Y032389D01*
X003144Y032386D01*
X003136Y032387D01*
X003129Y032391D01*
X003124Y032398D01*
X003122Y032406D01*
X014146Y032406D02*
X014148Y032414D01*
X014153Y032421D01*
X014160Y032425D01*
X014168Y032426D01*
X014176Y032423D01*
X014182Y032418D01*
X014186Y032410D01*
X014186Y032402D01*
X014182Y032394D01*
X014176Y032389D01*
X014168Y032386D01*
X014160Y032387D01*
X014153Y032391D01*
X014148Y032398D01*
X014146Y032406D01*
X014251Y028829D02*
X014253Y028837D01*
X014258Y028844D01*
X014265Y028848D01*
X014273Y028849D01*
X014281Y028846D01*
X014287Y028841D01*
X014291Y028833D01*
X014291Y028825D01*
X014287Y028817D01*
X014281Y028812D01*
X014273Y028809D01*
X014265Y028810D01*
X014258Y028814D01*
X014253Y028821D01*
X014251Y028829D01*
X014245Y027712D02*
X014247Y027720D01*
X014252Y027727D01*
X014259Y027731D01*
X014267Y027732D01*
X014275Y027729D01*
X014281Y027724D01*
X014285Y027716D01*
X014285Y027708D01*
X014281Y027700D01*
X014275Y027695D01*
X014267Y027692D01*
X014259Y027693D01*
X014252Y027697D01*
X014247Y027704D01*
X014245Y027712D01*
X025269Y027712D02*
X025271Y027720D01*
X025276Y027727D01*
X025283Y027731D01*
X025291Y027732D01*
X025299Y027729D01*
X025305Y027724D01*
X025309Y027716D01*
X025309Y027708D01*
X025305Y027700D01*
X025299Y027695D01*
X025291Y027692D01*
X025283Y027693D01*
X025276Y027697D01*
X025271Y027704D01*
X025269Y027712D01*
X025275Y028829D02*
X025277Y028837D01*
X025282Y028844D01*
X025289Y028848D01*
X025297Y028849D01*
X025305Y028846D01*
X025311Y028841D01*
X025315Y028833D01*
X025315Y028825D01*
X025311Y028817D01*
X025305Y028812D01*
X025297Y028809D01*
X025289Y028810D01*
X025282Y028814D01*
X025277Y028821D01*
X025275Y028829D01*
X025169Y032406D02*
X025171Y032414D01*
X025176Y032421D01*
X025183Y032425D01*
X025191Y032426D01*
X025199Y032423D01*
X025205Y032418D01*
X025209Y032410D01*
X025209Y032402D01*
X025205Y032394D01*
X025199Y032389D01*
X025191Y032386D01*
X025183Y032387D01*
X025176Y032391D01*
X025171Y032398D01*
X025169Y032406D01*
X036193Y032406D02*
X036195Y032414D01*
X036200Y032421D01*
X036207Y032425D01*
X036215Y032426D01*
X036223Y032423D01*
X036229Y032418D01*
X036233Y032410D01*
X036233Y032402D01*
X036229Y032394D01*
X036223Y032389D01*
X036215Y032386D01*
X036207Y032387D01*
X036200Y032391D01*
X036195Y032398D01*
X036193Y032406D01*
X036298Y028829D02*
X036300Y028837D01*
X036305Y028844D01*
X036312Y028848D01*
X036320Y028849D01*
X036328Y028846D01*
X036334Y028841D01*
X036338Y028833D01*
X036338Y028825D01*
X036334Y028817D01*
X036328Y028812D01*
X036320Y028809D01*
X036312Y028810D01*
X036305Y028814D01*
X036300Y028821D01*
X036298Y028829D01*
X036293Y027712D02*
X036295Y027720D01*
X036300Y027727D01*
X036307Y027731D01*
X036315Y027732D01*
X036323Y027729D01*
X036329Y027724D01*
X036333Y027716D01*
X036333Y027708D01*
X036329Y027700D01*
X036323Y027695D01*
X036315Y027692D01*
X036307Y027693D01*
X036300Y027697D01*
X036295Y027704D01*
X036293Y027712D01*
X047316Y027712D02*
X047318Y027720D01*
X047323Y027727D01*
X047330Y027731D01*
X047338Y027732D01*
X047346Y027729D01*
X047352Y027724D01*
X047356Y027716D01*
X047356Y027708D01*
X047352Y027700D01*
X047346Y027695D01*
X047338Y027692D01*
X047330Y027693D01*
X047323Y027697D01*
X047318Y027704D01*
X047316Y027712D01*
X047322Y028829D02*
X047324Y028837D01*
X047329Y028844D01*
X047336Y028848D01*
X047344Y028849D01*
X047352Y028846D01*
X047358Y028841D01*
X047362Y028833D01*
X047362Y028825D01*
X047358Y028817D01*
X047352Y028812D01*
X047344Y028809D01*
X047336Y028810D01*
X047329Y028814D01*
X047324Y028821D01*
X047322Y028829D01*
X047217Y032406D02*
X047219Y032414D01*
X047224Y032421D01*
X047231Y032425D01*
X047239Y032426D01*
X047247Y032423D01*
X047253Y032418D01*
X047257Y032410D01*
X047257Y032402D01*
X047253Y032394D01*
X047247Y032389D01*
X047239Y032386D01*
X047231Y032387D01*
X047224Y032391D01*
X047219Y032398D01*
X047217Y032406D01*
D14*
X047097Y031617D03*
X048253Y029497D03*
X049692Y027230D03*
X051928Y029510D03*
X040905Y029510D03*
X038669Y027230D03*
X037229Y029497D03*
X036073Y031617D03*
X029881Y029510D03*
X027645Y027230D03*
X026205Y029497D03*
X025050Y031617D03*
X018857Y029510D03*
X016622Y027230D03*
X015182Y029497D03*
X014026Y031617D03*
X007834Y029510D03*
X005598Y027230D03*
X004158Y029497D03*
X003002Y031617D03*
X003002Y010751D03*
X004158Y008631D03*
X005598Y006364D03*
X007834Y008644D03*
X014026Y010751D03*
X015182Y008631D03*
X016622Y006364D03*
X018857Y008644D03*
X025050Y010751D03*
X026205Y008631D03*
X027645Y006364D03*
X029881Y008644D03*
X036073Y010751D03*
X037229Y008631D03*
X038669Y006364D03*
X040905Y008644D03*
X047097Y010751D03*
X048253Y008631D03*
X049692Y006364D03*
X051928Y008644D03*
D15*
X047770Y010856D03*
X036747Y010856D03*
X025723Y010856D03*
X014700Y010856D03*
X003676Y010856D03*
X003676Y031723D03*
X014700Y031723D03*
X025723Y031723D03*
X036747Y031723D03*
X047770Y031723D03*
D16*
X047055Y031972D02*
X047057Y031984D01*
X047062Y031996D01*
X047071Y032005D01*
X047082Y032011D01*
X047094Y032014D01*
X047106Y032013D01*
X047118Y032008D01*
X047128Y032001D01*
X047135Y031990D01*
X047139Y031978D01*
X047139Y031966D01*
X047135Y031954D01*
X047128Y031943D01*
X047118Y031936D01*
X047106Y031931D01*
X047094Y031930D01*
X047082Y031933D01*
X047071Y031939D01*
X047062Y031948D01*
X047057Y031960D01*
X047055Y031972D01*
X047048Y031235D02*
X047050Y031247D01*
X047055Y031259D01*
X047064Y031268D01*
X047075Y031274D01*
X047087Y031277D01*
X047099Y031276D01*
X047111Y031271D01*
X047121Y031264D01*
X047128Y031253D01*
X047132Y031241D01*
X047132Y031229D01*
X047128Y031217D01*
X047121Y031206D01*
X047111Y031199D01*
X047099Y031194D01*
X047087Y031193D01*
X047075Y031196D01*
X047064Y031202D01*
X047055Y031211D01*
X047050Y031223D01*
X047048Y031235D01*
X048211Y029846D02*
X048213Y029858D01*
X048218Y029870D01*
X048227Y029879D01*
X048238Y029885D01*
X048250Y029888D01*
X048262Y029887D01*
X048274Y029882D01*
X048284Y029875D01*
X048291Y029864D01*
X048295Y029852D01*
X048295Y029840D01*
X048291Y029828D01*
X048284Y029817D01*
X048274Y029810D01*
X048262Y029805D01*
X048250Y029804D01*
X048238Y029807D01*
X048227Y029813D01*
X048218Y029822D01*
X048213Y029834D01*
X048211Y029846D01*
X051441Y028595D02*
X051443Y028607D01*
X051448Y028619D01*
X051457Y028628D01*
X051468Y028634D01*
X051480Y028637D01*
X051492Y028636D01*
X051504Y028631D01*
X051514Y028624D01*
X051521Y028613D01*
X051525Y028601D01*
X051525Y028589D01*
X051521Y028577D01*
X051514Y028566D01*
X051504Y028559D01*
X051492Y028554D01*
X051480Y028553D01*
X051468Y028556D01*
X051457Y028562D01*
X051448Y028571D01*
X051443Y028583D01*
X051441Y028595D01*
X051821Y031376D02*
X051823Y031388D01*
X051828Y031400D01*
X051837Y031409D01*
X051848Y031415D01*
X051860Y031418D01*
X051872Y031417D01*
X051884Y031412D01*
X051894Y031405D01*
X051901Y031394D01*
X051905Y031382D01*
X051905Y031370D01*
X051901Y031358D01*
X051894Y031347D01*
X051884Y031340D01*
X051872Y031335D01*
X051860Y031334D01*
X051848Y031337D01*
X051837Y031343D01*
X051828Y031352D01*
X051823Y031364D01*
X051821Y031376D01*
X040797Y031376D02*
X040799Y031388D01*
X040804Y031400D01*
X040813Y031409D01*
X040824Y031415D01*
X040836Y031418D01*
X040848Y031417D01*
X040860Y031412D01*
X040870Y031405D01*
X040877Y031394D01*
X040881Y031382D01*
X040881Y031370D01*
X040877Y031358D01*
X040870Y031347D01*
X040860Y031340D01*
X040848Y031335D01*
X040836Y031334D01*
X040824Y031337D01*
X040813Y031343D01*
X040804Y031352D01*
X040799Y031364D01*
X040797Y031376D01*
X040417Y028595D02*
X040419Y028607D01*
X040424Y028619D01*
X040433Y028628D01*
X040444Y028634D01*
X040456Y028637D01*
X040468Y028636D01*
X040480Y028631D01*
X040490Y028624D01*
X040497Y028613D01*
X040501Y028601D01*
X040501Y028589D01*
X040497Y028577D01*
X040490Y028566D01*
X040480Y028559D01*
X040468Y028554D01*
X040456Y028553D01*
X040444Y028556D01*
X040433Y028562D01*
X040424Y028571D01*
X040419Y028583D01*
X040417Y028595D01*
X037187Y029846D02*
X037189Y029858D01*
X037194Y029870D01*
X037203Y029879D01*
X037214Y029885D01*
X037226Y029888D01*
X037238Y029887D01*
X037250Y029882D01*
X037260Y029875D01*
X037267Y029864D01*
X037271Y029852D01*
X037271Y029840D01*
X037267Y029828D01*
X037260Y029817D01*
X037250Y029810D01*
X037238Y029805D01*
X037226Y029804D01*
X037214Y029807D01*
X037203Y029813D01*
X037194Y029822D01*
X037189Y029834D01*
X037187Y029846D01*
X036024Y031235D02*
X036026Y031247D01*
X036031Y031259D01*
X036040Y031268D01*
X036051Y031274D01*
X036063Y031277D01*
X036075Y031276D01*
X036087Y031271D01*
X036097Y031264D01*
X036104Y031253D01*
X036108Y031241D01*
X036108Y031229D01*
X036104Y031217D01*
X036097Y031206D01*
X036087Y031199D01*
X036075Y031194D01*
X036063Y031193D01*
X036051Y031196D01*
X036040Y031202D01*
X036031Y031211D01*
X036026Y031223D01*
X036024Y031235D01*
X036031Y031972D02*
X036033Y031984D01*
X036038Y031996D01*
X036047Y032005D01*
X036058Y032011D01*
X036070Y032014D01*
X036082Y032013D01*
X036094Y032008D01*
X036104Y032001D01*
X036111Y031990D01*
X036115Y031978D01*
X036115Y031966D01*
X036111Y031954D01*
X036104Y031943D01*
X036094Y031936D01*
X036082Y031931D01*
X036070Y031930D01*
X036058Y031933D01*
X036047Y031939D01*
X036038Y031948D01*
X036033Y031960D01*
X036031Y031972D01*
X029774Y031376D02*
X029776Y031388D01*
X029781Y031400D01*
X029790Y031409D01*
X029801Y031415D01*
X029813Y031418D01*
X029825Y031417D01*
X029837Y031412D01*
X029847Y031405D01*
X029854Y031394D01*
X029858Y031382D01*
X029858Y031370D01*
X029854Y031358D01*
X029847Y031347D01*
X029837Y031340D01*
X029825Y031335D01*
X029813Y031334D01*
X029801Y031337D01*
X029790Y031343D01*
X029781Y031352D01*
X029776Y031364D01*
X029774Y031376D01*
X029393Y028595D02*
X029395Y028607D01*
X029400Y028619D01*
X029409Y028628D01*
X029420Y028634D01*
X029432Y028637D01*
X029444Y028636D01*
X029456Y028631D01*
X029466Y028624D01*
X029473Y028613D01*
X029477Y028601D01*
X029477Y028589D01*
X029473Y028577D01*
X029466Y028566D01*
X029456Y028559D01*
X029444Y028554D01*
X029432Y028553D01*
X029420Y028556D01*
X029409Y028562D01*
X029400Y028571D01*
X029395Y028583D01*
X029393Y028595D01*
X026163Y029846D02*
X026165Y029858D01*
X026170Y029870D01*
X026179Y029879D01*
X026190Y029885D01*
X026202Y029888D01*
X026214Y029887D01*
X026226Y029882D01*
X026236Y029875D01*
X026243Y029864D01*
X026247Y029852D01*
X026247Y029840D01*
X026243Y029828D01*
X026236Y029817D01*
X026226Y029810D01*
X026214Y029805D01*
X026202Y029804D01*
X026190Y029807D01*
X026179Y029813D01*
X026170Y029822D01*
X026165Y029834D01*
X026163Y029846D01*
X025001Y031235D02*
X025003Y031247D01*
X025008Y031259D01*
X025017Y031268D01*
X025028Y031274D01*
X025040Y031277D01*
X025052Y031276D01*
X025064Y031271D01*
X025074Y031264D01*
X025081Y031253D01*
X025085Y031241D01*
X025085Y031229D01*
X025081Y031217D01*
X025074Y031206D01*
X025064Y031199D01*
X025052Y031194D01*
X025040Y031193D01*
X025028Y031196D01*
X025017Y031202D01*
X025008Y031211D01*
X025003Y031223D01*
X025001Y031235D01*
X025008Y031972D02*
X025010Y031984D01*
X025015Y031996D01*
X025024Y032005D01*
X025035Y032011D01*
X025047Y032014D01*
X025059Y032013D01*
X025071Y032008D01*
X025081Y032001D01*
X025088Y031990D01*
X025092Y031978D01*
X025092Y031966D01*
X025088Y031954D01*
X025081Y031943D01*
X025071Y031936D01*
X025059Y031931D01*
X025047Y031930D01*
X025035Y031933D01*
X025024Y031939D01*
X025015Y031948D01*
X025010Y031960D01*
X025008Y031972D01*
X018750Y031376D02*
X018752Y031388D01*
X018757Y031400D01*
X018766Y031409D01*
X018777Y031415D01*
X018789Y031418D01*
X018801Y031417D01*
X018813Y031412D01*
X018823Y031405D01*
X018830Y031394D01*
X018834Y031382D01*
X018834Y031370D01*
X018830Y031358D01*
X018823Y031347D01*
X018813Y031340D01*
X018801Y031335D01*
X018789Y031334D01*
X018777Y031337D01*
X018766Y031343D01*
X018757Y031352D01*
X018752Y031364D01*
X018750Y031376D01*
X018370Y028595D02*
X018372Y028607D01*
X018377Y028619D01*
X018386Y028628D01*
X018397Y028634D01*
X018409Y028637D01*
X018421Y028636D01*
X018433Y028631D01*
X018443Y028624D01*
X018450Y028613D01*
X018454Y028601D01*
X018454Y028589D01*
X018450Y028577D01*
X018443Y028566D01*
X018433Y028559D01*
X018421Y028554D01*
X018409Y028553D01*
X018397Y028556D01*
X018386Y028562D01*
X018377Y028571D01*
X018372Y028583D01*
X018370Y028595D01*
X015140Y029846D02*
X015142Y029858D01*
X015147Y029870D01*
X015156Y029879D01*
X015167Y029885D01*
X015179Y029888D01*
X015191Y029887D01*
X015203Y029882D01*
X015213Y029875D01*
X015220Y029864D01*
X015224Y029852D01*
X015224Y029840D01*
X015220Y029828D01*
X015213Y029817D01*
X015203Y029810D01*
X015191Y029805D01*
X015179Y029804D01*
X015167Y029807D01*
X015156Y029813D01*
X015147Y029822D01*
X015142Y029834D01*
X015140Y029846D01*
X013977Y031235D02*
X013979Y031247D01*
X013984Y031259D01*
X013993Y031268D01*
X014004Y031274D01*
X014016Y031277D01*
X014028Y031276D01*
X014040Y031271D01*
X014050Y031264D01*
X014057Y031253D01*
X014061Y031241D01*
X014061Y031229D01*
X014057Y031217D01*
X014050Y031206D01*
X014040Y031199D01*
X014028Y031194D01*
X014016Y031193D01*
X014004Y031196D01*
X013993Y031202D01*
X013984Y031211D01*
X013979Y031223D01*
X013977Y031235D01*
X013984Y031972D02*
X013986Y031984D01*
X013991Y031996D01*
X014000Y032005D01*
X014011Y032011D01*
X014023Y032014D01*
X014035Y032013D01*
X014047Y032008D01*
X014057Y032001D01*
X014064Y031990D01*
X014068Y031978D01*
X014068Y031966D01*
X014064Y031954D01*
X014057Y031943D01*
X014047Y031936D01*
X014035Y031931D01*
X014023Y031930D01*
X014011Y031933D01*
X014000Y031939D01*
X013991Y031948D01*
X013986Y031960D01*
X013984Y031972D01*
X007727Y031376D02*
X007729Y031388D01*
X007734Y031400D01*
X007743Y031409D01*
X007754Y031415D01*
X007766Y031418D01*
X007778Y031417D01*
X007790Y031412D01*
X007800Y031405D01*
X007807Y031394D01*
X007811Y031382D01*
X007811Y031370D01*
X007807Y031358D01*
X007800Y031347D01*
X007790Y031340D01*
X007778Y031335D01*
X007766Y031334D01*
X007754Y031337D01*
X007743Y031343D01*
X007734Y031352D01*
X007729Y031364D01*
X007727Y031376D01*
X007346Y028595D02*
X007348Y028607D01*
X007353Y028619D01*
X007362Y028628D01*
X007373Y028634D01*
X007385Y028637D01*
X007397Y028636D01*
X007409Y028631D01*
X007419Y028624D01*
X007426Y028613D01*
X007430Y028601D01*
X007430Y028589D01*
X007426Y028577D01*
X007419Y028566D01*
X007409Y028559D01*
X007397Y028554D01*
X007385Y028553D01*
X007373Y028556D01*
X007362Y028562D01*
X007353Y028571D01*
X007348Y028583D01*
X007346Y028595D01*
X004116Y029846D02*
X004118Y029858D01*
X004123Y029870D01*
X004132Y029879D01*
X004143Y029885D01*
X004155Y029888D01*
X004167Y029887D01*
X004179Y029882D01*
X004189Y029875D01*
X004196Y029864D01*
X004200Y029852D01*
X004200Y029840D01*
X004196Y029828D01*
X004189Y029817D01*
X004179Y029810D01*
X004167Y029805D01*
X004155Y029804D01*
X004143Y029807D01*
X004132Y029813D01*
X004123Y029822D01*
X004118Y029834D01*
X004116Y029846D01*
X002954Y031235D02*
X002956Y031247D01*
X002961Y031259D01*
X002970Y031268D01*
X002981Y031274D01*
X002993Y031277D01*
X003005Y031276D01*
X003017Y031271D01*
X003027Y031264D01*
X003034Y031253D01*
X003038Y031241D01*
X003038Y031229D01*
X003034Y031217D01*
X003027Y031206D01*
X003017Y031199D01*
X003005Y031194D01*
X002993Y031193D01*
X002981Y031196D01*
X002970Y031202D01*
X002961Y031211D01*
X002956Y031223D01*
X002954Y031235D01*
X002960Y031972D02*
X002962Y031984D01*
X002967Y031996D01*
X002976Y032005D01*
X002987Y032011D01*
X002999Y032014D01*
X003011Y032013D01*
X003023Y032008D01*
X003033Y032001D01*
X003040Y031990D01*
X003044Y031978D01*
X003044Y031966D01*
X003040Y031954D01*
X003033Y031943D01*
X003023Y031936D01*
X003011Y031931D01*
X002999Y031930D01*
X002987Y031933D01*
X002976Y031939D01*
X002967Y031948D01*
X002962Y031960D01*
X002960Y031972D01*
X002960Y011106D02*
X002962Y011118D01*
X002967Y011130D01*
X002976Y011139D01*
X002987Y011145D01*
X002999Y011148D01*
X003011Y011147D01*
X003023Y011142D01*
X003033Y011135D01*
X003040Y011124D01*
X003044Y011112D01*
X003044Y011100D01*
X003040Y011088D01*
X003033Y011077D01*
X003023Y011070D01*
X003011Y011065D01*
X002999Y011064D01*
X002987Y011067D01*
X002976Y011073D01*
X002967Y011082D01*
X002962Y011094D01*
X002960Y011106D01*
X002954Y010369D02*
X002956Y010381D01*
X002961Y010393D01*
X002970Y010402D01*
X002981Y010408D01*
X002993Y010411D01*
X003005Y010410D01*
X003017Y010405D01*
X003027Y010398D01*
X003034Y010387D01*
X003038Y010375D01*
X003038Y010363D01*
X003034Y010351D01*
X003027Y010340D01*
X003017Y010333D01*
X003005Y010328D01*
X002993Y010327D01*
X002981Y010330D01*
X002970Y010336D01*
X002961Y010345D01*
X002956Y010357D01*
X002954Y010369D01*
X004116Y008980D02*
X004118Y008992D01*
X004123Y009004D01*
X004132Y009013D01*
X004143Y009019D01*
X004155Y009022D01*
X004167Y009021D01*
X004179Y009016D01*
X004189Y009009D01*
X004196Y008998D01*
X004200Y008986D01*
X004200Y008974D01*
X004196Y008962D01*
X004189Y008951D01*
X004179Y008944D01*
X004167Y008939D01*
X004155Y008938D01*
X004143Y008941D01*
X004132Y008947D01*
X004123Y008956D01*
X004118Y008968D01*
X004116Y008980D01*
X007346Y007729D02*
X007348Y007741D01*
X007353Y007753D01*
X007362Y007762D01*
X007373Y007768D01*
X007385Y007771D01*
X007397Y007770D01*
X007409Y007765D01*
X007419Y007758D01*
X007426Y007747D01*
X007430Y007735D01*
X007430Y007723D01*
X007426Y007711D01*
X007419Y007700D01*
X007409Y007693D01*
X007397Y007688D01*
X007385Y007687D01*
X007373Y007690D01*
X007362Y007696D01*
X007353Y007705D01*
X007348Y007717D01*
X007346Y007729D01*
X007727Y010510D02*
X007729Y010522D01*
X007734Y010534D01*
X007743Y010543D01*
X007754Y010549D01*
X007766Y010552D01*
X007778Y010551D01*
X007790Y010546D01*
X007800Y010539D01*
X007807Y010528D01*
X007811Y010516D01*
X007811Y010504D01*
X007807Y010492D01*
X007800Y010481D01*
X007790Y010474D01*
X007778Y010469D01*
X007766Y010468D01*
X007754Y010471D01*
X007743Y010477D01*
X007734Y010486D01*
X007729Y010498D01*
X007727Y010510D01*
X013977Y010369D02*
X013979Y010381D01*
X013984Y010393D01*
X013993Y010402D01*
X014004Y010408D01*
X014016Y010411D01*
X014028Y010410D01*
X014040Y010405D01*
X014050Y010398D01*
X014057Y010387D01*
X014061Y010375D01*
X014061Y010363D01*
X014057Y010351D01*
X014050Y010340D01*
X014040Y010333D01*
X014028Y010328D01*
X014016Y010327D01*
X014004Y010330D01*
X013993Y010336D01*
X013984Y010345D01*
X013979Y010357D01*
X013977Y010369D01*
X013984Y011106D02*
X013986Y011118D01*
X013991Y011130D01*
X014000Y011139D01*
X014011Y011145D01*
X014023Y011148D01*
X014035Y011147D01*
X014047Y011142D01*
X014057Y011135D01*
X014064Y011124D01*
X014068Y011112D01*
X014068Y011100D01*
X014064Y011088D01*
X014057Y011077D01*
X014047Y011070D01*
X014035Y011065D01*
X014023Y011064D01*
X014011Y011067D01*
X014000Y011073D01*
X013991Y011082D01*
X013986Y011094D01*
X013984Y011106D01*
X015140Y008980D02*
X015142Y008992D01*
X015147Y009004D01*
X015156Y009013D01*
X015167Y009019D01*
X015179Y009022D01*
X015191Y009021D01*
X015203Y009016D01*
X015213Y009009D01*
X015220Y008998D01*
X015224Y008986D01*
X015224Y008974D01*
X015220Y008962D01*
X015213Y008951D01*
X015203Y008944D01*
X015191Y008939D01*
X015179Y008938D01*
X015167Y008941D01*
X015156Y008947D01*
X015147Y008956D01*
X015142Y008968D01*
X015140Y008980D01*
X018370Y007729D02*
X018372Y007741D01*
X018377Y007753D01*
X018386Y007762D01*
X018397Y007768D01*
X018409Y007771D01*
X018421Y007770D01*
X018433Y007765D01*
X018443Y007758D01*
X018450Y007747D01*
X018454Y007735D01*
X018454Y007723D01*
X018450Y007711D01*
X018443Y007700D01*
X018433Y007693D01*
X018421Y007688D01*
X018409Y007687D01*
X018397Y007690D01*
X018386Y007696D01*
X018377Y007705D01*
X018372Y007717D01*
X018370Y007729D01*
X018750Y010510D02*
X018752Y010522D01*
X018757Y010534D01*
X018766Y010543D01*
X018777Y010549D01*
X018789Y010552D01*
X018801Y010551D01*
X018813Y010546D01*
X018823Y010539D01*
X018830Y010528D01*
X018834Y010516D01*
X018834Y010504D01*
X018830Y010492D01*
X018823Y010481D01*
X018813Y010474D01*
X018801Y010469D01*
X018789Y010468D01*
X018777Y010471D01*
X018766Y010477D01*
X018757Y010486D01*
X018752Y010498D01*
X018750Y010510D01*
X025001Y010369D02*
X025003Y010381D01*
X025008Y010393D01*
X025017Y010402D01*
X025028Y010408D01*
X025040Y010411D01*
X025052Y010410D01*
X025064Y010405D01*
X025074Y010398D01*
X025081Y010387D01*
X025085Y010375D01*
X025085Y010363D01*
X025081Y010351D01*
X025074Y010340D01*
X025064Y010333D01*
X025052Y010328D01*
X025040Y010327D01*
X025028Y010330D01*
X025017Y010336D01*
X025008Y010345D01*
X025003Y010357D01*
X025001Y010369D01*
X025008Y011106D02*
X025010Y011118D01*
X025015Y011130D01*
X025024Y011139D01*
X025035Y011145D01*
X025047Y011148D01*
X025059Y011147D01*
X025071Y011142D01*
X025081Y011135D01*
X025088Y011124D01*
X025092Y011112D01*
X025092Y011100D01*
X025088Y011088D01*
X025081Y011077D01*
X025071Y011070D01*
X025059Y011065D01*
X025047Y011064D01*
X025035Y011067D01*
X025024Y011073D01*
X025015Y011082D01*
X025010Y011094D01*
X025008Y011106D01*
X026163Y008980D02*
X026165Y008992D01*
X026170Y009004D01*
X026179Y009013D01*
X026190Y009019D01*
X026202Y009022D01*
X026214Y009021D01*
X026226Y009016D01*
X026236Y009009D01*
X026243Y008998D01*
X026247Y008986D01*
X026247Y008974D01*
X026243Y008962D01*
X026236Y008951D01*
X026226Y008944D01*
X026214Y008939D01*
X026202Y008938D01*
X026190Y008941D01*
X026179Y008947D01*
X026170Y008956D01*
X026165Y008968D01*
X026163Y008980D01*
X029393Y007729D02*
X029395Y007741D01*
X029400Y007753D01*
X029409Y007762D01*
X029420Y007768D01*
X029432Y007771D01*
X029444Y007770D01*
X029456Y007765D01*
X029466Y007758D01*
X029473Y007747D01*
X029477Y007735D01*
X029477Y007723D01*
X029473Y007711D01*
X029466Y007700D01*
X029456Y007693D01*
X029444Y007688D01*
X029432Y007687D01*
X029420Y007690D01*
X029409Y007696D01*
X029400Y007705D01*
X029395Y007717D01*
X029393Y007729D01*
X029774Y010510D02*
X029776Y010522D01*
X029781Y010534D01*
X029790Y010543D01*
X029801Y010549D01*
X029813Y010552D01*
X029825Y010551D01*
X029837Y010546D01*
X029847Y010539D01*
X029854Y010528D01*
X029858Y010516D01*
X029858Y010504D01*
X029854Y010492D01*
X029847Y010481D01*
X029837Y010474D01*
X029825Y010469D01*
X029813Y010468D01*
X029801Y010471D01*
X029790Y010477D01*
X029781Y010486D01*
X029776Y010498D01*
X029774Y010510D01*
X036024Y010369D02*
X036026Y010381D01*
X036031Y010393D01*
X036040Y010402D01*
X036051Y010408D01*
X036063Y010411D01*
X036075Y010410D01*
X036087Y010405D01*
X036097Y010398D01*
X036104Y010387D01*
X036108Y010375D01*
X036108Y010363D01*
X036104Y010351D01*
X036097Y010340D01*
X036087Y010333D01*
X036075Y010328D01*
X036063Y010327D01*
X036051Y010330D01*
X036040Y010336D01*
X036031Y010345D01*
X036026Y010357D01*
X036024Y010369D01*
X036031Y011106D02*
X036033Y011118D01*
X036038Y011130D01*
X036047Y011139D01*
X036058Y011145D01*
X036070Y011148D01*
X036082Y011147D01*
X036094Y011142D01*
X036104Y011135D01*
X036111Y011124D01*
X036115Y011112D01*
X036115Y011100D01*
X036111Y011088D01*
X036104Y011077D01*
X036094Y011070D01*
X036082Y011065D01*
X036070Y011064D01*
X036058Y011067D01*
X036047Y011073D01*
X036038Y011082D01*
X036033Y011094D01*
X036031Y011106D01*
X037187Y008980D02*
X037189Y008992D01*
X037194Y009004D01*
X037203Y009013D01*
X037214Y009019D01*
X037226Y009022D01*
X037238Y009021D01*
X037250Y009016D01*
X037260Y009009D01*
X037267Y008998D01*
X037271Y008986D01*
X037271Y008974D01*
X037267Y008962D01*
X037260Y008951D01*
X037250Y008944D01*
X037238Y008939D01*
X037226Y008938D01*
X037214Y008941D01*
X037203Y008947D01*
X037194Y008956D01*
X037189Y008968D01*
X037187Y008980D01*
X040417Y007729D02*
X040419Y007741D01*
X040424Y007753D01*
X040433Y007762D01*
X040444Y007768D01*
X040456Y007771D01*
X040468Y007770D01*
X040480Y007765D01*
X040490Y007758D01*
X040497Y007747D01*
X040501Y007735D01*
X040501Y007723D01*
X040497Y007711D01*
X040490Y007700D01*
X040480Y007693D01*
X040468Y007688D01*
X040456Y007687D01*
X040444Y007690D01*
X040433Y007696D01*
X040424Y007705D01*
X040419Y007717D01*
X040417Y007729D01*
X040797Y010510D02*
X040799Y010522D01*
X040804Y010534D01*
X040813Y010543D01*
X040824Y010549D01*
X040836Y010552D01*
X040848Y010551D01*
X040860Y010546D01*
X040870Y010539D01*
X040877Y010528D01*
X040881Y010516D01*
X040881Y010504D01*
X040877Y010492D01*
X040870Y010481D01*
X040860Y010474D01*
X040848Y010469D01*
X040836Y010468D01*
X040824Y010471D01*
X040813Y010477D01*
X040804Y010486D01*
X040799Y010498D01*
X040797Y010510D01*
X047048Y010369D02*
X047050Y010381D01*
X047055Y010393D01*
X047064Y010402D01*
X047075Y010408D01*
X047087Y010411D01*
X047099Y010410D01*
X047111Y010405D01*
X047121Y010398D01*
X047128Y010387D01*
X047132Y010375D01*
X047132Y010363D01*
X047128Y010351D01*
X047121Y010340D01*
X047111Y010333D01*
X047099Y010328D01*
X047087Y010327D01*
X047075Y010330D01*
X047064Y010336D01*
X047055Y010345D01*
X047050Y010357D01*
X047048Y010369D01*
X047055Y011106D02*
X047057Y011118D01*
X047062Y011130D01*
X047071Y011139D01*
X047082Y011145D01*
X047094Y011148D01*
X047106Y011147D01*
X047118Y011142D01*
X047128Y011135D01*
X047135Y011124D01*
X047139Y011112D01*
X047139Y011100D01*
X047135Y011088D01*
X047128Y011077D01*
X047118Y011070D01*
X047106Y011065D01*
X047094Y011064D01*
X047082Y011067D01*
X047071Y011073D01*
X047062Y011082D01*
X047057Y011094D01*
X047055Y011106D01*
X048211Y008980D02*
X048213Y008992D01*
X048218Y009004D01*
X048227Y009013D01*
X048238Y009019D01*
X048250Y009022D01*
X048262Y009021D01*
X048274Y009016D01*
X048284Y009009D01*
X048291Y008998D01*
X048295Y008986D01*
X048295Y008974D01*
X048291Y008962D01*
X048284Y008951D01*
X048274Y008944D01*
X048262Y008939D01*
X048250Y008938D01*
X048238Y008941D01*
X048227Y008947D01*
X048218Y008956D01*
X048213Y008968D01*
X048211Y008980D01*
X051441Y007729D02*
X051443Y007741D01*
X051448Y007753D01*
X051457Y007762D01*
X051468Y007768D01*
X051480Y007771D01*
X051492Y007770D01*
X051504Y007765D01*
X051514Y007758D01*
X051521Y007747D01*
X051525Y007735D01*
X051525Y007723D01*
X051521Y007711D01*
X051514Y007700D01*
X051504Y007693D01*
X051492Y007688D01*
X051480Y007687D01*
X051468Y007690D01*
X051457Y007696D01*
X051448Y007705D01*
X051443Y007717D01*
X051441Y007729D01*
X051821Y010510D02*
X051823Y010522D01*
X051828Y010534D01*
X051837Y010543D01*
X051848Y010549D01*
X051860Y010552D01*
X051872Y010551D01*
X051884Y010546D01*
X051894Y010539D01*
X051901Y010528D01*
X051905Y010516D01*
X051905Y010504D01*
X051901Y010492D01*
X051894Y010481D01*
X051884Y010474D01*
X051872Y010469D01*
X051860Y010468D01*
X051848Y010471D01*
X051837Y010477D01*
X051828Y010486D01*
X051823Y010498D01*
X051821Y010510D01*
D17*
X048711Y011748D02*
X048554Y012142D01*
X048869Y012142D01*
X048711Y011748D01*
X037845Y012142D02*
X037687Y011748D01*
X037530Y012142D01*
X037845Y012142D01*
X026821Y012142D02*
X026506Y012142D01*
X026664Y011748D01*
X026821Y012142D01*
X015798Y012142D02*
X015640Y011748D01*
X015483Y012142D01*
X015798Y012142D01*
X004774Y012142D02*
X004459Y012142D01*
X004617Y011748D01*
X004774Y012142D01*
X004617Y032614D02*
X004459Y033008D01*
X004774Y033008D01*
X004617Y032614D01*
X015483Y033008D02*
X015640Y032614D01*
X015798Y033008D01*
X015483Y033008D01*
X026506Y033008D02*
X026664Y032614D01*
X026821Y033008D01*
X026506Y033008D01*
X037530Y033008D02*
X037687Y032614D01*
X037845Y033008D01*
X037530Y033008D01*
X048554Y033008D02*
X048711Y032614D01*
X048869Y033008D01*
X048554Y033008D01*
D18*
X048711Y032575D03*
X037687Y032575D03*
X026664Y032575D03*
X015640Y032575D03*
X004617Y032575D03*
X004617Y011709D03*
X015640Y011709D03*
X026664Y011709D03*
X037687Y011709D03*
X048711Y011709D03*
D19*
X048465Y008206D03*
X037441Y008206D03*
X026417Y008206D03*
X015394Y008206D03*
X004370Y008206D03*
X004370Y029072D03*
X015394Y029072D03*
X026417Y029072D03*
X037441Y029072D03*
X048465Y029072D03*
M02*
