G75*
%MOIN*%
%OFA0B0*%
%FSLAX24Y24*%
%IPPOS*%
%LPD*%
%AMOC8*
5,1,8,0,0,1.08239X$1,22.5*
%
%ADD10C,0.0394*%
%ADD11C,0.0768*%
%ADD12C,0.0476*%
%ADD13C,0.0436*%
%ADD14R,0.0551X0.1181*%
%ADD15OC8,0.0660*%
%ADD16C,0.0087*%
%ADD17C,0.0554*%
%ADD18OC8,0.0925*%
%ADD19C,0.0320*%
%ADD20C,0.0160*%
%ADD21C,0.0200*%
%ADD22C,0.0317*%
%ADD23C,0.0120*%
%ADD24C,0.0400*%
%ADD25C,0.1500*%
%ADD26C,0.1000*%
%ADD27C,0.0500*%
%ADD28C,0.0357*%
D10*
X001084Y005463D03*
X001084Y037353D03*
X058171Y037353D03*
X058171Y005463D03*
D11*
X053454Y009809D03*
X050462Y009809D03*
X053454Y014809D03*
X050462Y015809D03*
X042431Y014809D03*
X039439Y015809D03*
X031407Y014809D03*
X028415Y015809D03*
X020383Y014809D03*
X017391Y015809D03*
X017391Y009809D03*
X020383Y009809D03*
X028415Y009809D03*
X031407Y009809D03*
X039439Y009809D03*
X042431Y009809D03*
X042431Y030675D03*
X039439Y030675D03*
X042431Y035675D03*
X039439Y036675D03*
X031407Y035675D03*
X028415Y036675D03*
X020383Y035675D03*
X017391Y036675D03*
X017391Y030675D03*
X020383Y030675D03*
X028415Y030675D03*
X031407Y030675D03*
X050462Y030675D03*
X053454Y030675D03*
X053454Y035675D03*
X050462Y036675D03*
X009360Y035675D03*
X006368Y036675D03*
X006368Y030675D03*
X009360Y030675D03*
X006368Y015809D03*
X009360Y014809D03*
X009360Y009809D03*
X006368Y009809D03*
D12*
X004670Y010455D03*
X003405Y008947D03*
X014428Y008947D03*
X015694Y010455D03*
X025452Y008947D03*
X026717Y010455D03*
X036476Y008947D03*
X037741Y010455D03*
X047499Y008947D03*
X048765Y010455D03*
X044566Y018565D03*
X042400Y018565D03*
X033542Y018565D03*
X031377Y018565D03*
X022518Y018565D03*
X020353Y018565D03*
X011495Y018565D03*
X009329Y018565D03*
X014428Y029813D03*
X015694Y031321D03*
X025452Y029813D03*
X026717Y031321D03*
X036476Y029813D03*
X037741Y031321D03*
X047499Y029813D03*
X048765Y031321D03*
X044566Y039431D03*
X042400Y039431D03*
X033542Y039431D03*
X031377Y039431D03*
X022518Y039431D03*
X020353Y039431D03*
X011495Y039431D03*
X009329Y039431D03*
X004670Y031321D03*
X003405Y029813D03*
X053424Y039431D03*
X055589Y039431D03*
X055589Y018565D03*
X053424Y018565D03*
D13*
X052334Y018084D03*
X051834Y018950D03*
X050762Y018783D03*
X049762Y018783D03*
X048617Y017452D03*
X047864Y015693D03*
X046864Y015693D03*
X044362Y016903D03*
X043362Y016903D03*
X041311Y018084D03*
X040811Y018950D03*
X039739Y018783D03*
X038739Y018783D03*
X037593Y017452D03*
X036841Y015693D03*
X035841Y015693D03*
X033339Y016903D03*
X032339Y016903D03*
X030287Y018084D03*
X029787Y018950D03*
X028715Y018783D03*
X027715Y018783D03*
X026570Y017452D03*
X025817Y015693D03*
X024817Y015693D03*
X022315Y016903D03*
X021315Y016903D03*
X019263Y018084D03*
X018763Y018950D03*
X017691Y018783D03*
X016691Y018783D03*
X015546Y017452D03*
X014794Y015693D03*
X013794Y015693D03*
X011291Y016903D03*
X010291Y016903D03*
X008240Y018084D03*
X007740Y018950D03*
X006668Y018783D03*
X005668Y018783D03*
X004522Y017452D03*
X003770Y015693D03*
X002770Y015693D03*
X004616Y013399D03*
X002747Y007848D03*
X002747Y006848D03*
X013770Y006848D03*
X013770Y007848D03*
X015639Y013399D03*
X024794Y007848D03*
X024794Y006848D03*
X026663Y013399D03*
X035818Y007848D03*
X035818Y006848D03*
X037687Y013399D03*
X046841Y007848D03*
X046841Y006848D03*
X048710Y013399D03*
X054386Y016903D03*
X055386Y016903D03*
X046841Y027715D03*
X046841Y028715D03*
X048710Y034265D03*
X047864Y036559D03*
X046864Y036559D03*
X048617Y038318D03*
X049762Y039649D03*
X050762Y039649D03*
X051834Y039817D03*
X052334Y038951D03*
X054386Y037769D03*
X055386Y037769D03*
X044362Y037769D03*
X043362Y037769D03*
X041311Y038951D03*
X040811Y039817D03*
X039739Y039649D03*
X038739Y039649D03*
X037593Y038318D03*
X036841Y036559D03*
X035841Y036559D03*
X033339Y037769D03*
X032339Y037769D03*
X030287Y038951D03*
X029787Y039817D03*
X028715Y039649D03*
X027715Y039649D03*
X026570Y038318D03*
X025817Y036559D03*
X024817Y036559D03*
X022315Y037769D03*
X021315Y037769D03*
X019263Y038951D03*
X018763Y039817D03*
X017691Y039649D03*
X016691Y039649D03*
X015546Y038318D03*
X014794Y036559D03*
X013794Y036559D03*
X011291Y037769D03*
X010291Y037769D03*
X008240Y038951D03*
X007740Y039817D03*
X006668Y039649D03*
X005668Y039649D03*
X004522Y038318D03*
X003770Y036559D03*
X002770Y036559D03*
X004616Y034265D03*
X002747Y028715D03*
X002747Y027715D03*
X013770Y027715D03*
X013770Y028715D03*
X015639Y034265D03*
X024794Y028715D03*
X024794Y027715D03*
X026663Y034265D03*
X035818Y028715D03*
X035818Y027715D03*
X037687Y034265D03*
D14*
X037925Y028065D03*
X036783Y028065D03*
X026901Y028065D03*
X025760Y028065D03*
X015878Y028065D03*
X014736Y028065D03*
X004854Y028065D03*
X003712Y028065D03*
X003712Y007198D03*
X004854Y007198D03*
X014736Y007198D03*
X015878Y007198D03*
X025760Y007198D03*
X026901Y007198D03*
X036783Y007198D03*
X037925Y007198D03*
X047807Y007198D03*
X048949Y007198D03*
X048949Y028065D03*
X047807Y028065D03*
D15*
X049960Y028045D03*
X049960Y029045D03*
X038936Y029045D03*
X038936Y028045D03*
X027913Y028045D03*
X027913Y029045D03*
X016889Y029045D03*
X016889Y028045D03*
X005865Y028045D03*
X005865Y029045D03*
X005865Y008179D03*
X005865Y007179D03*
X016889Y007179D03*
X016889Y008179D03*
X027913Y008179D03*
X027913Y007179D03*
X038936Y007179D03*
X038936Y008179D03*
X049960Y008179D03*
X049960Y007179D03*
D16*
X047638Y013954D02*
X047682Y013910D01*
X047544Y013873D01*
X047419Y013945D01*
X047382Y014083D01*
X047454Y014208D01*
X047592Y014245D01*
X047717Y014173D01*
X047754Y014035D01*
X047682Y013910D01*
X047639Y013966D01*
X047553Y013943D01*
X047475Y013988D01*
X047452Y014074D01*
X047497Y014152D01*
X047583Y014175D01*
X047661Y014130D01*
X047684Y014044D01*
X047639Y013966D01*
X047596Y014022D01*
X047563Y014013D01*
X047531Y014031D01*
X047522Y014064D01*
X047540Y014096D01*
X047573Y014105D01*
X047605Y014087D01*
X047614Y014054D01*
X047596Y014022D01*
X047471Y017820D02*
X047515Y017776D01*
X047385Y017715D01*
X047250Y017765D01*
X047189Y017895D01*
X047239Y018030D01*
X047369Y018091D01*
X047504Y018041D01*
X047565Y017911D01*
X047515Y017776D01*
X047464Y017824D01*
X047382Y017786D01*
X047298Y017816D01*
X047260Y017898D01*
X047290Y017982D01*
X047372Y018020D01*
X047456Y017990D01*
X047494Y017908D01*
X047464Y017824D01*
X047411Y017872D01*
X047379Y017857D01*
X047346Y017869D01*
X047331Y017901D01*
X047343Y017934D01*
X047375Y017949D01*
X047408Y017937D01*
X047423Y017905D01*
X047411Y017872D01*
X036448Y017820D02*
X036492Y017776D01*
X036362Y017715D01*
X036227Y017765D01*
X036166Y017895D01*
X036216Y018030D01*
X036346Y018091D01*
X036481Y018041D01*
X036542Y017911D01*
X036492Y017776D01*
X036441Y017824D01*
X036359Y017786D01*
X036275Y017816D01*
X036237Y017898D01*
X036267Y017982D01*
X036349Y018020D01*
X036433Y017990D01*
X036471Y017908D01*
X036441Y017824D01*
X036388Y017872D01*
X036356Y017857D01*
X036323Y017869D01*
X036308Y017901D01*
X036320Y017934D01*
X036352Y017949D01*
X036385Y017937D01*
X036400Y017905D01*
X036388Y017872D01*
X036614Y013954D02*
X036658Y013910D01*
X036520Y013873D01*
X036395Y013945D01*
X036358Y014083D01*
X036430Y014208D01*
X036568Y014245D01*
X036693Y014173D01*
X036730Y014035D01*
X036658Y013910D01*
X036615Y013966D01*
X036529Y013943D01*
X036451Y013988D01*
X036428Y014074D01*
X036473Y014152D01*
X036559Y014175D01*
X036637Y014130D01*
X036660Y014044D01*
X036615Y013966D01*
X036572Y014022D01*
X036539Y014013D01*
X036507Y014031D01*
X036498Y014064D01*
X036516Y014096D01*
X036549Y014105D01*
X036581Y014087D01*
X036590Y014054D01*
X036572Y014022D01*
X025591Y013954D02*
X025635Y013910D01*
X025497Y013873D01*
X025372Y013945D01*
X025335Y014083D01*
X025407Y014208D01*
X025545Y014245D01*
X025670Y014173D01*
X025707Y014035D01*
X025635Y013910D01*
X025592Y013966D01*
X025506Y013943D01*
X025428Y013988D01*
X025405Y014074D01*
X025450Y014152D01*
X025536Y014175D01*
X025614Y014130D01*
X025637Y014044D01*
X025592Y013966D01*
X025549Y014022D01*
X025516Y014013D01*
X025484Y014031D01*
X025475Y014064D01*
X025493Y014096D01*
X025526Y014105D01*
X025558Y014087D01*
X025567Y014054D01*
X025549Y014022D01*
X025424Y017820D02*
X025468Y017776D01*
X025338Y017715D01*
X025203Y017765D01*
X025142Y017895D01*
X025192Y018030D01*
X025322Y018091D01*
X025457Y018041D01*
X025518Y017911D01*
X025468Y017776D01*
X025417Y017824D01*
X025335Y017786D01*
X025251Y017816D01*
X025213Y017898D01*
X025243Y017982D01*
X025325Y018020D01*
X025409Y017990D01*
X025447Y017908D01*
X025417Y017824D01*
X025364Y017872D01*
X025332Y017857D01*
X025299Y017869D01*
X025284Y017901D01*
X025296Y017934D01*
X025328Y017949D01*
X025361Y017937D01*
X025376Y017905D01*
X025364Y017872D01*
X014401Y017820D02*
X014445Y017776D01*
X014315Y017715D01*
X014180Y017765D01*
X014119Y017895D01*
X014169Y018030D01*
X014299Y018091D01*
X014434Y018041D01*
X014495Y017911D01*
X014445Y017776D01*
X014394Y017824D01*
X014312Y017786D01*
X014228Y017816D01*
X014190Y017898D01*
X014220Y017982D01*
X014302Y018020D01*
X014386Y017990D01*
X014424Y017908D01*
X014394Y017824D01*
X014341Y017872D01*
X014309Y017857D01*
X014276Y017869D01*
X014261Y017901D01*
X014273Y017934D01*
X014305Y017949D01*
X014338Y017937D01*
X014353Y017905D01*
X014341Y017872D01*
X014567Y013954D02*
X014611Y013910D01*
X014473Y013873D01*
X014348Y013945D01*
X014311Y014083D01*
X014383Y014208D01*
X014521Y014245D01*
X014646Y014173D01*
X014683Y014035D01*
X014611Y013910D01*
X014568Y013966D01*
X014482Y013943D01*
X014404Y013988D01*
X014381Y014074D01*
X014426Y014152D01*
X014512Y014175D01*
X014590Y014130D01*
X014613Y014044D01*
X014568Y013966D01*
X014525Y014022D01*
X014492Y014013D01*
X014460Y014031D01*
X014451Y014064D01*
X014469Y014096D01*
X014502Y014105D01*
X014534Y014087D01*
X014543Y014054D01*
X014525Y014022D01*
X003543Y013954D02*
X003587Y013910D01*
X003449Y013873D01*
X003324Y013945D01*
X003287Y014083D01*
X003359Y014208D01*
X003497Y014245D01*
X003622Y014173D01*
X003659Y014035D01*
X003587Y013910D01*
X003544Y013966D01*
X003458Y013943D01*
X003380Y013988D01*
X003357Y014074D01*
X003402Y014152D01*
X003488Y014175D01*
X003566Y014130D01*
X003589Y014044D01*
X003544Y013966D01*
X003501Y014022D01*
X003468Y014013D01*
X003436Y014031D01*
X003427Y014064D01*
X003445Y014096D01*
X003478Y014105D01*
X003510Y014087D01*
X003519Y014054D01*
X003501Y014022D01*
X003377Y017820D02*
X003421Y017776D01*
X003291Y017715D01*
X003156Y017765D01*
X003095Y017895D01*
X003145Y018030D01*
X003275Y018091D01*
X003410Y018041D01*
X003471Y017911D01*
X003421Y017776D01*
X003370Y017824D01*
X003288Y017786D01*
X003204Y017816D01*
X003166Y017898D01*
X003196Y017982D01*
X003278Y018020D01*
X003362Y017990D01*
X003400Y017908D01*
X003370Y017824D01*
X003317Y017872D01*
X003285Y017857D01*
X003252Y017869D01*
X003237Y017901D01*
X003249Y017934D01*
X003281Y017949D01*
X003314Y017937D01*
X003329Y017905D01*
X003317Y017872D01*
X003543Y034820D02*
X003587Y034776D01*
X003449Y034739D01*
X003324Y034811D01*
X003287Y034949D01*
X003359Y035074D01*
X003497Y035111D01*
X003622Y035039D01*
X003659Y034901D01*
X003587Y034776D01*
X003544Y034832D01*
X003458Y034809D01*
X003380Y034854D01*
X003357Y034940D01*
X003402Y035018D01*
X003488Y035041D01*
X003566Y034996D01*
X003589Y034910D01*
X003544Y034832D01*
X003501Y034888D01*
X003468Y034879D01*
X003436Y034897D01*
X003427Y034930D01*
X003445Y034962D01*
X003478Y034971D01*
X003510Y034953D01*
X003519Y034920D01*
X003501Y034888D01*
X003377Y038686D02*
X003421Y038642D01*
X003291Y038581D01*
X003156Y038631D01*
X003095Y038761D01*
X003145Y038896D01*
X003275Y038957D01*
X003410Y038907D01*
X003471Y038777D01*
X003421Y038642D01*
X003370Y038690D01*
X003288Y038652D01*
X003204Y038682D01*
X003166Y038764D01*
X003196Y038848D01*
X003278Y038886D01*
X003362Y038856D01*
X003400Y038774D01*
X003370Y038690D01*
X003317Y038738D01*
X003285Y038723D01*
X003252Y038735D01*
X003237Y038767D01*
X003249Y038800D01*
X003281Y038815D01*
X003314Y038803D01*
X003329Y038771D01*
X003317Y038738D01*
X014401Y038686D02*
X014445Y038642D01*
X014315Y038581D01*
X014180Y038631D01*
X014119Y038761D01*
X014169Y038896D01*
X014299Y038957D01*
X014434Y038907D01*
X014495Y038777D01*
X014445Y038642D01*
X014394Y038690D01*
X014312Y038652D01*
X014228Y038682D01*
X014190Y038764D01*
X014220Y038848D01*
X014302Y038886D01*
X014386Y038856D01*
X014424Y038774D01*
X014394Y038690D01*
X014341Y038738D01*
X014309Y038723D01*
X014276Y038735D01*
X014261Y038767D01*
X014273Y038800D01*
X014305Y038815D01*
X014338Y038803D01*
X014353Y038771D01*
X014341Y038738D01*
X014567Y034820D02*
X014611Y034776D01*
X014473Y034739D01*
X014348Y034811D01*
X014311Y034949D01*
X014383Y035074D01*
X014521Y035111D01*
X014646Y035039D01*
X014683Y034901D01*
X014611Y034776D01*
X014568Y034832D01*
X014482Y034809D01*
X014404Y034854D01*
X014381Y034940D01*
X014426Y035018D01*
X014512Y035041D01*
X014590Y034996D01*
X014613Y034910D01*
X014568Y034832D01*
X014525Y034888D01*
X014492Y034879D01*
X014460Y034897D01*
X014451Y034930D01*
X014469Y034962D01*
X014502Y034971D01*
X014534Y034953D01*
X014543Y034920D01*
X014525Y034888D01*
X025424Y038686D02*
X025468Y038642D01*
X025338Y038581D01*
X025203Y038631D01*
X025142Y038761D01*
X025192Y038896D01*
X025322Y038957D01*
X025457Y038907D01*
X025518Y038777D01*
X025468Y038642D01*
X025417Y038690D01*
X025335Y038652D01*
X025251Y038682D01*
X025213Y038764D01*
X025243Y038848D01*
X025325Y038886D01*
X025409Y038856D01*
X025447Y038774D01*
X025417Y038690D01*
X025364Y038738D01*
X025332Y038723D01*
X025299Y038735D01*
X025284Y038767D01*
X025296Y038800D01*
X025328Y038815D01*
X025361Y038803D01*
X025376Y038771D01*
X025364Y038738D01*
X025591Y034820D02*
X025635Y034776D01*
X025497Y034739D01*
X025372Y034811D01*
X025335Y034949D01*
X025407Y035074D01*
X025545Y035111D01*
X025670Y035039D01*
X025707Y034901D01*
X025635Y034776D01*
X025592Y034832D01*
X025506Y034809D01*
X025428Y034854D01*
X025405Y034940D01*
X025450Y035018D01*
X025536Y035041D01*
X025614Y034996D01*
X025637Y034910D01*
X025592Y034832D01*
X025549Y034888D01*
X025516Y034879D01*
X025484Y034897D01*
X025475Y034930D01*
X025493Y034962D01*
X025526Y034971D01*
X025558Y034953D01*
X025567Y034920D01*
X025549Y034888D01*
X036614Y034820D02*
X036658Y034776D01*
X036520Y034739D01*
X036395Y034811D01*
X036358Y034949D01*
X036430Y035074D01*
X036568Y035111D01*
X036693Y035039D01*
X036730Y034901D01*
X036658Y034776D01*
X036615Y034832D01*
X036529Y034809D01*
X036451Y034854D01*
X036428Y034940D01*
X036473Y035018D01*
X036559Y035041D01*
X036637Y034996D01*
X036660Y034910D01*
X036615Y034832D01*
X036572Y034888D01*
X036539Y034879D01*
X036507Y034897D01*
X036498Y034930D01*
X036516Y034962D01*
X036549Y034971D01*
X036581Y034953D01*
X036590Y034920D01*
X036572Y034888D01*
X036448Y038686D02*
X036492Y038642D01*
X036362Y038581D01*
X036227Y038631D01*
X036166Y038761D01*
X036216Y038896D01*
X036346Y038957D01*
X036481Y038907D01*
X036542Y038777D01*
X036492Y038642D01*
X036441Y038690D01*
X036359Y038652D01*
X036275Y038682D01*
X036237Y038764D01*
X036267Y038848D01*
X036349Y038886D01*
X036433Y038856D01*
X036471Y038774D01*
X036441Y038690D01*
X036388Y038738D01*
X036356Y038723D01*
X036323Y038735D01*
X036308Y038767D01*
X036320Y038800D01*
X036352Y038815D01*
X036385Y038803D01*
X036400Y038771D01*
X036388Y038738D01*
X047471Y038686D02*
X047515Y038642D01*
X047385Y038581D01*
X047250Y038631D01*
X047189Y038761D01*
X047239Y038896D01*
X047369Y038957D01*
X047504Y038907D01*
X047565Y038777D01*
X047515Y038642D01*
X047464Y038690D01*
X047382Y038652D01*
X047298Y038682D01*
X047260Y038764D01*
X047290Y038848D01*
X047372Y038886D01*
X047456Y038856D01*
X047494Y038774D01*
X047464Y038690D01*
X047411Y038738D01*
X047379Y038723D01*
X047346Y038735D01*
X047331Y038767D01*
X047343Y038800D01*
X047375Y038815D01*
X047408Y038803D01*
X047423Y038771D01*
X047411Y038738D01*
X047638Y034820D02*
X047682Y034776D01*
X047544Y034739D01*
X047419Y034811D01*
X047382Y034949D01*
X047454Y035074D01*
X047592Y035111D01*
X047717Y035039D01*
X047754Y034901D01*
X047682Y034776D01*
X047639Y034832D01*
X047553Y034809D01*
X047475Y034854D01*
X047452Y034940D01*
X047497Y035018D01*
X047583Y035041D01*
X047661Y034996D01*
X047684Y034910D01*
X047639Y034832D01*
X047596Y034888D01*
X047563Y034879D01*
X047531Y034897D01*
X047522Y034930D01*
X047540Y034962D01*
X047573Y034971D01*
X047605Y034953D01*
X047614Y034920D01*
X047596Y034888D01*
D17*
X050810Y029431D03*
X050810Y027659D03*
X053369Y027659D03*
X053369Y029431D03*
X042346Y029431D03*
X042346Y027659D03*
X039787Y027659D03*
X039787Y029431D03*
X031322Y029431D03*
X031322Y027659D03*
X028763Y027659D03*
X028763Y029431D03*
X020298Y029431D03*
X020298Y027659D03*
X017739Y027659D03*
X017739Y029431D03*
X009275Y029431D03*
X009275Y027659D03*
X006716Y027659D03*
X006716Y029431D03*
X006716Y008564D03*
X006716Y006793D03*
X009275Y006793D03*
X009275Y008564D03*
X017739Y008564D03*
X017739Y006793D03*
X020298Y006793D03*
X020298Y008564D03*
X028763Y008564D03*
X028763Y006793D03*
X031322Y006793D03*
X031322Y008564D03*
X039787Y008564D03*
X039787Y006793D03*
X042346Y006793D03*
X042346Y008564D03*
X050810Y008564D03*
X050810Y006793D03*
X053369Y006793D03*
X053369Y008564D03*
D18*
X005083Y002094D03*
X007980Y001401D03*
X016107Y002094D03*
X019003Y001401D03*
X027131Y002094D03*
X030027Y001401D03*
X038154Y002094D03*
X041050Y001401D03*
X049178Y002094D03*
X052074Y001401D03*
X053383Y020229D03*
X056176Y020229D03*
X052074Y022267D03*
X049178Y022961D03*
X045153Y020229D03*
X042359Y020229D03*
X041050Y022267D03*
X038154Y022961D03*
X034129Y020229D03*
X031335Y020229D03*
X030027Y022267D03*
X027131Y022961D03*
X023106Y020229D03*
X020312Y020229D03*
X019003Y022267D03*
X016107Y022961D03*
X012082Y020229D03*
X009288Y020229D03*
X007980Y022267D03*
X005083Y022961D03*
X009288Y041095D03*
X012082Y041095D03*
X020312Y041095D03*
X023106Y041095D03*
X031335Y041095D03*
X034129Y041095D03*
X042359Y041095D03*
X045153Y041095D03*
X053383Y041095D03*
X056176Y041095D03*
D19*
X052334Y038950D02*
X052289Y038926D01*
X052247Y038899D01*
X052206Y038868D01*
X052167Y038835D01*
X052131Y038799D01*
X052098Y038761D01*
X052067Y038721D01*
X052039Y038678D01*
X052015Y038634D01*
X051993Y038587D01*
X051975Y038540D01*
X051961Y038491D01*
X051950Y038442D01*
X051942Y038391D01*
X051939Y038341D01*
X051938Y038290D01*
X051942Y038239D01*
X051949Y038189D01*
X051959Y038139D01*
X051973Y038090D01*
X051991Y038042D01*
X052012Y037996D01*
X050462Y030675D02*
X050460Y030673D01*
X049708Y030673D01*
X048848Y029813D01*
X047499Y029813D01*
X047807Y029506D01*
X047807Y028065D01*
X048943Y028071D02*
X048949Y028065D01*
X048943Y028071D02*
X048943Y028703D01*
X049285Y029045D01*
X049960Y029045D01*
X039439Y030675D02*
X039436Y030673D01*
X038684Y030673D01*
X037825Y029813D01*
X036476Y029813D01*
X036783Y029506D01*
X036783Y028065D01*
X037919Y028071D02*
X037919Y028703D01*
X038261Y029045D01*
X038936Y029045D01*
X037919Y028071D02*
X037925Y028065D01*
X028415Y030675D02*
X028412Y030673D01*
X027660Y030673D01*
X026801Y029813D01*
X025452Y029813D01*
X025760Y029506D01*
X025760Y028065D01*
X026895Y028071D02*
X026901Y028065D01*
X026895Y028071D02*
X026895Y028703D01*
X027238Y029045D01*
X027913Y029045D01*
X017391Y030675D02*
X017389Y030673D01*
X016637Y030673D01*
X015778Y029813D01*
X014428Y029813D01*
X014736Y029506D01*
X014736Y028065D01*
X015872Y028071D02*
X015878Y028065D01*
X015872Y028071D02*
X015872Y028703D01*
X016214Y029045D01*
X016889Y029045D01*
X006368Y030675D02*
X006365Y030673D01*
X005613Y030673D01*
X004754Y029813D01*
X003405Y029813D01*
X003712Y029506D01*
X003712Y028065D01*
X004848Y028071D02*
X004854Y028065D01*
X004848Y028071D02*
X004848Y028703D01*
X005190Y029045D01*
X005865Y029045D01*
X007918Y037996D02*
X007897Y038042D01*
X007879Y038090D01*
X007865Y038139D01*
X007855Y038189D01*
X007848Y038239D01*
X007844Y038290D01*
X007845Y038341D01*
X007848Y038391D01*
X007856Y038442D01*
X007867Y038491D01*
X007881Y038540D01*
X007899Y038587D01*
X007921Y038634D01*
X007945Y038678D01*
X007973Y038721D01*
X008004Y038761D01*
X008037Y038799D01*
X008073Y038835D01*
X008112Y038868D01*
X008153Y038899D01*
X008195Y038926D01*
X008240Y038950D01*
X018941Y037996D02*
X018920Y038042D01*
X018902Y038090D01*
X018888Y038139D01*
X018878Y038189D01*
X018871Y038239D01*
X018867Y038290D01*
X018868Y038341D01*
X018871Y038391D01*
X018879Y038442D01*
X018890Y038491D01*
X018904Y038540D01*
X018922Y038587D01*
X018944Y038634D01*
X018968Y038678D01*
X018996Y038721D01*
X019027Y038761D01*
X019060Y038799D01*
X019096Y038835D01*
X019135Y038868D01*
X019176Y038899D01*
X019218Y038926D01*
X019263Y038950D01*
X029965Y037996D02*
X029944Y038042D01*
X029926Y038090D01*
X029912Y038139D01*
X029902Y038189D01*
X029895Y038239D01*
X029891Y038290D01*
X029892Y038341D01*
X029895Y038391D01*
X029903Y038442D01*
X029914Y038491D01*
X029928Y038540D01*
X029946Y038587D01*
X029968Y038634D01*
X029992Y038678D01*
X030020Y038721D01*
X030051Y038761D01*
X030084Y038799D01*
X030120Y038835D01*
X030159Y038868D01*
X030200Y038899D01*
X030242Y038926D01*
X030287Y038950D01*
X040989Y037996D02*
X040968Y038042D01*
X040950Y038090D01*
X040936Y038139D01*
X040926Y038189D01*
X040919Y038239D01*
X040915Y038290D01*
X040916Y038341D01*
X040919Y038391D01*
X040927Y038442D01*
X040938Y038491D01*
X040952Y038540D01*
X040970Y038587D01*
X040992Y038634D01*
X041016Y038678D01*
X041044Y038721D01*
X041075Y038761D01*
X041108Y038799D01*
X041144Y038835D01*
X041183Y038868D01*
X041224Y038899D01*
X041266Y038926D01*
X041311Y038950D01*
X041311Y018084D02*
X041264Y018059D01*
X041220Y018030D01*
X041177Y017998D01*
X041137Y017963D01*
X041100Y017925D01*
X041066Y017884D01*
X041034Y017841D01*
X041007Y017795D01*
X040982Y017748D01*
X040961Y017699D01*
X040944Y017648D01*
X040931Y017597D01*
X040922Y017544D01*
X040916Y017492D01*
X040915Y017438D01*
X040918Y017385D01*
X040924Y017332D01*
X040935Y017280D01*
X040949Y017229D01*
X040967Y017179D01*
X040989Y017130D01*
X039439Y009809D02*
X039436Y009807D01*
X038684Y009807D01*
X037825Y008947D01*
X036476Y008947D01*
X036783Y008640D01*
X036783Y007198D01*
X037919Y007204D02*
X037925Y007198D01*
X037919Y007204D02*
X037919Y007837D01*
X038261Y008179D01*
X038936Y008179D01*
X047499Y008947D02*
X047807Y008640D01*
X047807Y007198D01*
X048943Y007204D02*
X048943Y007837D01*
X049285Y008179D01*
X049960Y008179D01*
X048848Y008947D02*
X049708Y009807D01*
X050460Y009807D01*
X050462Y009809D01*
X048848Y008947D02*
X047499Y008947D01*
X048943Y007204D02*
X048949Y007198D01*
X052012Y017130D02*
X051990Y017179D01*
X051972Y017229D01*
X051958Y017280D01*
X051947Y017332D01*
X051941Y017385D01*
X051938Y017438D01*
X051939Y017492D01*
X051945Y017544D01*
X051954Y017597D01*
X051967Y017648D01*
X051984Y017699D01*
X052005Y017748D01*
X052030Y017795D01*
X052057Y017841D01*
X052089Y017884D01*
X052123Y017925D01*
X052160Y017963D01*
X052200Y017998D01*
X052243Y018030D01*
X052287Y018059D01*
X052334Y018084D01*
X030287Y018084D02*
X030240Y018059D01*
X030196Y018030D01*
X030153Y017998D01*
X030113Y017963D01*
X030076Y017925D01*
X030042Y017884D01*
X030010Y017841D01*
X029983Y017795D01*
X029958Y017748D01*
X029937Y017699D01*
X029920Y017648D01*
X029907Y017597D01*
X029898Y017544D01*
X029892Y017492D01*
X029891Y017438D01*
X029894Y017385D01*
X029900Y017332D01*
X029911Y017280D01*
X029925Y017229D01*
X029943Y017179D01*
X029965Y017130D01*
X028415Y009809D02*
X028412Y009807D01*
X027660Y009807D01*
X026801Y008947D01*
X025452Y008947D01*
X025760Y008640D01*
X025760Y007198D01*
X026895Y007204D02*
X026895Y007837D01*
X027238Y008179D01*
X027913Y008179D01*
X026895Y007204D02*
X026901Y007198D01*
X017391Y009809D02*
X017389Y009807D01*
X016637Y009807D01*
X015778Y008947D01*
X014428Y008947D01*
X014736Y008640D01*
X014736Y007198D01*
X015872Y007204D02*
X015872Y007837D01*
X016214Y008179D01*
X016889Y008179D01*
X015872Y007204D02*
X015878Y007198D01*
X006368Y009809D02*
X006365Y009807D01*
X005613Y009807D01*
X004754Y008947D01*
X003405Y008947D01*
X003712Y008640D01*
X003712Y007198D01*
X004848Y007204D02*
X004848Y007837D01*
X005190Y008179D01*
X005865Y008179D01*
X004848Y007204D02*
X004854Y007198D01*
X007918Y017130D02*
X007896Y017179D01*
X007878Y017229D01*
X007864Y017280D01*
X007853Y017332D01*
X007847Y017385D01*
X007844Y017438D01*
X007845Y017492D01*
X007851Y017544D01*
X007860Y017597D01*
X007873Y017648D01*
X007890Y017699D01*
X007911Y017748D01*
X007936Y017795D01*
X007963Y017841D01*
X007995Y017884D01*
X008029Y017925D01*
X008066Y017963D01*
X008106Y017998D01*
X008149Y018030D01*
X008193Y018059D01*
X008240Y018084D01*
X018941Y017130D02*
X018919Y017179D01*
X018901Y017229D01*
X018887Y017280D01*
X018876Y017332D01*
X018870Y017385D01*
X018867Y017438D01*
X018868Y017492D01*
X018874Y017544D01*
X018883Y017597D01*
X018896Y017648D01*
X018913Y017699D01*
X018934Y017748D01*
X018959Y017795D01*
X018986Y017841D01*
X019018Y017884D01*
X019052Y017925D01*
X019089Y017963D01*
X019129Y017998D01*
X019172Y018030D01*
X019216Y018059D01*
X019263Y018084D01*
D20*
X017739Y027659D02*
X017712Y027686D01*
X017712Y028703D01*
X017370Y029045D01*
X016889Y029045D01*
X006688Y028703D02*
X006688Y027686D01*
X006716Y027659D01*
X006688Y028703D02*
X006346Y029045D01*
X005865Y029045D01*
X027913Y029045D02*
X028393Y029045D01*
X028735Y028703D01*
X028735Y027686D01*
X028763Y027659D01*
X038936Y029045D02*
X039417Y029045D01*
X039759Y028703D01*
X039759Y027686D01*
X039787Y027659D01*
X049960Y029045D02*
X050441Y029045D01*
X050783Y028703D01*
X050783Y027686D01*
X050810Y027659D01*
X050441Y008179D02*
X049960Y008179D01*
X050441Y008179D02*
X050783Y007837D01*
X050783Y006820D01*
X050810Y006793D01*
X039787Y006793D02*
X039759Y006820D01*
X039759Y007837D01*
X039417Y008179D01*
X038936Y008179D01*
X028735Y007837D02*
X028735Y006820D01*
X028763Y006793D01*
X028735Y007837D02*
X028393Y008179D01*
X027913Y008179D01*
X017712Y007837D02*
X017712Y006820D01*
X017739Y006793D01*
X017712Y007837D02*
X017370Y008179D01*
X016889Y008179D01*
X006688Y007837D02*
X006688Y006820D01*
X006716Y006793D01*
X006688Y007837D02*
X006346Y008179D01*
X005865Y008179D01*
D21*
X003712Y007198D02*
X003097Y007198D01*
X002747Y006848D01*
X002747Y007848D02*
X002747Y009875D01*
X003388Y010517D01*
X004008Y010517D01*
X013770Y009875D02*
X013770Y007848D01*
X014120Y007198D02*
X013770Y006848D01*
X014120Y007198D02*
X014736Y007198D01*
X013770Y009875D02*
X014412Y010517D01*
X015031Y010517D01*
X024794Y009875D02*
X024794Y007848D01*
X025144Y007198D02*
X024794Y006848D01*
X025144Y007198D02*
X025760Y007198D01*
X024794Y009875D02*
X025435Y010517D01*
X026055Y010517D01*
X035818Y009875D02*
X035818Y007848D01*
X036168Y007198D02*
X035818Y006848D01*
X036168Y007198D02*
X036783Y007198D01*
X035818Y009875D02*
X036459Y010517D01*
X037079Y010517D01*
X046841Y009875D02*
X046841Y007848D01*
X047191Y007198D02*
X046841Y006848D01*
X047191Y007198D02*
X047807Y007198D01*
X046841Y009875D02*
X047483Y010517D01*
X048102Y010517D01*
X046841Y027715D02*
X047191Y028065D01*
X047807Y028065D01*
X046841Y028715D02*
X046841Y030741D01*
X047483Y031383D01*
X048102Y031383D01*
X037079Y031383D02*
X036459Y031383D01*
X035818Y030741D01*
X035818Y028715D01*
X036168Y028065D02*
X035818Y027715D01*
X036168Y028065D02*
X036783Y028065D01*
X025760Y028065D02*
X025144Y028065D01*
X024794Y027715D01*
X024794Y028715D02*
X024794Y030741D01*
X025435Y031383D01*
X026055Y031383D01*
X015031Y031383D02*
X014412Y031383D01*
X013770Y030741D01*
X013770Y028715D01*
X014120Y028065D02*
X013770Y027715D01*
X014120Y028065D02*
X014736Y028065D01*
X003712Y028065D02*
X003097Y028065D01*
X002747Y027715D01*
X002747Y028715D02*
X002747Y030741D01*
X003388Y031383D01*
X004008Y031383D01*
D22*
X008348Y029124D03*
X013584Y026880D03*
X019372Y029124D03*
X024608Y026880D03*
X030395Y029124D03*
X035631Y026880D03*
X041419Y029124D03*
X046655Y026880D03*
X052443Y029124D03*
X052443Y008258D03*
X046655Y006014D03*
X041419Y008258D03*
X035631Y006014D03*
X030395Y008258D03*
X024608Y006014D03*
X019372Y008258D03*
X013584Y006014D03*
X008348Y008258D03*
X002561Y006014D03*
X002561Y026880D03*
D23*
X007757Y026880D01*
X008112Y027235D01*
X008112Y028888D01*
X008348Y029124D01*
X013584Y026880D02*
X018781Y026880D01*
X019135Y027235D01*
X019135Y028888D01*
X019372Y029124D01*
X024608Y026880D02*
X029805Y026880D01*
X030159Y027235D01*
X030159Y028888D01*
X030395Y029124D01*
X035631Y026880D02*
X040828Y026880D01*
X041183Y027235D01*
X041183Y028888D01*
X041419Y029124D01*
X046655Y026880D02*
X051852Y026880D01*
X052206Y027235D01*
X052206Y028888D01*
X052443Y029124D01*
X052443Y008258D02*
X052206Y008022D01*
X052206Y006368D01*
X051852Y006014D01*
X046655Y006014D01*
X041183Y006368D02*
X041183Y008022D01*
X041419Y008258D01*
X041183Y006368D02*
X040828Y006014D01*
X035631Y006014D01*
X030395Y008258D02*
X030159Y008022D01*
X030159Y006368D01*
X029805Y006014D01*
X024608Y006014D01*
X019135Y006368D02*
X019135Y008022D01*
X019372Y008258D01*
X019135Y006368D02*
X018781Y006014D01*
X013584Y006014D01*
X008348Y008258D02*
X008112Y008022D01*
X008112Y006368D01*
X007757Y006014D01*
X002561Y006014D01*
D24*
X003473Y014059D02*
X003488Y014073D01*
X003488Y015054D01*
X003760Y015427D01*
X003770Y015693D01*
X002770Y015693D02*
X002688Y015701D01*
X002688Y016454D01*
X003283Y017049D01*
X003283Y017903D01*
X004163Y018783D01*
X005668Y018783D01*
X006668Y018783D02*
X007573Y018783D01*
X007740Y018950D01*
X013712Y016454D02*
X013712Y015701D01*
X013794Y015693D01*
X013712Y016454D02*
X014307Y017049D01*
X014307Y017903D01*
X015187Y018783D01*
X016691Y018783D01*
X017691Y018783D02*
X018596Y018783D01*
X018763Y018950D01*
X014794Y015693D02*
X014784Y015427D01*
X014512Y015054D01*
X014512Y014073D01*
X014497Y014059D01*
X024735Y015701D02*
X024817Y015693D01*
X024735Y015701D02*
X024735Y016454D01*
X025330Y017049D01*
X025330Y017903D01*
X026210Y018783D01*
X027715Y018783D01*
X028715Y018783D02*
X029620Y018783D01*
X029787Y018950D01*
X025817Y015693D02*
X025808Y015427D01*
X025535Y015054D01*
X025535Y014073D01*
X025521Y014059D01*
X035759Y015701D02*
X035841Y015693D01*
X035759Y015701D02*
X035759Y016454D01*
X036354Y017049D01*
X036354Y017903D01*
X037234Y018783D01*
X038739Y018783D01*
X039739Y018783D02*
X040643Y018783D01*
X040811Y018950D01*
X036841Y015693D02*
X036831Y015427D01*
X036559Y015054D01*
X036559Y014073D01*
X036544Y014059D01*
X046783Y015701D02*
X046864Y015693D01*
X046783Y015701D02*
X046783Y016454D01*
X047377Y017049D01*
X047377Y017903D01*
X048257Y018783D01*
X049762Y018783D01*
X050762Y018783D02*
X051667Y018783D01*
X051834Y018950D01*
X047864Y015693D02*
X047855Y015427D01*
X047583Y015054D01*
X047583Y014073D01*
X047568Y014059D01*
X047568Y034925D02*
X047583Y034939D01*
X047583Y035920D01*
X047855Y036293D01*
X047864Y036559D01*
X046864Y036559D02*
X046783Y036568D01*
X046783Y037320D01*
X047377Y037915D01*
X047377Y038769D01*
X048257Y039649D01*
X049762Y039649D01*
X050762Y039649D02*
X051667Y039649D01*
X051834Y039817D01*
X040811Y039817D02*
X040643Y039649D01*
X039739Y039649D01*
X038739Y039649D02*
X037234Y039649D01*
X036354Y038769D01*
X036354Y037915D01*
X035759Y037320D01*
X035759Y036568D01*
X035841Y036559D01*
X036559Y035920D02*
X036559Y034939D01*
X036544Y034925D01*
X036559Y035920D02*
X036831Y036293D01*
X036841Y036559D01*
X029787Y039817D02*
X029620Y039649D01*
X028715Y039649D01*
X027715Y039649D02*
X026210Y039649D01*
X025330Y038769D01*
X025330Y037915D01*
X024735Y037320D01*
X024735Y036568D01*
X024817Y036559D01*
X025535Y035920D02*
X025535Y034939D01*
X025521Y034925D01*
X025535Y035920D02*
X025808Y036293D01*
X025817Y036559D01*
X018763Y039817D02*
X018596Y039649D01*
X017691Y039649D01*
X016691Y039649D02*
X015187Y039649D01*
X014307Y038769D01*
X014307Y037915D01*
X013712Y037320D01*
X013712Y036568D01*
X013794Y036559D01*
X014512Y035920D02*
X014784Y036293D01*
X014794Y036559D01*
X014512Y035920D02*
X014512Y034939D01*
X014497Y034925D01*
X007740Y039817D02*
X007573Y039649D01*
X006668Y039649D01*
X005668Y039649D02*
X004163Y039649D01*
X003283Y038769D01*
X003283Y037915D01*
X002688Y037320D01*
X002688Y036568D01*
X002770Y036559D01*
X003488Y035920D02*
X003488Y034939D01*
X003473Y034925D01*
X003488Y035920D02*
X003760Y036293D01*
X003770Y036559D01*
D25*
X006368Y036675D02*
X006378Y036746D01*
X006391Y036816D01*
X006409Y036885D01*
X006430Y036953D01*
X006454Y037020D01*
X006483Y037086D01*
X006514Y037149D01*
X006550Y037211D01*
X006588Y037271D01*
X006630Y037329D01*
X006674Y037385D01*
X006722Y037438D01*
X006773Y037488D01*
X006826Y037535D01*
X006881Y037580D01*
X006939Y037621D01*
X006999Y037660D01*
X007062Y037695D01*
X007125Y037726D01*
X007191Y037754D01*
X007258Y037779D01*
X007326Y037800D01*
X007395Y037817D01*
X007465Y037830D01*
X007536Y037840D01*
X007607Y037845D01*
X007678Y037847D01*
X007749Y037845D01*
X007820Y037839D01*
X007821Y037839D02*
X009329Y039431D01*
X009288Y039432D02*
X009288Y041095D01*
X009360Y035675D02*
X009355Y034179D01*
X012082Y031452D01*
X012102Y026114D01*
X010191Y024203D01*
X005884Y024203D01*
X005113Y023432D01*
X005083Y023361D02*
X005083Y022961D01*
X005083Y023361D02*
X005085Y023381D01*
X005091Y023399D01*
X005100Y023417D01*
X005112Y023432D01*
X009288Y020229D02*
X009288Y018566D01*
X009329Y018565D02*
X007821Y016973D01*
X007820Y016973D02*
X007749Y016979D01*
X007678Y016981D01*
X007607Y016979D01*
X007536Y016974D01*
X007465Y016964D01*
X007395Y016951D01*
X007326Y016934D01*
X007258Y016913D01*
X007191Y016888D01*
X007125Y016860D01*
X007062Y016829D01*
X006999Y016794D01*
X006939Y016755D01*
X006881Y016714D01*
X006826Y016669D01*
X006773Y016622D01*
X006722Y016572D01*
X006674Y016519D01*
X006630Y016463D01*
X006588Y016405D01*
X006550Y016345D01*
X006514Y016283D01*
X006483Y016220D01*
X006454Y016154D01*
X006430Y016087D01*
X006409Y016019D01*
X006391Y015950D01*
X006378Y015880D01*
X006368Y015809D01*
X009360Y014809D02*
X009355Y013313D01*
X012082Y010586D01*
X012102Y005248D01*
X010191Y003337D01*
X005884Y003337D01*
X005113Y002566D01*
X005083Y002495D02*
X005083Y002094D01*
X005083Y002495D02*
X005085Y002515D01*
X005091Y002533D01*
X005100Y002551D01*
X005112Y002566D01*
X016107Y002495D02*
X016107Y002094D01*
X016107Y002495D02*
X016109Y002515D01*
X016115Y002533D01*
X016124Y002551D01*
X016136Y002566D01*
X016908Y003337D01*
X021214Y003337D01*
X023125Y005248D01*
X023106Y010586D01*
X020378Y013313D01*
X020383Y014809D01*
X018844Y016973D02*
X018773Y016979D01*
X018702Y016981D01*
X018631Y016979D01*
X018560Y016974D01*
X018489Y016964D01*
X018419Y016951D01*
X018350Y016934D01*
X018282Y016913D01*
X018215Y016888D01*
X018149Y016860D01*
X018086Y016829D01*
X018023Y016794D01*
X017963Y016755D01*
X017905Y016714D01*
X017850Y016669D01*
X017797Y016622D01*
X017746Y016572D01*
X017698Y016519D01*
X017654Y016463D01*
X017612Y016405D01*
X017574Y016345D01*
X017538Y016283D01*
X017507Y016220D01*
X017478Y016154D01*
X017454Y016087D01*
X017433Y016019D01*
X017415Y015950D01*
X017402Y015880D01*
X017392Y015809D01*
X018844Y016973D02*
X020353Y018565D01*
X020312Y018566D02*
X020312Y020229D01*
X016107Y022961D02*
X016107Y023361D01*
X016136Y023432D02*
X016908Y024203D01*
X021214Y024203D01*
X023125Y026114D01*
X023106Y031452D01*
X020378Y034179D01*
X020383Y035675D01*
X018844Y037839D02*
X018773Y037845D01*
X018702Y037847D01*
X018631Y037845D01*
X018560Y037840D01*
X018489Y037830D01*
X018419Y037817D01*
X018350Y037800D01*
X018282Y037779D01*
X018215Y037754D01*
X018149Y037726D01*
X018086Y037695D01*
X018023Y037660D01*
X017963Y037621D01*
X017905Y037580D01*
X017850Y037535D01*
X017797Y037488D01*
X017746Y037438D01*
X017698Y037385D01*
X017654Y037329D01*
X017612Y037271D01*
X017574Y037211D01*
X017538Y037149D01*
X017507Y037086D01*
X017478Y037020D01*
X017454Y036953D01*
X017433Y036885D01*
X017415Y036816D01*
X017402Y036746D01*
X017392Y036675D01*
X018844Y037839D02*
X020353Y039431D01*
X020312Y039432D02*
X020312Y041095D01*
X029868Y037839D02*
X031377Y039431D01*
X031335Y039432D02*
X031335Y041095D01*
X029867Y037839D02*
X029796Y037845D01*
X029725Y037847D01*
X029654Y037845D01*
X029583Y037840D01*
X029512Y037830D01*
X029442Y037817D01*
X029373Y037800D01*
X029305Y037779D01*
X029238Y037754D01*
X029172Y037726D01*
X029109Y037695D01*
X029046Y037660D01*
X028986Y037621D01*
X028928Y037580D01*
X028873Y037535D01*
X028820Y037488D01*
X028769Y037438D01*
X028721Y037385D01*
X028677Y037329D01*
X028635Y037271D01*
X028597Y037211D01*
X028561Y037149D01*
X028530Y037086D01*
X028501Y037020D01*
X028477Y036953D01*
X028456Y036885D01*
X028438Y036816D01*
X028425Y036746D01*
X028415Y036675D01*
X031407Y035675D02*
X031402Y034179D01*
X034129Y031452D01*
X034149Y026114D01*
X032238Y024203D01*
X027931Y024203D01*
X027160Y023432D01*
X027131Y023361D02*
X027131Y022961D01*
X027131Y023361D02*
X027133Y023381D01*
X027139Y023399D01*
X027148Y023417D01*
X027160Y023432D01*
X031335Y020229D02*
X031335Y018566D01*
X031377Y018565D02*
X029868Y016973D01*
X029867Y016973D02*
X029796Y016979D01*
X029725Y016981D01*
X029654Y016979D01*
X029583Y016974D01*
X029512Y016964D01*
X029442Y016951D01*
X029373Y016934D01*
X029305Y016913D01*
X029238Y016888D01*
X029172Y016860D01*
X029109Y016829D01*
X029046Y016794D01*
X028986Y016755D01*
X028928Y016714D01*
X028873Y016669D01*
X028820Y016622D01*
X028769Y016572D01*
X028721Y016519D01*
X028677Y016463D01*
X028635Y016405D01*
X028597Y016345D01*
X028561Y016283D01*
X028530Y016220D01*
X028501Y016154D01*
X028477Y016087D01*
X028456Y016019D01*
X028438Y015950D01*
X028425Y015880D01*
X028415Y015809D01*
X031407Y014809D02*
X031402Y013313D01*
X034129Y010586D01*
X034149Y005248D01*
X032238Y003337D01*
X027931Y003337D01*
X027160Y002566D01*
X027131Y002495D02*
X027131Y002094D01*
X027131Y002495D02*
X027133Y002515D01*
X027139Y002533D01*
X027148Y002551D01*
X027160Y002566D01*
X038154Y002495D02*
X038154Y002094D01*
X038154Y002495D02*
X038156Y002515D01*
X038162Y002533D01*
X038171Y002551D01*
X038183Y002566D01*
X038184Y002566D02*
X038955Y003337D01*
X043261Y003337D01*
X045172Y005248D01*
X045153Y010586D01*
X042426Y013313D01*
X042431Y014809D01*
X040891Y016973D02*
X040820Y016979D01*
X040749Y016981D01*
X040678Y016979D01*
X040607Y016974D01*
X040536Y016964D01*
X040466Y016951D01*
X040397Y016934D01*
X040329Y016913D01*
X040262Y016888D01*
X040196Y016860D01*
X040133Y016829D01*
X040070Y016794D01*
X040010Y016755D01*
X039952Y016714D01*
X039897Y016669D01*
X039844Y016622D01*
X039793Y016572D01*
X039745Y016519D01*
X039701Y016463D01*
X039659Y016405D01*
X039621Y016345D01*
X039585Y016283D01*
X039554Y016220D01*
X039525Y016154D01*
X039501Y016087D01*
X039480Y016019D01*
X039462Y015950D01*
X039449Y015880D01*
X039439Y015809D01*
X040891Y016973D02*
X042400Y018565D01*
X042359Y018566D02*
X042359Y020229D01*
X038154Y022961D02*
X038154Y023361D01*
X038184Y023432D02*
X038955Y024203D01*
X043261Y024203D01*
X045172Y026114D01*
X045153Y031452D01*
X042426Y034179D01*
X042431Y035675D01*
X040891Y037839D02*
X040820Y037845D01*
X040749Y037847D01*
X040678Y037845D01*
X040607Y037840D01*
X040536Y037830D01*
X040466Y037817D01*
X040397Y037800D01*
X040329Y037779D01*
X040262Y037754D01*
X040196Y037726D01*
X040133Y037695D01*
X040070Y037660D01*
X040010Y037621D01*
X039952Y037580D01*
X039897Y037535D01*
X039844Y037488D01*
X039793Y037438D01*
X039745Y037385D01*
X039701Y037329D01*
X039659Y037271D01*
X039621Y037211D01*
X039585Y037149D01*
X039554Y037086D01*
X039525Y037020D01*
X039501Y036953D01*
X039480Y036885D01*
X039462Y036816D01*
X039449Y036746D01*
X039439Y036675D01*
X040891Y037839D02*
X042400Y039431D01*
X042359Y039432D02*
X042359Y041095D01*
X051915Y037839D02*
X053424Y039431D01*
X053383Y039432D02*
X053383Y041095D01*
X051915Y037839D02*
X051844Y037845D01*
X051773Y037847D01*
X051702Y037845D01*
X051631Y037840D01*
X051560Y037830D01*
X051490Y037817D01*
X051421Y037800D01*
X051353Y037779D01*
X051286Y037754D01*
X051220Y037726D01*
X051157Y037695D01*
X051094Y037660D01*
X051034Y037621D01*
X050976Y037580D01*
X050921Y037535D01*
X050868Y037488D01*
X050817Y037438D01*
X050769Y037385D01*
X050725Y037329D01*
X050683Y037271D01*
X050645Y037211D01*
X050609Y037149D01*
X050578Y037086D01*
X050549Y037020D01*
X050525Y036953D01*
X050504Y036885D01*
X050486Y036816D01*
X050473Y036746D01*
X050463Y036675D01*
X053454Y035675D02*
X053449Y034179D01*
X056176Y031452D01*
X056196Y026114D01*
X054285Y024203D01*
X049979Y024203D01*
X049207Y023432D01*
X049178Y023361D02*
X049178Y022961D01*
X049178Y023361D02*
X049180Y023381D01*
X049186Y023399D01*
X049195Y023417D01*
X049207Y023432D01*
X053383Y020229D02*
X053383Y018566D01*
X053424Y018565D02*
X051915Y016973D01*
X051844Y016979D01*
X051773Y016981D01*
X051702Y016979D01*
X051631Y016974D01*
X051560Y016964D01*
X051490Y016951D01*
X051421Y016934D01*
X051353Y016913D01*
X051286Y016888D01*
X051220Y016860D01*
X051157Y016829D01*
X051094Y016794D01*
X051034Y016755D01*
X050976Y016714D01*
X050921Y016669D01*
X050868Y016622D01*
X050817Y016572D01*
X050769Y016519D01*
X050725Y016463D01*
X050683Y016405D01*
X050645Y016345D01*
X050609Y016283D01*
X050578Y016220D01*
X050549Y016154D01*
X050525Y016087D01*
X050504Y016019D01*
X050486Y015950D01*
X050473Y015880D01*
X050463Y015809D01*
X053454Y014809D02*
X053449Y013313D01*
X056176Y010586D01*
X056196Y005248D01*
X054285Y003337D01*
X049979Y003337D01*
X049207Y002566D01*
X049178Y002495D02*
X049178Y002094D01*
X049178Y002495D02*
X049180Y002515D01*
X049186Y002533D01*
X049195Y002551D01*
X049207Y002566D01*
X038154Y023361D02*
X038156Y023381D01*
X038162Y023399D01*
X038171Y023417D01*
X038183Y023432D01*
X016136Y023432D02*
X016124Y023417D01*
X016115Y023399D01*
X016109Y023381D01*
X016107Y023361D01*
D26*
X020312Y018566D02*
X020319Y018561D01*
X020328Y018558D01*
X020337Y018557D01*
X020345Y018560D01*
X020353Y018565D01*
X031336Y018566D02*
X031343Y018561D01*
X031352Y018558D01*
X031361Y018557D01*
X031369Y018560D01*
X031377Y018565D01*
X042359Y018566D02*
X042366Y018561D01*
X042375Y018558D01*
X042384Y018557D01*
X042392Y018560D01*
X042400Y018565D01*
X053383Y018566D02*
X053390Y018561D01*
X053399Y018558D01*
X053408Y018557D01*
X053416Y018560D01*
X053424Y018565D01*
X053424Y039431D02*
X053416Y039426D01*
X053408Y039423D01*
X053399Y039424D01*
X053390Y039427D01*
X053383Y039432D01*
X042400Y039431D02*
X042392Y039426D01*
X042384Y039423D01*
X042375Y039424D01*
X042366Y039427D01*
X042359Y039432D01*
X031377Y039431D02*
X031369Y039426D01*
X031361Y039423D01*
X031352Y039424D01*
X031343Y039427D01*
X031336Y039432D01*
X020353Y039431D02*
X020345Y039426D01*
X020337Y039423D01*
X020328Y039424D01*
X020319Y039427D01*
X020312Y039432D01*
X009329Y039431D02*
X009321Y039426D01*
X009313Y039423D01*
X009304Y039424D01*
X009295Y039427D01*
X009288Y039432D01*
X009288Y018566D02*
X009295Y018561D01*
X009304Y018558D01*
X009313Y018557D01*
X009321Y018560D01*
X009329Y018565D01*
D27*
X007917Y017130D02*
X007821Y016973D01*
X018844Y016973D02*
X018941Y017130D01*
X029868Y016973D02*
X029965Y017130D01*
X040891Y016973D02*
X040988Y017130D01*
X051915Y016973D02*
X052012Y017130D01*
X051915Y037839D02*
X052012Y037996D01*
X040988Y037996D02*
X040891Y037839D01*
X029965Y037996D02*
X029868Y037839D01*
X018941Y037996D02*
X018844Y037839D01*
X007917Y037996D02*
X007821Y037839D01*
D28*
X004008Y031383D03*
X015031Y031383D03*
X026055Y031383D03*
X037079Y031383D03*
X048102Y031383D03*
X048102Y010517D03*
X037079Y010517D03*
X026055Y010517D03*
X015031Y010517D03*
X004008Y010517D03*
M02*
